<?xml version="1.0" encoding="UTF-8"?>
<svg width="150px" height="100px" viewBox="0 0 150 100" version="1.1" xmlns="http://www.w3.org/2000/svg" xmlns:xlink="http://www.w3.org/1999/xlink">
    <!-- Generator: Sketch 56.2 (81672) - https://sketch.com -->
    <title>Group 6</title>
    <desc>Created with Sketch.</desc>
    <g id="Alpha-screens" stroke="none" stroke-width="1" fill="none" fill-rule="evenodd">
        <g id="Charly's-shop-overview-first-use" transform="translate(-16.000000, -427.000000)">
            <g id="Group-[8v]" transform="translate(0.000000, 411.000000)">
                <g id="Group-4">
                    <g id="Group-6" transform="translate(16.000000, 16.000000)">
                        <rect id="Rectangle" fill="#F1D4DC" x="0" y="0" width="150" height="100"></rect>
                        <g id="Group-5" transform="translate(10.000000, 20.000000)">
                            <g id="Charly-Cares-logo" transform="translate(7.000000, 4.000000)" fill="#F56B87">
                                <path d="M64.0618371,41.7823259 C63.9070987,42.4177237 63.7211321,42.9633467 63.5015389,43.4204114 C62.7921986,44.7904473 61.6879912,45.501037 60.2546153,45.501037 C58.8150264,45.501037 57.6587156,44.7951982 56.8440031,43.4435098 C56.051514,42.0828101 55.6670186,40.236044 55.6670186,37.8950617 C55.6670186,35.5540794 56.051514,33.7073134 56.8404761,32.3525416 C57.6368121,30.9965732 58.7958226,30.2890864 60.2546153,30.2890864 C62.1466767,30.2890864 63.4159897,31.5308504 64.0056674,33.8383683 L64.1983689,34.5924444 L62.6218453,34.5924444 L62.5021473,34.1423054 C62.0758341,32.5391018 61.3439918,31.8245926 60.2546153,31.8245926 C59.3687474,31.8245926 58.6906335,32.2394577 58.1638005,33.1234401 C57.553255,34.1747233 57.2367886,35.7668991 57.2367886,37.8950617 C57.2367886,39.9381312 57.5323425,41.4902053 58.1044725,42.5467286 C58.6293302,43.5159565 59.3244094,43.9655309 60.2546153,43.9655309 C61.1089972,43.9655309 61.6995531,43.5847486 62.1047923,42.7636451 C62.2692028,42.4199509 62.4205911,41.992965 62.5569523,41.4839325 L62.6772501,41.0348642 L64.2438665,41.0348642 L64.0618371,41.7823259 Z M69.2834404,45.501037 C67.9984473,45.501037 66.936797,45.0265421 66.1468926,44.0914617 C65.3761612,43.1790781 64.9956991,41.9916943 64.9956991,40.5543704 C64.9956991,39.6865899 65.1608642,38.9158941 65.4960088,38.2486486 C65.8200717,37.6034658 66.2250885,37.0624932 66.7113758,36.6299117 C67.193833,36.2007374 67.7264989,35.8764115 68.3067952,35.6597885 C68.8805167,35.4456199 69.4241528,35.3363457 69.9376704,35.3363457 C71.0283058,35.3363457 71.9888858,35.5698043 72.80747,36.0372756 C72.8252751,35.7890906 72.848681,35.535131 72.8778807,35.2736146 C72.9084059,35.015329 72.9044377,34.7032663 72.8638054,34.3392364 C72.8255769,33.9967423 72.7294312,33.6560176 72.5741466,33.3159414 C72.18739,32.471902 71.5631648,32.005859 70.6422568,31.8727843 C70.0856338,31.7936278 69.6112753,31.8128231 69.2172237,31.9238407 C68.7908053,32.0439771 68.4274738,32.2012301 68.125747,32.3937664 C67.8156326,32.591655 67.567079,32.7965538 67.3787911,33.0064787 C67.1651663,33.2446521 67.0179982,33.4204519 66.9429478,33.5250453 L66.761176,33.7783704 L65.0835342,33.7783704 L65.5232684,32.9028955 C65.5645269,32.8207532 65.6589718,32.6858605 65.8880949,32.3708891 C66.1142684,32.0599727 66.4289664,31.7467036 66.8320864,31.425672 C67.2485757,31.0939934 67.7795039,30.8070841 68.4246895,30.5600625 C69.1176684,30.2947424 69.9312718,30.2276799 70.8663174,30.3491096 C71.625955,30.4541358 72.262278,30.708592 72.7633551,31.1187179 C73.23825,31.5074141 73.6066533,31.9644984 73.8636092,32.4867345 C74.1101271,32.9877565 74.2702419,33.5070519 74.3426474,34.0424792 C74.4109396,34.547489 74.4356445,34.999995 74.4154706,35.4016413 C74.3776342,35.8214848 74.3460672,36.1940794 74.3190302,36.5439645 C74.2925375,36.8868067 74.2704035,37.2164415 74.2526237,37.5328587 C74.2520525,37.6387893 74.2463394,37.7410724 74.2353246,37.8397549 C74.2287785,37.8984028 74.2254117,37.9620813 74.2254117,38.0307407 C74.2065802,38.3849598 74.1931719,38.6919504 74.1842435,38.985249 C74.1753386,39.2777771 74.1708925,39.5566059 74.1708925,39.8217037 L74.1708495,40.1002629 C74.1530803,41.5860952 74.2016606,42.6588025 74.3121204,43.3016347 C74.4242018,43.9539049 74.5079281,44.3662489 74.5486012,44.4877141 L74.8152241,45.2839506 L73.2500472,45.2839506 L73.0896524,44.924701 C72.9914211,44.7046843 72.9051809,44.36129 72.8151812,43.8635617 C71.9243663,44.9454457 70.7324473,45.501037 69.2834404,45.501037 Z M69.9376704,36.8718519 C69.6135946,36.8718519 69.2468519,36.9441068 68.837768,37.092901 C68.4379455,37.2383267 68.0675027,37.4611195 67.7238409,37.7643457 C67.3862072,38.062253 67.1025137,38.4452411 66.8729157,38.9181144 C66.6513046,39.3745382 66.5382095,39.9180354 66.5382095,40.5543704 C66.5382095,41.005436 66.5986934,41.4429565 66.7196891,41.8685333 C66.8372458,42.2820144 67.0115579,42.6483355 67.2428032,42.970609 C67.4616687,43.2756294 67.7369888,43.5172437 68.0743471,43.699758 C68.3981724,43.8749509 68.7985423,43.9655309 69.2834404,43.9655309 C69.8699113,43.9655309 70.3537458,43.8469739 70.7455075,43.615873 C71.1639909,43.3690089 71.5000525,43.0648857 71.7588387,42.7011994 C72.0293646,42.3210147 72.2319214,41.9058796 72.367505,41.4533401 C72.5074991,40.9860795 72.594165,40.5427952 72.6283821,40.1234694 L72.6283821,39.7131605 C72.6283821,39.1539832 72.6502816,38.5244794 72.6939719,37.8241563 C72.0291122,37.1905538 71.1221507,36.8718519 69.9376704,36.8718519 Z M78.7330787,31.5056172 C79.1516891,31.0993253 79.6043676,30.7971429 80.0901515,30.6037116 C80.5683955,30.4132827 81.0396609,30.3162222 81.5016366,30.3162222 L81.6106749,30.3162222 C81.7417583,30.3162222 81.8725352,30.3292405 82.0024501,30.3551055 L82.7635643,30.5066371 L82.7635643,32.1202132 L81.9959707,31.9118201 C81.8454827,31.8709643 81.7166587,31.8517284 81.6106749,31.8517284 L81.5016366,31.8517284 C81.1795259,31.8517284 80.8476764,31.933426 80.5011813,32.1022175 C80.1546772,32.2710134 79.8310208,32.5332584 79.5295649,32.8949019 C79.2204439,33.2657406 78.9480733,33.7513535 78.7161,34.3533947 C78.4851165,34.9528673 78.3249835,35.673394 78.2384735,36.5145252 L78.2384736,45.2839506 L76.6687037,45.2839506 L76.6687037,30.5061728 L78.2384736,30.5061728 L78.2384736,32.0704433 C78.3940327,31.8630715 78.558834,31.6747343 78.7330787,31.5056172 Z M84.4205011,40.7613618 C84.5712181,41.511525 84.8022444,42.1439626 85.110526,42.6608161 C85.6403326,43.5498633 86.3268355,43.9655309 87.2320522,43.9655309 C88.6647621,43.9655309 89.577511,42.983652 90.0165154,40.8147825 L90.114776,40.3293333 L91.6946725,40.3293333 L91.5329622,41.0637864 C91.2205719,42.4825952 90.7312247,43.5562588 90.0506249,44.2747693 C89.2992894,45.0868009 88.3465807,45.501037 87.2320522,45.501037 C85.7945419,45.501037 84.63118,44.7975309 83.794857,43.4446294 C82.9846983,42.107053 82.5899364,40.2572214 82.5899364,37.8950617 C82.5899364,35.5158442 82.9747747,33.6674307 83.7633939,32.3525416 C84.5597298,30.9965732 85.7187403,30.2890864 87.1775331,30.2890864 C88.6386709,30.2890864 89.7982058,31.0077827 90.5927924,32.3815927 C91.3804901,33.7342014 91.7651298,35.5720882 91.7651298,37.8950617 L91.7651298,38.6628148 L84.179043,38.6628148 C84.2156529,39.4438031 84.2963668,40.1435087 84.4205011,40.7613618 Z M89.2695365,33.1526133 C88.7383452,32.2461346 88.0608014,31.8245926 87.1775331,31.8245926 C86.2942647,31.8245926 85.6167209,32.2461346 85.0855296,33.1526133 C84.7758041,33.6719231 84.5497196,34.2979933 84.4078808,35.0371894 C84.2904316,35.649278 84.2137551,36.346202 84.1785097,37.1273086 L90.2072631,37.1273086 C90.1346477,35.4214727 89.8173019,34.0958053 89.2695365,33.1526133 Z M97.2694818,45.501037 C96.5517629,45.501037 95.9046092,45.3763502 95.3325783,45.1232687 C94.775731,44.8769048 94.3000502,44.5594897 93.9093696,44.1705831 C93.5146552,43.777661 93.2140801,43.3235025 93.0107671,42.8122021 C92.8104452,42.3084237 92.7091447,41.7989139 92.7091447,41.287037 L92.7091447,40.6820988 L94.2516551,40.6820988 L94.2516551,41.287037 C94.2516551,41.6078946 94.3141003,41.9260159 94.4407988,42.2450335 C94.5653819,42.5587245 94.7528275,42.8441042 95.0066722,43.1042284 C95.2583544,43.3621366 95.5683793,43.5703601 95.9414397,43.7295172 C96.3064901,43.885257 96.7480904,43.9655309 97.2694818,43.9655309 C98.2753918,43.9655309 99.0269651,43.7262714 99.5512159,43.2632034 C100.059775,42.8139956 100.314568,42.1888364 100.314568,41.3413086 C100.314568,40.9903433 100.240058,40.6902847 100.093119,40.4309844 C99.9313488,40.1455124 99.7133191,39.8916864 99.4355236,39.6674695 C99.1388199,39.4279914 98.7899455,39.2139637 98.3878757,39.026094 C97.9558762,38.8242395 97.5103747,38.6354317 97.0531443,38.4603691 C96.6654488,38.3133463 96.2507945,38.1482377 95.8090708,37.9650218 C95.325758,37.764556 94.8767811,37.5084453 94.4632417,37.197189 C94.0295306,36.8707501 93.6729158,36.4786656 93.3965269,36.0236364 C93.1000228,35.535491 92.954481,34.9615394 92.954481,34.3131358 C92.954481,33.0652637 93.351012,32.0595122 94.1496026,31.3407772 C94.9342313,30.6346081 96.0018198,30.2890864 97.324001,30.2890864 C97.9819935,30.2890864 98.5697374,30.3935641 99.0842675,30.6069782 C99.5855919,30.8149148 100.015564,31.0844087 100.370626,31.4164376 C100.731305,31.7537179 101.007515,32.1441562 101.195323,32.5840507 C101.38109,33.019164 101.475444,33.461169 101.475444,33.9060988 L101.475444,34.511037 L99.932934,34.511037 L99.932934,33.9060988 C99.932934,33.7306506 99.8882825,33.5152448 99.7937733,33.2619523 C99.7043299,33.0222367 99.5612391,32.7964156 99.3603624,32.5821678 C99.1644659,32.3732318 98.9002824,32.1931059 98.5628388,32.0438119 C98.237477,31.8998633 97.8253805,31.8245926 97.324001,31.8245926 C96.3740422,31.8245926 95.6788374,32.0452998 95.2109267,32.4680903 C94.7561514,32.8790118 94.5242509,33.4792154 94.5242509,34.3131358 C94.5242509,34.6690689 94.5923314,34.9638741 94.7237447,35.2058848 C94.8676956,35.4709847 95.0624266,35.7043188 95.3114756,35.9084866 C95.5765563,36.1257971 95.8979835,36.3193578 96.2770751,36.48797 C96.6941359,36.6734702 97.1340044,36.8548108 97.5918971,37.0301465 C98.0387977,37.1969733 98.4944784,37.3821209 98.958983,37.5855749 C99.4625717,37.8061478 99.9268469,38.0874668 100.34538,38.4247871 C101.35699,39.2220082 101.884338,40.2062964 101.884338,41.3413086 C101.884338,42.5892149 101.473658,43.6112522 100.652966,44.3637206 C99.822346,45.1269648 98.6845721,45.501037 97.2694818,45.501037 Z M67.6663144,22.0259647 C67.4307726,22.9638536 67.1598873,23.7620333 66.8500054,24.4230507 C65.7941929,26.5022143 64.0960836,27.575679 61.8652747,27.575679 C59.6725263,27.575679 57.9067205,26.5041509 56.6550169,24.4505256 C55.4427038,22.4100372 54.8551345,19.5812419 54.8551345,15.9526543 C54.8551345,12.3228294 55.4430558,9.50298032 56.648807,7.49528473 C57.8792197,5.41539194 59.6486019,4.3296296 61.8652747,4.3296296 C64.7375402,4.3296296 66.6697284,6.20465642 67.5737038,9.69165494 L67.8705225,10.836605 L65.6066597,10.836605 L65.4282012,10.1500188 C64.7770958,7.64501082 63.6191146,6.52365435 61.8652747,6.52365435 C60.4685514,6.52365435 59.4005457,7.18517366 58.5699086,8.60265718 C58.0762117,9.42188473 57.708078,10.4250747 57.4652001,11.6246511 C57.2155402,12.8577234 57.0894653,14.3010011 57.0894653,15.9526543 C57.0894653,19.1303341 57.5516989,21.5401116 58.4467313,23.1750842 C59.270261,24.6794416 60.3759409,25.3816543 61.8652747,25.3816543 C63.2494104,25.3816543 64.2057888,24.7771872 64.8597547,23.4751944 C65.1493008,22.9165821 65.3644926,22.3007149 65.5094964,21.6150743 L65.6633177,20.8877407 L67.9521684,20.8877407 L67.6663144,22.0259647 Z M72.5512625,11.5348478 C73.040149,11.0481813 73.5727505,10.6864093 74.1478659,10.4574077 C74.7073523,10.2346294 75.2617638,10.1204444 75.807596,10.1204444 L75.9475607,10.1204444 C77.2297089,10.1725394 78.2890772,10.7261823 79.079996,11.7420887 C79.9025714,12.8257335 80.3029963,14.1856859 80.3029963,15.8018519 L80.3029963,27.2740741 L78.0686655,27.2740741 L78.0686655,15.8018519 C78.0686655,15.1458499 77.995013,14.593808 77.8536011,14.1466569 C77.7147943,13.7077434 77.5346721,13.3569306 77.3178731,13.0890229 C77.1051207,12.8261157 76.8791939,12.6392749 76.6382785,12.5193642 C76.3934164,12.3974891 76.1501255,12.330449 75.9021008,12.3144692 L75.807596,12.3144692 C75.4882003,12.3144692 75.1558849,12.3962815 74.8032246,12.5680763 C74.4540033,12.7381959 74.1231436,13.0101071 73.8101205,13.393617 C73.481529,13.7962009 73.1899133,14.3204587 72.940127,14.9687302 C72.6927794,15.6106725 72.5198552,16.3866491 72.425498,17.2959792 L72.425498,27.2740741 L70.1911671,27.2740741 L70.1911671,4.63123453 L72.425498,4.63123453 L72.425498,11.6642983 C72.4669244,11.6202236 72.5088451,11.5770727 72.5512625,11.5348478 Z M87.1442833,27.5153581 C85.6449883,27.5153581 84.3960465,26.9571549 83.4707648,25.8618163 C82.5745165,24.8008471 82.1338158,23.4254647 82.1338158,21.7736296 C82.1338158,20.7729151 82.3253597,19.8791303 82.715736,19.1019228 C83.0893314,18.3581247 83.5580645,17.7320476 84.1224103,17.2300286 C84.6809562,16.7331689 85.2990639,16.3568197 85.9728237,16.1053071 C86.6366274,15.857511 87.2695171,15.7302963 87.871437,15.7302963 C88.9801375,15.7302963 89.9761373,15.9414688 90.8469653,16.3643912 C90.8613502,16.2041292 90.8777649,16.0414187 90.8962612,15.8757825 C90.927844,15.6085481 90.9236651,15.2799176 90.8804376,14.892636 C90.84085,14.537966 90.7410104,14.1841509 90.5790704,13.8294986 C90.1837439,12.9667568 89.5605867,12.501511 88.6199412,12.3655834 C88.033273,12.2821542 87.5400614,12.3021124 87.1373485,12.4155703 C86.685623,12.5428366 86.3038046,12.7080907 85.9896543,12.9085547 C85.6628027,13.1171236 85.403548,13.330844 85.2099329,13.5467083 C84.9779504,13.805349 84.8191494,13.9950448 84.7421043,14.1024182 L84.4668497,14.4860247 L82.0801508,14.4860247 L82.7460341,13.1603056 C82.8011907,13.0504932 82.902115,12.9063463 83.1722074,12.5350552 C83.4378331,12.1699044 83.8027396,11.8066548 84.2667681,11.4371177 C84.7510415,11.0514581 85.3628576,10.7208375 86.1019361,10.4378673 C86.9133872,10.1271879 87.8580892,10.0493194 88.9372715,10.1894749 C89.8240411,10.3120781 90.5734939,10.6117733 91.1675561,11.0980065 C91.721971,11.5517889 92.1535618,12.087271 92.4548202,12.6995473 C92.7402725,13.2796994 92.9259988,13.8820599 93.0100196,14.5033806 C93.0878117,15.0786405 93.1160714,15.596259 93.0928429,16.0587206 C93.0501889,16.5341635 93.0151982,16.9471694 92.9852372,17.3348936 C92.9560883,17.7121094 92.9317139,18.0747833 92.9121073,18.4228962 C92.9112385,18.5467824 92.9044211,18.6669081 92.8914252,18.7833397 C92.8851727,18.8393567 92.8819045,18.9011702 92.8819045,18.9687037 C92.8607087,19.3739216 92.8458951,19.7130893 92.8360352,20.0369871 C92.8262109,20.3597182 92.8213084,20.6671717 92.8213084,20.9592963 L92.8213084,21.2609012 C92.8016561,22.9096491 92.8550895,24.089517 92.9747737,24.786032 C93.0389929,25.1597628 93.0942395,25.4604059 93.1401334,25.6864291 C93.1810519,25.8879486 93.2134806,26.0233226 93.2285564,26.0683444 L93.6322996,27.2740741 L91.3939432,27.2740741 L91.1510597,26.7300676 C91.0684281,26.5449908 90.9953586,26.2984246 90.9239593,25.9748592 C89.9299634,26.9928786 88.653757,27.5153581 87.1442833,27.5153581 Z M87.871437,17.924321 C87.5417452,17.924321 87.1620818,17.9991215 86.7329454,18.1552094 C86.3178333,18.3061962 85.932567,18.5379043 85.5732164,18.8549734 C85.2229939,19.1639883 84.9269983,19.5635842 84.6854689,20.0610311 C84.4560339,20.5335688 84.3378486,21.1015278 84.3378486,21.7736296 C84.3378486,22.252628 84.4019869,22.7165838 84.5303051,23.1679157 C84.6534157,23.6009313 84.8350193,23.9825759 85.075383,24.3175571 C85.2970001,24.6264122 85.5748257,24.8702252 85.9173105,25.0555131 C86.2393026,25.2297141 86.6442657,25.3213333 87.1442833,25.3213333 C87.754188,25.3213333 88.2489384,25.2001016 88.6445235,24.9667453 C89.0805729,24.709519 89.428417,24.3947329 89.6958445,24.0189026 C89.9810491,23.618089 90.1944428,23.1807441 90.3375306,22.7031575 C90.4873121,22.2032296 90.5801264,21.7304217 90.6172756,21.2847131 L90.6172756,20.8386543 C90.6172756,20.2427833 90.6394249,19.5766168 90.683582,18.8395188 C90.0000416,18.2310921 89.0785319,17.924321 87.871437,17.924321 Z M98.14154,11.5417813 C98.6290254,11.0686413 99.1589513,10.7148929 99.7298552,10.4875682 C100.289342,10.2647899 100.843753,10.1506049 101.389585,10.1506049 L101.510778,10.1506049 C101.672673,10.1506049 101.834104,10.1666748 101.99423,10.1985545 L103.036967,10.4061549 L103.036967,12.7183998 L101.874611,12.4028331 C101.727255,12.3628275 101.605383,12.3446297 101.510778,12.3446297 L101.389585,12.3446297 C101.07019,12.3446297 100.737874,12.426442 100.385214,12.5982368 C100.03254,12.7700383 99.6998206,13.0396267 99.3860803,13.4160071 C99.060733,13.806312 98.7709029,14.3230535 98.5221164,14.9687302 C98.2747688,15.6106725 98.1018446,16.3866491 98.0074873,17.2959792 L98.0074873,27.2740741 L95.7731565,27.2740741 L95.7731565,10.3617284 L98.0074873,10.3617284 L98.0074873,11.6767993 C98.0516041,11.6307096 98.0962872,11.5857025 98.14154,11.5417813 Z M105.049575,27.2740741 L105.049575,4.63123453 L107.283906,4.63123453 L107.283906,27.2740741 L105.049575,27.2740741 Z M117.719372,10.3617284 L120,10.3617284 L119.714146,11.4999524 C119.671811,11.6685238 119.584948,11.9940516 119.452088,12.4823831 C119.3213,12.9631024 119.1652,13.544564 118.983829,14.2266325 C118.801764,14.9113126 118.599516,15.6662967 118.377074,16.4916338 C118.155364,17.3142545 117.93365,18.1469251 117.711178,18.9924871 C117.186293,20.9619175 116.600964,23.1419259 115.955167,25.5326059 C115.912169,25.703326 115.864084,25.8786189 115.810927,26.0585339 C115.759941,26.2310974 115.703926,26.4186566 115.640987,26.6274219 C115.624743,26.6799745 114.375363,31.398353 113.809209,33.475275 C113.751816,33.685817 113.695283,33.8925367 113.639602,34.0954306 C112.856829,36.9477595 112.270896,38.9446988 111.919446,39.8963348 C111.026925,42.3130498 109.027053,44.3961398 107.466622,44.9087247 L106.258025,45.3057361 L106.258025,43.0406756 L106.818348,42.8036457 C107.146698,42.6647458 107.647302,42.312873 108.133682,41.8221196 C108.794405,41.1554567 109.369326,40.304438 109.796191,39.2757518 C110.140506,38.4460009 110.703309,36.6003758 111.418916,34.0081209 C111.508557,33.6833997 111.60022,33.3483281 111.693848,33.0032642 C112.266179,30.8939408 113.389525,26.557806 113.505802,26.1058585 C113.551174,25.9223225 113.603187,25.7439811 113.661212,25.5706963 C113.678743,25.5183416 113.695594,25.4651559 113.71176,25.4111364 L108.96314,10.3617284 L111.287067,10.3617284 L114.768625,21.4470273 L117.719372,10.3617284 Z M24.6117566,49 C11.0190588,49 0,38.0309764 0,24.5 C0,10.9690236 11.0190588,0 24.6117566,0 C38.2044544,0 49.2235132,10.9690236 49.2235132,24.5 C49.2235132,38.0309764 38.2044544,49 24.6117566,49 Z M19.5504533,41.8280775 L24.3079077,46.5639294 L29.1187556,41.7749266 C29.6170019,41.6345671 30.1499745,41.3841738 30.8157328,41.2222222 C31.7829794,40.9869309 32.7156359,40.8410976 33.8988152,41.3400367 C34.5557487,41.6170613 35.3040259,42.2921437 36.1436467,43.3652841 C42.5293711,39.4889312 46.7927224,32.4900844 46.7927224,24.5 C46.7927224,12.3054164 36.8619657,2.41975309 24.6117566,2.41975309 C12.3615474,2.41975309 2.43079077,12.3054164 2.43079077,24.5 C2.43079077,32.169131 6.35851242,38.9250591 12.3207552,42.8831802 C13.0590769,42.0873559 13.7044313,41.5729748 14.2568185,41.3400367 C15.4399978,40.8410976 16.3726543,40.9869309 17.3399008,41.2222222 C18.1388738,41.4165795 18.7466052,41.7383129 19.3325818,41.8443754 C19.4016773,41.8355476 19.4743011,41.8301149 19.5504533,41.8280775 Z M14.4840068,20.7623101 C17.8390673,20.5083289 20.3007954,19.3474807 21.8290924,17.2708935 C23.5421482,20.4333431 27.9242636,22.5034473 33.6812162,22.5466615 C33.5407525,29.326709 27.7382853,35.691358 24.0474659,35.691358 C20.3112486,35.691358 14.4111167,29.1691732 14.4111167,22.2962963 C14.4111167,21.7754613 14.4358931,21.2635883 14.4840068,20.7623101 Z M14.6213003,19.7109929 C15.5462865,14.135729 19.4151702,10.1111111 24.0474659,10.1111111 C29.1645974,10.1111111 33.3501503,15.0222847 33.6648226,21.5097095 C30.7386599,21.4866934 28.2070746,20.9266522 26.2265763,19.9205004 C24.2801186,18.9316423 22.9535712,17.549697 22.401454,16.0092108 L22.0149142,14.9307097 L21.4556755,15.9313643 C20.2148623,18.1515709 17.9544996,19.4153771 14.6213003,19.7109929 Z M22.3853064,36.4352064 C22.9553294,36.6269757 23.5137445,36.7283951 24.0474659,36.7283951 C24.5811872,36.7283951 25.1396024,36.6269757 25.7096253,36.4352064 C25.5744177,39.7103279 26.091418,41.3635974 27.6787131,41.7418383 L24.3079077,45.0973376 L20.8079716,41.6132938 C22.0888623,41.062377 22.5087029,39.4242284 22.3853064,36.4352064 Z M25.875842,9.26047065 C27.5067004,6.97922223 29.5408283,6.05930648 31.978226,6.50072338 C36.1965025,7.26466049 38.7147855,10.682798 39.0873056,15.4401042 C39.4598256,20.1974103 36.8915229,22.731602 37.1460302,26.7330729 C37.3157017,29.4007202 38.8461934,31.4329347 41.737505,32.8297164 C39.3911544,33.4717882 37.3376878,32.9858459 35.5771053,31.3718895 C34.7018802,30.5695555 33.9652845,29.5822111 33.3673184,28.4098563 C34.2368353,26.4426468 34.7255825,24.3489098 34.7255825,22.2962963 C34.7255825,15.7120377 30.9690486,10.3141739 25.875842,9.26047062 Z" id="Combined-Shape"></path>
                            </g>
                            <rect id="Rectangle" fill="#F1D4DC" x="0" y="0" width="60" height="58"></rect>
                            <g id="Icons/present" transform="translate(4.000000, 0.000000)" fill="#F56B87">
                                <path d="M21.3394737,46.4447368 L21.3394737,27.4763158 L9.34473684,27.4763158 L9.34473684,45.3289474 C9.34473684,45.9451809 9.84429281,46.4447368 10.4605263,46.4447368 L21.3394737,46.4447368 Z M31.6605263,46.4447368 L42.5394737,46.4447368 C43.1557072,46.4447368 43.6552632,45.9451809 43.6552632,45.3289474 L43.6552632,27.4763158 L31.6605263,27.4763158 L31.6605263,46.4447368 Z M29.7078947,27.4763158 L23.2921053,27.4763158 L23.2921053,46.4447368 L29.7078947,46.4447368 L29.7078947,27.4763158 Z M21.3394737,17.7131579 L6.27631579,17.7131579 C5.66008228,17.7131579 5.16052632,18.2127139 5.16052632,18.8289474 L5.16052632,24.4078947 C5.16052632,25.0241282 5.66008228,25.5236842 6.27631579,25.5236842 L21.3394737,25.5236842 L21.3394737,17.7131579 Z M31.6605263,17.7131579 L31.6605263,25.5236842 L46.7236842,25.5236842 C47.3399177,25.5236842 47.8394737,25.0241282 47.8394737,24.4078947 L47.8394737,18.8289474 C47.8394737,18.2127139 47.3399177,17.7131579 46.7236842,17.7131579 L31.6605263,17.7131579 Z M29.7078947,25.5236842 L29.7078947,17.7131579 L23.2921053,17.7131579 L23.2921053,25.5236842 L29.7078947,25.5236842 Z M45.6078947,27.4763158 L45.6078947,45.3289474 C45.6078947,47.0235895 44.2341158,48.3973684 42.5394737,48.3973684 L10.4605263,48.3973684 C8.76588416,48.3973684 7.39210526,47.0235895 7.39210526,45.3289474 L7.39210526,27.4763158 L6.27631579,27.4763158 C4.58167364,27.4763158 3.20789474,26.1025369 3.20789474,24.4078947 L3.20789474,18.8289474 C3.20789474,17.1343052 4.58167364,15.7605263 6.27631579,15.7605263 L46.7236842,15.7605263 C48.4183264,15.7605263 49.7921053,17.1343052 49.7921053,18.8289474 L49.7921053,24.4078947 C49.7921053,26.1025369 48.4183264,27.4763158 46.7236842,27.4763158 L45.6078947,27.4763158 Z M15.4675831,4.73617365 C18.5321034,5.06751471 22.3564484,7.06379998 26.4998089,10.6746793 C30.656824,7.04761513 34.480402,5.01755459 37.5230913,4.65895214 C40.6606097,4.28917341 42.8184211,5.82795845 42.8184211,8.49392238 C42.8184211,12.9409288 37.6398645,14.3518171 26.5,14.3518171 C15.6838258,14.3518171 10.1815789,12.7991733 10.1815789,8.49392238 C10.1815789,5.9181318 12.3528609,4.39940468 15.4675831,4.73617365 Z M12.1342105,8.49392238 C12.1342105,10.971563 16.5432436,12.3032203 25.4982192,12.3941879 C18.0642321,5.80896406 12.1342105,5.21777478 12.1342105,8.49392238 Z M40.8657895,8.49392238 C40.8657895,5.0963561 35.0110772,5.73522279 27.5007963,12.39491 C36.7217969,12.3144765 40.8657895,11.0962771 40.8657895,8.49392238 Z" id="icon"></path>
                            </g>
                        </g>
                    </g>
                </g>
            </g>
        </g>
    </g>
</svg>