<svg width="1275" height="951" xmlns="http://www.w3.org/2000/svg"><g fill="none" fill-rule="evenodd"><path fill="#FFF" d="M808 232h231v247H808z"/><path d="M949.669 337.659l-3.63-9.318c17.163-6.687 30.464-12.345 39.873-16.956 9.344-4.579 24.722-13.682 46.03-27.263l5.374 8.432c-21.602 13.77-37.236 23.024-47.004 27.81-9.702 4.755-23.24 10.514-40.643 17.295zM894.832 337.321l3.63-9.318C881.3 321.316 868 315.658 858.59 311.047c-9.344-4.579-24.722-13.682-46.03-27.263l-5.374 8.432c21.602 13.77 37.236 23.025 47.004 27.811 9.702 4.755 23.24 10.513 40.643 17.294z" fill="#EBD8DC" fill-rule="nonzero"/><path d="M936.72 332.64l27.948 116.52H877.74l28.466-116.34c-4.788-1.911-8.673-4.563-8.673-7.785.667-5.93 8.82-15.942 24.458-30.035 15.242 14.714 23.196 24.725 23.863 30.035 0 2.876-4.136 5.577-9.133 7.604z" fill="#68AEBF"/><path d="M921.991 295c15.242 14.714 23.196 24.725 23.863 30.035 0 5.965-17.793 11.18-24.16 11.18-6.369 0-24.16-4.284-24.16-11.18.666-5.93 8.819-15.942 24.457-30.035z" fill="#000" opacity=".15"/><path d="M921.991 295c-8.153 10.255-13.354 17.59-15.604 22.006-3.376 6.624-6.086 12.597-6.086 12.597-1.702-1.35-2.768-2.88-2.768-4.568.667-5.93 8.82-15.942 24.458-30.035z" fill="#000" opacity=".15"/><path d="M936.72 332.64l27.948 116.52h-43.47l.572-154.351.22.521.001-.33c15.242 14.714 23.196 24.725 23.863 30.035 0 2.876-4.136 5.577-9.133 7.604z" fill="#000" opacity=".15"/><path d="M921.991 295c15.242 14.714 23.196 24.725 23.863 30.035 0 1.355-.918 2.67-2.41 3.895 0 0-3.497-7.127-7.902-13.85-2.937-4.482-7.454-11.175-13.55-20.08z" fill="#000" opacity=".15"/><g><path d="M938.582 631.102l81.805-6.83L991.25 801.29h-2.477c4.729 5.747 11.735 9.596 21.019 11.547 13.926 2.926 28.97 13.346 25.523 19.771-3.447 6.426-13.73 13.264-25.523 13.264s-28.981-9.087-38.605-13.264c-9.625-4.176-11.213-1.514-17.598-1.514-4.257 0-8.305-1.861-12.147-5.583V801.29h-2.861v-170.19zm-32.766 0V801.29h-2.862v24.22c-3.84 3.723-7.89 5.584-12.146 5.584-6.385 0-7.974-2.662-17.598 1.514-9.624 4.177-26.812 13.264-38.605 13.264-11.793 0-22.077-6.838-25.524-13.264-3.447-6.425 11.598-16.845 25.524-19.771 9.283-1.95 16.29-5.8 21.018-11.547h-2.476l-29.136-177.02 81.805 6.83z" fill="#993E51"/><path d="M1012.479 672.317c-22.458 6.753-47.437 11.056-73.897 12.305v-53.52l81.805-6.83-7.908 48.045zm-106.663 12.276c-26.487-1.298-51.478-5.656-73.929-12.467l-7.876-47.855 81.805 6.83v53.492z" fill="#742938"/></g><g><path d="M923.469 645.262c151.092 0 239.258-101.443 239.258-223.498 0-85.102-50.4-154.965-126.877-189.468-10.402 76.326-48.669 145.796-114.798 208.411-66.414-65.053-103.912-134.25-112.496-207.588C732.145 267.901 681 337.333 681 421.764c0 122.055 91.377 223.498 242.469 223.498z" fill="#993E51"/><path d="M923.469 645.262l-2.417-204.555c66.13-62.615 104.396-132.085 114.798-208.41 76.477 34.502 126.877 104.365 126.877 189.467 0 122.055-88.166 223.498-239.258 223.498zm-2.417-204.555c-35.802 0-80.451-30.433-133.948-91.299-.944-1.073 2.949-11.484 11.677-31.232l-39.135-9.553c0-13.814 27.458-70.951 48.91-75.504 8.584 73.339 46.082 142.535 112.496 207.588zM905.5 502.668a5.5 5.5 0 1 1 0-11 5.5 5.5 0 0 1 0 11zm0 35a5.5 5.5 0 1 1 0-11 5.5 5.5 0 0 1 0 11zm0 35a5.5 5.5 0 1 1 0-11 5.5 5.5 0 0 1 0 11zm0 35a5.5 5.5 0 1 1 0-11 5.5 5.5 0 0 1 0 11zm0-140a5.5 5.5 0 1 1 0-11 5.5 5.5 0 0 1 0 11z" fill="#742938"/></g><g><path d="M693.455 502.668c8.9 11.668 16.598 20.554 23.094 26.658 43.097 40.5 108.552 66.307 129.451 69.838 20.899 3.531 36.802 7.412 44.167 4.082 7.366-3.33 25.478-59.116 25.478-65.578 0-6.461-3.247-16.336-18.112-25.668-14.865-9.332-59.928-33-88.348-55.332-28.42-22.331-47.867-52.18-57.656-87.607-9.789-35.428-9.789-57.645-17.039-50.48-4.833 4.775-18.511 66.138-41.035 184.087z" fill="#742938"/><path d="M870 586.379c13.445 5.064 21.334 6.604 23.668 4.621 3.5-2.975 28.236-28.36 25.106-33-3.13-4.64-7.606-11.832-12.958-11.832-3.569 0-15.507 13.404-35.816 40.21z" fill="#FFF"/><path d="M768.797 264.736c-59.1 20.112-94.581 62.978-106.445 128.596C647.033 478.052 695.699 544.615 870 591c7 0 46.184-38.278 41-53.332-5.184-15.053-100.59-54.797-129.906-96.961-29.317-42.164-35.925-86.183-38.069-116.86-1.429-20.45 7.162-40.153 25.772-59.11z" fill="#993E51"/></g><path d="M921.991 558c-3.217.803-.454.803-10.991 8-10.537 7.197-23.905 20.505-25.994 25-1.393 2.997 1.495 5.956 8.662 8.877-2.577 10.208-2.577 16.826 0 19.853 2.577 3.028 21.687.555 57.332-7.418L962 591c-24.528-22.535-37.864-33.535-40.009-33z" fill="#FDE2B6"/><g><path d="M930.604 548.9c4.315 6.954 8.793 12.654 13.434 17.1 4.641 4.446 13.162 13.058 25.56 25.837l-12.49 4.831c-8.713-7.178-14.888-12.734-18.526-16.668-5.456-5.9-14.582-18.303-14.582-22 0-2.465 2.201-5.498 6.604-9.1z" fill="#FFF"/><path d="M1080.508 264c63.695 30.48 97.704 78.36 102.027 143.64 4.323 65.28-28.917 111.456-99.72 138.528L1080.507 264z" fill="#742938"/></g><g><path d="M892.79 64.624l58.217-.006a45 45 0 0 1 30.14 26.26l17.33 41.702c7.708-8.825 15.487-8.918 23.335-.278 7.85 8.64 5.382 21.514-7.402 38.62l19.026 50.003a30 30 0 0 1-8.819 33.703C993.961 280.21 959.74 293 921.955 293c-37.79 0-72.016-12.795-102.676-38.384a30 30 0 0 1-8.825-33.68l19.063-50.21c-13.85-16.866-17.003-29.673-9.461-38.424 7.541-8.75 16.005-8.75 25.392 0l17.155-41.376a45 45 0 0 1 30.187-26.302z" fill="#FCDEAB"/><path d="M998.526 132.523c7.692-8.769 15.454-8.842 23.287-.22 7.848 8.64 5.381 21.513-7.403 38.62l19.026 50.002a30 30 0 0 1-8.819 33.703C993.961 280.21 959.74 293 921.955 293c-37.79 0-72.016-12.795-102.676-38.384a30 30 0 0 1-8.825-33.68l19.063-50.21c-13.85-16.866-17.003-29.673-9.461-38.424 7.541-8.75 16.005-8.75 25.392 0l.557-1.343L846 131c-20.12 55.573-29.12 87.8-27 96.683 3.18 13.323 32.925 49.622 102.991 49.622 70.067 0 97.792-35.639 102.009-47.305 2.787-7.71-5.705-40.201-25.474-97.477z" fill="#F0BD87"/><path d="M969.41 74.727c-7.74-.966-13.462-1.299-17.168-1-11.225.904-21.221 3.057-29.952 3.057-8.268 0-18.4-1.499-27.69-3.057-8.01-1.344-14.318-1.01-18.926 1l-.775-.744c30.36-23.708 76.101-17.622 94.7.629l-.189.115z" fill="#C47F67"/><path fill="#742938" d="M854 127l13.07 31.295h38.284L918.774 127z"/><path fill="#AE7C86" fill-rule="nonzero" d="M868.61 127.563l2.78-1.126 12.668 31.295-2.78 1.126zM879.61 127.563l2.78-1.126 12.668 31.295-2.78 1.126z"/><path fill="#742938" d="M924 127l13.07 31.295h38.284L988.774 127z"/><path fill="#AE7C86" fill-rule="nonzero" d="M965.058 127.563l-2.78-1.126-12.668 31.295 2.78 1.126zM976.058 127.563l-2.78-1.126-12.668 31.295 2.78 1.126z"/><path d="M922.894 131h-2.027l-13.206 30.795h-42.923L851.878 131H846v-7h152v7h-6.116l-12.86 30.795H936.1L922.894 131zm7.617 0l10.204 23.795h33.646L984.298 131h-53.787zm-17.26 0h-53.788l9.938 23.795h33.645L913.251 131z" fill="#993E51"/><path d="M895.506 224.81a3.5 3.5 0 1 1-3.676-5.957c11.469-7.078 21.95-10.666 31.47-10.666 9.622 0 19.149 3.662 28.524 10.87a3.5 3.5 0 0 1-4.267 5.549c-8.218-6.318-16.285-9.418-24.256-9.418-8.073 0-17.347 3.174-27.795 9.622z" fill="#C47F67" fill-rule="nonzero"/><g fill="#742938"><path d="M1015.23 155.405c-1.842-.318-5.996-4.16-7.529-8.343-1.6-4.369-1.6-7.672 0-9.516 1.6-1.844 5.82.946 7.76 5.147 1.94 4.202 2.403 6.693 1.7 9.304-.236.877-.314 1.552-.377 2.061 1.037 1.924 1.111 3.553.085 4.856-.42.533-.926.96-1.536 1.339-.406.253-1.535.827-1.577.852a5.915 5.915 0 0 0-.059.034l.028.037c.149.187.94.179 2.378-.18.187-.048.38-.098.636-.167 1.487-.399 1.747-.462 2.285-.514 1.116-.107 2.013.309 2.013 1.48 0 .994-.35 1.412-1.956 2.927-.764.722-1.116 1.122-1.27 1.477-.118.273-.078.43.308.76.351.298.733.414 1.208.388.499-.027 1.046-.199 1.827-.543.079-.034.7-.315.873-.389.36-.153.633-.247.902-.295 1.043-.185 1.79.479 1.79 1.6 0 1.332-.702 2.237-2.205 3.476-1.075.888-1.172.965-1.306 1.136.113.018.255.038.438.06l.366.046c1.713.232 2.707.847 2.707 2.471 0 2.188-2.427 3.585-7.038 4.575l-.42-1.956c3.72-.798 5.458-1.799 5.458-2.619 0-.29-.14-.376-.975-.489a25.638 25.638 0 0 0-.342-.043c-1.654-.203-2.365-.5-2.365-1.81 0-.492.187-.935.512-1.358.208-.27.467-.528.814-.829.126-.11.259-.22.44-.368l.439-.358c.619-.511 1.02-.909 1.245-1.256l-.527.237c-.984.433-1.725.665-2.523.71-.967.052-1.855-.217-2.614-.864-1.043-.888-1.322-1.98-.847-3.077.302-.696.763-1.221 1.732-2.136.381-.36.663-.637.867-.85-.277.065-.67.17-1.318.343a39.96 39.96 0 0 1-.668.174c-2.246.562-3.568.577-4.434-.52-.984-1.249-.647-2.323.601-3.043.116-.066 1.204-.62 1.52-.817.427-.265.76-.546 1.022-.879.396-.503.4-1.254-.067-2.271z"/></g></g><g><path fill="#FFF" d="M228 232h231v247H228z"/><path d="M369.669 337.659l-3.63-9.318c17.163-6.687 30.464-12.345 39.873-16.956 9.344-4.579 24.722-13.682 46.03-27.263l5.374 8.432c-21.602 13.77-37.236 23.024-47.004 27.81-9.702 4.755-23.24 10.514-40.643 17.295zM314.832 337.321l3.63-9.318C301.3 321.316 288 315.658 278.59 311.047c-9.344-4.579-24.722-13.682-46.03-27.263l-5.374 8.432c21.602 13.77 37.236 23.025 47.004 27.811 9.702 4.755 23.24 10.513 40.643 17.294z" fill="#EBD8DC" fill-rule="nonzero"/><path d="M356.72 332.64l27.948 116.52H297.74l28.466-116.34c-4.788-1.911-8.673-4.563-8.673-7.785.667-5.93 8.82-15.942 24.458-30.035 15.242 14.714 23.196 24.725 23.863 30.035 0 2.876-4.136 5.577-9.133 7.604z" fill="#F56B87"/><path d="M341.991 295c15.242 14.714 23.196 24.725 23.863 30.035 0 5.965-17.793 11.18-24.16 11.18-6.369 0-24.16-4.284-24.16-11.18.666-5.93 8.819-15.942 24.457-30.035z" fill="#000" opacity=".15"/><path d="M341.991 295c-8.153 10.255-13.354 17.59-15.604 22.006-3.376 6.624-6.086 12.597-6.086 12.597-1.702-1.35-2.768-2.88-2.768-4.568.667-5.93 8.82-15.942 24.458-30.035z" fill="#000" opacity=".15"/><path d="M356.72 332.64l27.948 116.52h-43.47l.572-154.351.22.521.001-.33c15.242 14.714 23.196 24.725 23.863 30.035 0 2.876-4.136 5.577-9.133 7.604z" fill="#000" opacity=".15"/><path d="M341.991 295c15.242 14.714 23.196 24.725 23.863 30.035 0 1.355-.918 2.67-2.41 3.895 0 0-3.497-7.127-7.902-13.85-2.937-4.482-7.454-11.175-13.55-20.08z" fill="#000" opacity=".15"/><g><path d="M358.582 631.102l81.805-6.83L411.25 801.29h-2.477c4.729 5.747 11.735 9.596 21.019 11.547 13.926 2.926 28.97 13.346 25.523 19.771-3.447 6.426-13.73 13.264-25.523 13.264s-28.981-9.087-38.605-13.264c-9.625-4.176-11.213-1.514-17.598-1.514-4.257 0-8.305-1.861-12.147-5.583V801.29h-2.861v-170.19zm-32.766 0V801.29h-2.862v24.22c-3.84 3.723-7.89 5.584-12.146 5.584-6.385 0-7.974-2.662-17.598 1.514-9.624 4.177-26.812 13.264-38.605 13.264-11.793 0-22.077-6.838-25.524-13.264-3.447-6.425 11.598-16.845 25.524-19.771 9.283-1.95 16.29-5.8 21.018-11.547h-2.476l-29.136-177.02 81.805 6.83z" fill="#993E51"/><path d="M432.479 672.317c-22.458 6.753-47.437 11.056-73.897 12.305v-53.52l81.805-6.83-7.908 48.045zm-106.663 12.276c-26.487-1.298-51.478-5.656-73.929-12.467l-7.876-47.855 81.805 6.83v53.492z" fill="#742938"/></g><g><path d="M343.469 645.262c151.092 0 239.258-101.443 239.258-223.498 0-85.102-50.4-154.965-126.877-189.468-10.402 76.326-48.669 145.796-114.798 208.411-66.414-65.053-103.912-134.25-112.496-207.588C152.145 267.901 101 337.333 101 421.764c0 122.055 91.377 223.498 242.469 223.498z" fill="#993E51"/><path d="M343.469 645.262l-2.417-204.555c66.13-62.615 104.396-132.085 114.798-208.41 76.477 34.502 126.877 104.365 126.877 189.467 0 122.055-88.166 223.498-239.258 223.498zm-2.417-204.555c-35.802 0-80.451-30.433-133.948-91.299-.944-1.073 2.949-11.484 11.677-31.232l-39.135-9.553c0-13.814 27.458-70.951 48.91-75.504 8.584 73.339 46.082 142.535 112.496 207.588zM325.5 502.668a5.5 5.5 0 1 1 0-11 5.5 5.5 0 0 1 0 11zm0 35a5.5 5.5 0 1 1 0-11 5.5 5.5 0 0 1 0 11zm0 35a5.5 5.5 0 1 1 0-11 5.5 5.5 0 0 1 0 11zm0 35a5.5 5.5 0 1 1 0-11 5.5 5.5 0 0 1 0 11zm0-140a5.5 5.5 0 1 1 0-11 5.5 5.5 0 0 1 0 11z" fill="#742938"/></g><g><path d="M312.79 64.624l58.217-.006a45 45 0 0 1 30.14 26.26l17.33 41.702c7.708-8.825 15.487-8.918 23.336-.278 7.848 8.64 5.381 21.514-7.403 38.62l19.026 50.003a30 30 0 0 1-8.819 33.703C413.961 280.21 379.74 293 341.955 293c-37.79 0-72.016-12.795-102.676-38.384a30 30 0 0 1-8.825-33.68l19.063-50.21c-13.85-16.866-17.003-29.673-9.461-38.424 7.541-8.75 16.005-8.75 25.392 0l17.155-41.376a45 45 0 0 1 30.187-26.302z" fill="#FCDEAB"/><path d="M301.248 202.16c12.523-8.183 26.666-12.275 42.43-12.275 15.705 0 29.91 4.061 42.613 12.185a40 40 0 0 1 16.396 21.042l15.417 46.22c-24.119 11.982-48.688 17.973-73.708 17.973-25.019 0-50.067-5.991-75.144-17.973l16.051-46.692a40 40 0 0 1 15.945-20.48z" fill="#F0BD87" opacity=".4"/><path d="M418.526 132.523c7.692-8.769 15.454-8.842 23.287-.22 7.848 8.64 5.381 21.513-7.403 38.62l19.026 50.002a30 30 0 0 1-8.819 33.703C413.961 280.21 379.74 293 341.955 293c-37.79 0-72.016-12.795-102.676-38.384a30 30 0 0 1-8.825-33.68l19.063-50.21c-13.85-16.866-17.003-29.673-9.461-38.424 7.541-8.75 16.005-8.75 25.392 0l.557-1.343L266 131c-20.12 55.573-29.12 87.8-27 96.683 3.18 13.323 32.925 49.622 102.991 49.622 70.067 0 97.792-35.639 102.009-47.305 2.787-7.71-5.705-40.201-25.474-97.477z" fill="#F0BD87"/><path d="M389.41 74.727c-7.74-.966-13.462-1.299-17.168-1-11.225.904-21.221 3.057-29.952 3.057-8.268 0-18.4-1.499-27.69-3.057-8.01-1.344-14.318-1.01-18.926 1l-.775-.744c30.36-23.708 76.101-17.622 94.7.629l-.189.115z" fill="#C47F67"/><path fill="#742938" d="M274 127l13.07 31.295h38.284L338.774 127z"/><path fill="#AE7C86" fill-rule="nonzero" d="M288.61 127.563l2.78-1.126 12.668 31.295-2.78 1.126zM299.61 127.563l2.78-1.126 12.668 31.295-2.78 1.126z"/><path fill="#742938" d="M344 127l13.07 31.295h38.284L408.774 127z"/><path fill="#AE7C86" fill-rule="nonzero" d="M385.058 127.563l-2.78-1.126-12.668 31.295 2.78 1.126zM396.058 127.563l-2.78-1.126-12.668 31.295 2.78 1.126z"/><path d="M342.894 131h-2.027l-13.206 30.795h-42.923L271.878 131H266v-7h152v7h-6.116l-12.86 30.795H356.1L342.894 131zm7.617 0l10.204 23.795h33.646L404.298 131h-53.787zm-17.26 0h-53.788l9.938 23.795h33.645L333.251 131z" fill="#993E51"/><path d="M315.506 224.81a3.5 3.5 0 1 1-3.676-5.957c11.469-7.078 21.95-10.666 31.47-10.666 9.622 0 19.149 3.662 28.524 10.87a3.5 3.5 0 0 1-4.267 5.549c-8.218-6.318-16.285-9.418-24.256-9.418-8.073 0-17.347 3.174-27.795 9.622z" fill="#C47F67" fill-rule="nonzero"/><g fill="#742938"><path d="M435.23 155.405c-1.842-.318-5.996-4.16-7.529-8.343-1.6-4.369-1.6-7.672 0-9.516 1.6-1.844 5.82.946 7.76 5.147 1.94 4.202 2.403 6.693 1.7 9.304-.236.877-.314 1.552-.377 2.061 1.037 1.924 1.111 3.553.085 4.856-.42.533-.926.96-1.536 1.339-.406.253-1.535.827-1.577.852a5.915 5.915 0 0 0-.059.034l.028.037c.149.187.94.179 2.378-.18.187-.048.38-.098.636-.167 1.487-.399 1.747-.462 2.285-.514 1.116-.107 2.013.309 2.013 1.48 0 .994-.35 1.412-1.956 2.927-.764.722-1.116 1.122-1.27 1.477-.118.273-.078.43.308.76.351.298.733.414 1.208.388.499-.027 1.046-.199 1.827-.543.079-.034.7-.315.873-.389.36-.153.633-.247.902-.295 1.043-.185 1.79.479 1.79 1.6 0 1.332-.702 2.237-2.205 3.476-1.075.888-1.172.965-1.306 1.136.113.018.255.038.438.06l.366.046c1.713.232 2.707.847 2.707 2.471 0 2.188-2.427 3.585-7.038 4.575l-.42-1.956c3.72-.798 5.458-1.799 5.458-2.619 0-.29-.14-.376-.975-.489a25.638 25.638 0 0 0-.342-.043c-1.654-.203-2.365-.5-2.365-1.81 0-.492.187-.935.512-1.358.208-.27.467-.528.814-.829.126-.11.259-.22.44-.368l.439-.358c.619-.511 1.02-.909 1.245-1.256l-.527.237c-.984.433-1.725.665-2.523.71-.967.052-1.855-.217-2.614-.864-1.043-.888-1.322-1.98-.847-3.077.302-.696.763-1.221 1.732-2.136.381-.36.663-.637.867-.85-.277.065-.67.17-1.318.343a39.96 39.96 0 0 1-.668.174c-2.246.562-3.568.577-4.434-.52-.984-1.249-.647-2.323.601-3.043.116-.066 1.204-.62 1.52-.817.427-.265.76-.546 1.022-.879.396-.503.4-1.254-.067-2.271z"/></g></g><g><path d="M434.736 139.943c4.102-3.943 24.834-.486 39.473 15.483 14.639 15.969 20.004 30.447 20.004 40.875 0 6.952-6.668 12.109-20.004 15.47-6.89.5-11.692-2.665-14.404-9.496-4.069-10.246-4.555-24.844-8.67-34.13-2.744-6.192-8.21-12.981-16.399-20.37-2.734-2.592-2.734-5.203 0-7.832z" fill="#FCDEAB"/><path d="M464.586 250.508V214.29c-.494-3.67 4.94-8.057 16.299-13.164 11.36-5.107 18.21-7.052 20.554-5.836l18.87 30.04-55.723 25.177z" fill="#FFF"/><path d="M460.121 245.826c18.05-8.714 30.694-14.545 37.93-17.494 7.235-2.95 16.002-5.845 26.299-8.686 20.92 38.877 35.732 66.174 44.437 81.893 31.304 56.53 50.936 85.553 56.242 116.383 7.762 45.094-4.582 77.05-27.763 87.35-48.611 21.597-94.326-64.884-137.145-259.446z" fill="#742938"/></g><g><path d="M213.018 241.648C165.773 256.052 131.1 275.414 109 299.734c-33.15 36.48-45.389 79.375-45.389 121.688 0 42.312 7.135 56.955 27.934 66.394 13.866 6.293 25.91 6.293 36.135 0l24.756-170.577 60.582-75.59z" fill="#993E51"/><path d="M85.56 449.16c-1.558 7.978-1.558 13.237 0 15.778 3.377 5.503 13.92 7.277 20.8 8.636 12.757 2.522 21.921-.77 26.64-5.906 3.146-3.424 1.573-7.313-4.719-11.668l-42.72-6.84z" fill="#FFF"/><path d="M63.611 342.814c15.688-5.493 5.672 36.475 20.78 31.551 15.109-4.924-15.55-52.537 7.806-59.728 23.356-7.192 4.098 55.39 20.098 55.39S100.745 306.05 125 306.05c24.256 0-6.434 60.627 12.51 60.627 18.943 0-7.028-46.914 15.027-49.437 22.055-2.523 11.49 27.023 8.977 39.613-.997 4.992-.599 14.109-.805 21.73-.314 11.6-.712 22.368.805 30.6 2.513 13.64 6.916 17.554 20.486 15.01 13.57-2.546 28.408-15.01 33.291 0 4.883 15.01-4.883 15.01-13.955 15.515-9.072.506-26.09 2.613-33.129 9.453-7.039 6.84-20.727 15.49-30.697 18.508-6.647 2.013-12.962.123-18.944-5.67-16.912.296-27.97-1.335-33.174-4.893-7.806-5.335-12.792-17.724-18.484-47.923-5.691-30.2-18.984-60.874-3.297-66.368z" fill="#FCDEAB"/></g></g><g><path d="M140.678 548.992l10.605-22.64c150.834 70.65 318.404 105.992 502.838 105.992 184.24 0 341.01-35.265 470.467-105.654l11.942 21.964c-133.352 72.506-294.206 108.69-482.409 108.69-188.009 0-359.199-36.106-513.443-108.352z" fill="#F56B87" fill-rule="nonzero"/><g transform="translate(1096 493)"><path fill="#947E82" d="M24 65h26v293H24z"/><circle fill="#D9C8CC" cx="36.5" cy="36.5" r="36.5"/><path d="M24 94.358V65h26v29.358A24.883 24.883 0 0 1 37 98a24.883 24.883 0 0 1-13-3.642z" fill="#6B5B5E"/><path d="M20.038 69.086A33.85 33.85 0 0 1 16 53c0-18.778 15.222-34 34-34 8.251 0 15.816 2.94 21.705 7.828A36.54 36.54 0 0 1 73 36.5C73 56.658 56.658 73 36.5 73a36.347 36.347 0 0 1-16.462-3.914z" fill="#A89396"/></g><g transform="translate(109 493)"><path fill="#947E82" d="M24 65h26v293H24z"/><circle fill="#D9C8CC" cx="36.5" cy="36.5" r="36.5"/><path d="M24 94.358V65h26v29.358A24.883 24.883 0 0 1 37 98a24.883 24.883 0 0 1-13-3.642z" fill="#6B5B5E"/><path d="M20.038 69.086A33.85 33.85 0 0 1 16 53c0-18.778 15.222-34 34-34 8.251 0 15.816 2.94 21.705 7.828A36.54 36.54 0 0 1 73 36.5C73 56.658 56.658 73 36.5 73a36.347 36.347 0 0 1-16.462-3.914z" fill="#A89396"/></g></g></g></svg>