<svg width="31" height="27" viewBox="0 0 31 27" xmlns="http://www.w3.org/2000/svg">
  <g stroke="#A9A9AC" stroke-width="1.3" fill="none" fill-rule="evenodd" stroke-linecap="round" stroke-linejoin="round">
    <path d="M15.5 13.655c-.087 0-4.833-3.1-4.833-6.11 0-1.677.965-2.678 2.578-2.678.944 0 2.255.741 2.255 2.26.141-1.519 1.31-2.26 2.254-2.26 1.613 0 2.544 1.001 2.579 2.677.062 2.984-4.747 6.11-4.833 6.11zM1 18.055h9.367v1.45a1.8 1.8 0 0 0 1.8 1.8h6.964a1.8 1.8 0 0 0 1.8-1.8v-1.45h8.793v8.078H1v-8.078zM1 18.055l4.032-8.079h2.251M29.724 18.055l-4.032-8.079H23.44"/>
    <path d="M7.283 15.017V1.483h16.153v13.534"/>
  </g>
</svg>
