<svg width="32" height="32" viewBox="0 0 32 32" xmlns="http://www.w3.org/2000/svg" xmlns:xlink="http://www.w3.org/1999/xlink">
  <title>
    btn-phone
  </title>
  <defs>
    <path d="M3.3 7.128a14.272 14.272 0 0 0 2.574 3.498A14.272 14.272 0 0 0 9.372 13.2l2.024-2.024a.85.85 0 0 1 .44-.264.75.75 0 0 1 .506.044c.968.337 2.053.506 3.256.506a.87.87 0 0 1 .638.264.87.87 0 0 1 .264.638v3.234a.87.87 0 0 1-.264.638.87.87 0 0 1-.638.264c-2.112 0-4.136-.41-6.072-1.232a15.536 15.536 0 0 1-4.95-3.344 15.536 15.536 0 0 1-3.344-4.95A15.392 15.392 0 0 1 0 .902.87.87 0 0 1 .264.264.87.87 0 0 1 .902 0h3.234a.87.87 0 0 1 .638.264.87.87 0 0 1 .264.638c0 1.203.169 2.288.506 3.256.044.161.051.33.022.506a.733.733 0 0 1-.242.44L3.3 7.128z" id="a"/>
  </defs>
  <g fill="none" fill-rule="evenodd">
    <g transform="translate(7 8)">
      <mask id="b" fill="#fff">
        <use xlink:href="#a"/>
      </mask>
      <use fill="#000000" xlink:href="#a"/>
      <g mask="url(#b)" fill="#000000">
        <path d="M-7-8h32v32H-7z"/>
      </g>
    </g>
  </g>
</svg>
