<svg height="32" viewBox="0 0 32 32" width="32" xmlns="http://www.w3.org/2000/svg" xmlns:xlink="http://www.w3.org/1999/xlink"><defs><path id="a" d="m19.328125 1.2265625c.390627.36458516.6835928.74544072.8789063 1.14257812.1953134.39713741.2994791.79752403.3125 1.20117188.0130208.42968965-.0781241.84960732-.2734375 1.25976562-.1953135.41015831-.481769.81054493-.859375 1.20117188-.1822926.19531348-.911452.92447285-2.1875 2.1875-1.2760481 1.26302715-2.6529875 2.6269458-4.1308594 4.0917969-1.477872 1.464851-2.8352803 2.8092386-4.07226565 4.0332031s-1.91406191 1.8945307-2.03125 2.0117188c-.0390627.0390626-.08137998.0716144-.12695312.0976562-.04557315.0260418-.09440079.0455729-.14648438.0585938-.18229258.0520835-.56640332.172525-1.15234375.3613281-.58594043.188803-1.18814795.3808584-1.80664062.5761719-.61849268.1953134-1.17512774.3743481-1.66992188.5371093-.49479414.1627613-.74869785.2441407-.76171875.2441407-.0260418.0130208-.05533838.0227864-.08789062.0292968-.03255225.0065105-.06835918.0097656-.10742188.0097656-.07812539 0-.15624961-.0162758-.234375-.0488281-.07812539-.0325522-.14322891-.0813799-.1953125-.1464843-.09114629-.0781254-.14973945-.1757807-.17578125-.2929688s-.0260418-.2343744 0-.3515625c.0130209-.0130209.09114512-.2571591.234375-.7324219s.30924385-1.0253875.49804688-1.6503906c.18880302-.6250031.37109287-1.233721.546875-1.8261719.17578212-.5924509.29622363-1.0188789.36132812-1.2792969.0260418-.0520835.0520832-.1009112.078125-.1464843.0260418-.0455732.05859355-.0878905.09765625-.1269531l6.0546875-6.05468755c1.52344512-1.52344512 2.93293625-2.93619141 4.22851565-4.23828125s1.9889318-1.99218711 2.0800781-2.0703125c.130209-.13020898.4101541-.34179541.8398438-.63476562.4296896-.29297022.9570281-.43945313 1.5820312-.43945313.4036479 0 .7910138.08463457 1.1621094.25390625s.7259097.41666504 1.0644531.7421875zm-4.84375 2.0703125c-.6119822.59896133-1.3932244 1.37369316-2.34375 2.32421875s-1.9303335 1.93358867-2.93945312 2.94921875c-1.00911963 1.01563008-1.97590684 1.9856725-2.90039063 2.9101563l-2.20703125 2.2070312c.26041797.1041672.55012861.2539053.86914063.4492188.31901201.1953134.64127441.4557275.96679687.78125.26041797.2734388.47851475.5501288.65429688.8300781.17578212.2799493.31575468.5371082.41992187.7714843.54687773-.5468777 1.27929229-1.2727819 2.19726563-2.1777343.91797332-.9049525 1.87825022-1.8554638 2.88085942-2.8515625 1.0026091-.9960988 1.9759067-1.96288596 2.9199218-2.90039065.9440152-.93750469 1.7220022-1.70572617 2.3339844-2.3046875-.0130209-.10416719-.0878899-.34830537-.2246094-.73242187-.1367194-.38411651-.4003886-.77148243-.7910156-1.16210938-.390627-.37760605-.7552066-.64453047-1.09375-.80078125s-.5859367-.25390605-.7421875-.29296875zm-11.25 11.4453125c-.14322988.4817732-.34179561 1.1197877-.59570312 1.9140625-.25390752.7942748-.4720043 1.4843721-.65429688 2.0703125.61198223-.1953135 1.32161055-.4296861 2.12890625-.703125s1.4257791-.4817701 1.85546875-.625c-.06510449-.1953135-.16927012-.4361965-.3125-.7226563-.14322988-.2864597-.35156113-.5664048-.625-.8398437-.36458516-.3645852-.70963379-.6282544-1.03515625-.7910156-.32552246-.1627613-.57942617-.2636717-.76171875-.3027344zm15.234375-9.609375c.260418-.26041797.4557285-.52083203.5859375-.78125s.1953125-.50781133.1953125-.7421875-.0683587-.47525918-.2050781-.72265625c-.1367195-.24739707-.3352852-.49479043-.5957031-.7421875-.2083344-.20833437-.4264312-.36458281-.6542969-.46875s-.4589832-.15625-.6933594-.15625c-.4036479 0-.7519517.10416563-1.0449219.3125s-.4524738.33203105-.4785156.37109375l-.0976562.09765625c.247397.10416719.5208318.2506501.8203125.43945313.2994806.18880302.6054671.43945156.9179687.75195312.2994807.29948066.5403637.60546719.7226563.91796875.1822925.31250156.3190099.59895703.4101562.859375.0260418-.0260418.048828-.0520832.0683594-.078125.0195313-.0260418.0358072-.04557285.0488281-.05859375z"/><mask id="b" fill="#fff"><use fill="none" xlink:href="#a"/></mask></defs><g fill="none" fill-rule="evenodd" transform="translate(5.5 6)"><use fill="#f56b87" xlink:href="#a"/><g fill="#d9d9d9" mask="url(#b)"><path d="m0 0h32v32h-32z" transform="translate(-5.5 -6)"/></g></g></svg>