<svg height="32" viewBox="0 0 32 32" width="32" xmlns="http://www.w3.org/2000/svg" xmlns:xlink="http://www.w3.org/1999/xlink"><defs><path id="a" d="m3.3 7.128c.67467004 1.29067312 1.53266146 2.45666146 2.574 3.498 1.04133854 1.0413385 2.20732688 1.89933 3.498 2.574l2.024-2.024c.1173339-.1320007.2639991-.2199998.44-.264s.3446659-.0293337.506.044c.9680048.337335 2.0533273.506 3.256.506.2493346 0 .4619991.0879991.638.264s.264.3886654.264.638v3.234c0 .2493346-.0879991.4619991-.264.638s-.3886654.264-.638.264c-2.1120106 0-4.1359903-.4106626-6.072-1.232-1.86267598-.792004-3.51265948-1.9066595-4.95-3.344s-2.55199604-3.08732402-3.344-4.95c-.82133744-1.93600968-1.232-3.95998944-1.232-6.072 0-.24933458.08799912-.46199912.264-.638s.38866542-.264.638-.264h3.234c.24933458 0 .46199912.08799912.638.264s.264.38866542.264.638c0 1.20267268.16866498 2.28799516.506 3.256.04400022.16133414.05133348.32999912.022.506s-.10999934.32266608-.242.44z"/><mask id="b" fill="#fff"><use fill="none" xlink:href="#a"/></mask></defs><g fill="none" fill-rule="evenodd" transform="translate(7 8)"><use fill="#f56b87" xlink:href="#a"/><g fill="#f1d4dc" mask="url(#b)"><path d="m0 0h32v32h-32z" transform="translate(-7 -8)"/></g></g></svg>