<svg height="32" viewBox="0 0 32 32" width="32" xmlns="http://www.w3.org/2000/svg" xmlns:xlink="http://www.w3.org/1999/xlink"><defs><path id="a" d="m19.6605502 1.75h-17.29527736c-.04380567 0-.08975309.03081839-.1048965.06542702-.01929434.04630644-.01066764.09080209.02718949.12704386l6.66138419 6.66138419c.14065228.14065228.21966991.33141772.21966991.53033008v7.28874595l3.23342137 2.9522543.4558991-10.27424728c.0083079-.18722841.0864119-.3645623.2189327-.49708305l6.6759058-6.67551862c.0223969-.02121819.0312445-.06306001.0148612-.10733227-.0207682-.04244635-.0649214-.07100418-.1070899-.07100418zm-11.99193027 7.69483253-6.42719267-6.42756705c-.48302425-.45760192-.62056262-1.16701037-.36116115-1.78934458.2553436-.58729029.83773833-.9779209 1.48500673-.9779209h17.29527736c.6472685 0 1.2296632.39063061 1.4850068.9779209.2594015.62233421.1218631 1.33174266-.3466396 1.77521015l-6.455367 6.45536701-.51405 11.58474924c-.028202.6355663-.7851464.9495816-1.2549648.520617l-4.66161769-4.2562596c-.15563192-.1420987-.24429798-.3431194-.24429798-.5538641z"/><mask id="b" fill="#fff"><use fill="none" xlink:href="#a"/></mask></defs><g fill="none" fill-rule="evenodd" transform="translate(4.5 5)"><use fill="#f56b87" fill-rule="nonzero" xlink:href="#a"/><g fill="#d9d9d9" mask="url(#b)"><path d="m0 0h32v32h-32z" transform="translate(-4.5 -5)"/></g></g></svg>