<svg height="32" viewBox="0 0 32 32" width="32" xmlns="http://www.w3.org/2000/svg" xmlns:xlink="http://www.w3.org/1999/xlink"><defs><path id="a" d="m9.65 2.35h5.7v-1.35c0-.35898509.2910149-.65.65-.65s.65.29101491.65.65v1.35h5.35c1.4635546 0 2.65 1.18644541 2.65 2.65v15c0 1.4635546-1.1864454 2.65-2.65 2.65h-19c-1.46355459 0-2.65-1.1864454-2.65-2.65v-15c0-1.46355459 1.18644541-2.65 2.65-2.65h5.35v-1.35c0-.35898509.29101491-.65.65-.65s.65.29101491.65.65zm0 1.3v1.35c0 .35898509-.29101491.65-.65.65s-.65-.29101491-.65-.65v-1.35h-5.35c-.74558441 0-1.35.60441559-1.35 1.35v15c0 .7455844.60441559 1.35 1.35 1.35h19c.7455844 0 1.35-.6044156 1.35-1.35v-15c0-.74558441-.6044156-1.35-1.35-1.35h-5.35v1.35c0 .35898509-.2910149.65-.65.65s-.65-.29101491-.65-.65v-1.35zm-4.04999998 4.7h1.79999996c.69035595 0 1.25000002.55964407 1.25000002 1.25000002v1.79999998c0 .6903559-.55964407 1.25-1.25000002 1.25h-1.79999996c-.69035595 0-1.25000002-.5596441-1.25000002-1.25v-1.79999998c0-.69035595.55964407-1.25000002 1.25000002-1.25000002zm.04999998 3h1.7v-1.7h-1.7zm-.04999998 3h1.79999996c.69035595 0 1.25000002.5596441 1.25000002 1.25v1.8c0 .6903559-.55964407 1.25-1.25000002 1.25h-1.79999996c-.69035595 0-1.25000002-.5596441-1.25000002-1.25v-1.8c0-.6903559.55964407-1.25 1.25000002-1.25zm.04999998 3h1.7v-1.7h-1.7zm5.95-9h1.8c.6903559 0 1.25.55964407 1.25 1.25000002v1.79999998c0 .6903559-.5596441 1.25-1.25 1.25h-1.8c-.6903559 0-1.25-.5596441-1.25-1.25v-1.79999998c0-.69035595.5596441-1.25000002 1.25-1.25000002zm.05 3h1.7v-1.7h-1.7zm-.05 3h1.8c.6903559 0 1.25.5596441 1.25 1.25v1.8c0 .6903559-.5596441 1.25-1.25 1.25h-1.8c-.6903559 0-1.25-.5596441-1.25-1.25v-1.8c0-.6903559.5596441-1.25 1.25-1.25zm.05 3h1.7v-1.7h-1.7zm5.95-9h1.8c.6903559 0 1.25.55964407 1.25 1.25000002v1.79999998c0 .6903559-.5596441 1.25-1.25 1.25h-1.8c-.6903559 0-1.25-.5596441-1.25-1.25v-1.79999998c0-.69035595.5596441-1.25000002 1.25-1.25000002zm.05 3h1.7v-1.7h-1.7zm-.05 3h1.8c.6903559 0 1.25.5596441 1.25 1.25v1.8c0 .6903559-.5596441 1.25-1.25 1.25h-1.8c-.6903559 0-1.25-.5596441-1.25-1.25v-1.8c0-.6903559.5596441-1.25 1.25-1.25zm.05 3h1.7v-1.7h-1.7z"/><mask id="b" fill="#fff"><use fill="none" xlink:href="#a"/></mask></defs><g fill="none" fill-rule="evenodd" transform="translate(3.5 4)"><use fill="#f56b87" fill-rule="nonzero" xlink:href="#a"/><g fill="#f1d4dc" mask="url(#b)"><path d="m0 0h32v32h-32z" transform="translate(-3.5 -4)"/></g></g></svg>