<svg height="44" viewBox="0 0 44 44" width="44" xmlns="http://www.w3.org/2000/svg" xmlns:xlink="http://www.w3.org/1999/xlink"><defs><path id="a" d="m8.64644661 9.14644661v-7c0-.82842713.67157287-1.5 1.49999999-1.5.8284271 0 1.5.67157287 1.5 1.5v7h8c.8284271 0 1.5.67157287 1.5 1.49999999 0 .8284271-.6715729 1.5-1.5 1.5h-8v8c0 .8284271-.6715729 1.5-1.5 1.5-.82842712 0-1.49999999-.6715729-1.49999999-1.5v-8h-7c-.82842712 0-1.5-.6715729-1.5-1.5 0-.82842712.67157288-1.49999999 1.5-1.49999999z"/><mask id="b" fill="#fff"><use fill="none" xlink:href="#a"/></mask></defs><g fill="none" fill-rule="evenodd" transform="translate(11 11)"><use fill="#f56b87" fill-rule="nonzero" xlink:href="#a"/><g fill="#d9d9d9" mask="url(#b)"><path d="m0 0h44v44h-44z" transform="translate(-11 -11)"/></g></g></svg>