<svg width="32" height="32" viewBox="0 0 32 32" xmlns="http://www.w3.org/2000/svg" xmlns:xlink="http://www.w3.org/1999/xlink">
  <defs>
    <path d="M19.328 1.227c.39.364.684.745.879 1.142.195.397.3.798.313 1.201.013.43-.079.85-.274 1.26-.195.41-.482.81-.86 1.201-.182.196-.91.925-2.187 2.188a8299.067 8299.067 0 0 0-4.13 4.092 6656.935 6656.935 0 0 1-6.104 6.044.601.601 0 0 1-.274.157c-.182.052-.566.172-1.152.361s-1.188.38-1.807.576c-.618.196-1.175.375-1.67.537-.494.163-.748.244-.761.244a.349.349 0 0 1-.088.03.605.605 0 0 1-.342-.04.485.485 0 0 1-.195-.146.527.527 0 0 1-.176-.293.8.8 0 0 1 0-.351c.013-.013.091-.257.234-.733l.498-1.65c.19-.625.372-1.234.547-1.826.176-.593.297-1.02.362-1.28.026-.052.052-.1.078-.146a.601.601 0 0 1 .097-.127l6.055-6.055C9.895 6.09 11.304 4.677 12.6 3.375c1.295-1.302 1.989-1.992 2.08-2.07.13-.13.41-.342.84-.635s.957-.44 1.582-.44c.403 0 .79.085 1.162.254.37.17.726.417 1.064.743zm-4.844 2.07c-.612.599-1.393 1.374-2.343 2.324-.95.95-1.93 1.934-2.94 2.95-1.009 1.015-1.976 1.985-2.9 2.91l-2.207 2.207c.26.104.55.253.869.449.319.195.641.455.967.781.26.273.478.55.654.83.176.28.316.537.42.772A454.77 454.77 0 0 1 9.2 14.342c.918-.905 1.878-1.856 2.881-2.852l2.92-2.9a466.46 466.46 0 0 1 2.334-2.305c-.013-.104-.088-.348-.225-.732-.136-.384-.4-.772-.79-1.162-.391-.378-.756-.645-1.094-.801-.339-.156-.586-.254-.743-.293zM3.234 14.742c-.143.482-.341 1.12-.595 1.914-.254.795-.472 1.485-.655 2.07.612-.195 1.322-.43 2.13-.703.807-.273 1.425-.481 1.855-.625a5.753 5.753 0 0 0-.313-.722 3.269 3.269 0 0 0-.625-.84c-.364-.365-.71-.628-1.035-.791-.325-.163-.58-.264-.762-.303zm15.235-9.61c.26-.26.455-.52.586-.78.13-.26.195-.508.195-.743a1.49 1.49 0 0 0-.205-.722 3.136 3.136 0 0 0-.596-.742 2.262 2.262 0 0 0-.654-.47 1.653 1.653 0 0 0-.693-.155c-.404 0-.752.104-1.045.312-.293.208-.453.332-.479.371l-.098.098c.248.104.521.25.82.44.3.188.606.439.919.751.3.3.54.606.722.918.183.313.32.6.41.86a.733.733 0 0 0 .069-.079.57.57 0 0 1 .049-.058z" id="a"/>
  </defs>
  <g fill="none" fill-rule="evenodd">
    <g transform="translate(5.5 6)">
      <mask id="b" fill="#fff">
        <use xlink:href="#a"/>
      </mask>
      <use fill="#F56B87" xlink:href="#a"/>
      <g mask="url(#b)" fill="#F56B87">
        <path d="M-5.5-6h32v32h-32z"/>
      </g>
    </g>
  </g>
</svg>
