<svg width="28" height="28" viewBox="0 0 28 28" xmlns="http://www.w3.org/2000/svg" xmlns:xlink="http://www.w3.org/1999/xlink">
  <defs>
    <path d="M9.563 12.281a.51.51 0 0 1 .373.158.51.51 0 0 1 .158.373.51.51 0 0 1-.158.374.51.51 0 0 1-.373.158H7.437a.51.51 0 0 1-.373-.158.51.51 0 0 1-.158-.373.51.51 0 0 1 .158-.374.51.51 0 0 1 .373-.158h.532v-4.25h-.532a.51.51 0 0 1-.373-.157.51.51 0 0 1-.158-.374.51.51 0 0 1 .158-.374.51.51 0 0 1 .373-.157H8.5a.51.51 0 0 1 .374.157.51.51 0 0 1 .157.374v4.781h.531zM8.5 5.906c-.299 0-.55-.102-.755-.307a1.027 1.027 0 0 1-.308-.755c0-.3.103-.55.308-.756.204-.204.456-.307.755-.307s.55.103.755.307c.205.205.307.457.307.756s-.102.55-.307.755a1.027 1.027 0 0 1-.755.307zm0-5.843c1.173 0 2.277.22 3.312.664a8.53 8.53 0 0 1 2.706 1.817 8.53 8.53 0 0 1 1.818 2.706A8.331 8.331 0 0 1 17 8.563a8.331 8.331 0 0 1-.664 3.312 8.53 8.53 0 0 1-1.818 2.706 8.53 8.53 0 0 1-2.706 1.817 8.331 8.331 0 0 1-3.312.665 8.331 8.331 0 0 1-3.312-.665 8.53 8.53 0 0 1-2.706-1.817 8.53 8.53 0 0 1-1.818-2.706A8.331 8.331 0 0 1 0 8.562C0 7.39.221 6.285.664 5.25a8.53 8.53 0 0 1 1.818-2.706A8.53 8.53 0 0 1 5.188.727 8.331 8.331 0 0 1 8.5.063zm0 15.954c1.03 0 1.995-.197 2.897-.59a7.506 7.506 0 0 0 2.357-1.602 7.68 7.68 0 0 0 1.594-2.366c.393-.902.59-1.867.59-2.896 0-1.03-.197-1.995-.59-2.897a7.577 7.577 0 0 0-1.594-2.358 7.577 7.577 0 0 0-2.357-1.594A7.175 7.175 0 0 0 8.5 1.125c-1.03 0-1.995.196-2.897.59a7.577 7.577 0 0 0-2.357 1.593c-.67.67-1.201 1.456-1.594 2.358a7.175 7.175 0 0 0-.59 2.896c0 1.03.197 1.995.59 2.897a7.68 7.68 0 0 0 1.594 2.366 7.506 7.506 0 0 0 2.357 1.602c.902.393 1.868.59 2.897.59z" id="a"/>
  </defs>
  <g fill="none" fill-rule="evenodd">
    <g transform="translate(6 5)">
      <mask id="b" fill="#fff">
        <use xlink:href="#a"/>
      </mask>
      <use fill="#F56B87" xlink:href="#a"/>
      <g mask="url(#b)" fill="#F56B87">
        <path d="M-6-5h28v28H-6z"/>
      </g>
    </g>
  </g>
</svg>
