<svg height="32" viewBox="0 0 32 32" width="32" xmlns="http://www.w3.org/2000/svg" xmlns:xlink="http://www.w3.org/1999/xlink"><defs><path id="a" d="m20.2 4.7v16.3c0 1.4911688-1.2088312 2.7-2.7 2.7h-12c-1.49116882 0-2.7-1.2088312-2.7-2.7v-16.3h-1.3c-.38659932 0-.7-.31340068-.7-.7s.31340068-.7.7-.7h5.3v-2.3c0-.38659933.31340068-.7.7-.7h8c.3865993 0 .7.31340067.7.7v2.3h5.3c.3865993 0 .7.31340068.7.7s-.3134007.7-.7.7zm-16 0v16.3c0 .7179702.58202983 1.3 1.3 1.3h12c.7179702 0 1.3-.5820298 1.3-1.3v-16.3zm10.6-1.4v-1.6h-6.6v1.6zm-4 4.7c0-.38659932.3134007-.7.7-.7s.7.31340068.7.7v10c0 .3865993-.3134007.7-.7.7s-.7-.3134007-.7-.7zm3.5 0c0-.38659932.3134007-.7.7-.7s.7.31340068.7.7v10c0 .3865993-.3134007.7-.7.7s-.7-.3134007-.7-.7zm-7 0c0-.38659932.31340068-.7.7-.7s.7.31340068.7.7v10c0 .3865993-.31340068.7-.7.7s-.7-.3134007-.7-.7z"/><mask id="b" fill="#fff"><use fill="none" xlink:href="#a"/></mask></defs><g fill="none" fill-rule="evenodd" transform="translate(4.5 4)"><use fill="#f56b87" fill-rule="nonzero" xlink:href="#a"/><g fill="#f1d4dc" mask="url(#b)"><path d="m0 0h32v32h-32z" transform="translate(-4.5 -4)"/></g></g></svg>