<svg height="32" viewBox="0 0 32 32" width="32" xmlns="http://www.w3.org/2000/svg" xmlns:xlink="http://www.w3.org/1999/xlink"><defs><path id="a" d="m21.8157895 12.6c-2.2643675 0-4.1000001-1.8356325-4.1000001-4.1 0-2.26436749 1.8356326-4.10000002 4.1000001-4.10000002s4.1 1.83563253 4.1 4.10000002c0 2.2643675-1.8356325 4.1-4.1 4.1zm0-1.2c1.6016257 0 2.8999999-1.2983742 2.8999999-2.9 0-1.60162576-1.2983742-2.89999998-2.8999999-2.89999998-1.6016258 0-2.9 1.29837422-2.9 2.89999998 0 1.6016258 1.2983742 2.9 2.9 2.9zm-1.1542066 11.7106027c-.3303842-.0255516-.5774999-.3140947-.5519483-.6444789.0255516-.3303843.3140946-.5775.6444789-.5519484 3.487192.269696 6.6458865-.654667 6.6458865-1.8615438 0-3.0114053-2.4412263-5.4526316-5.4526316-5.4526316-1.9176264 0-3.6626494.9973591-4.648796 2.601453-.1735445.2822924-.5430732.3704499-.8253656.1969055-.2822923-.1735445-.3704499-.5430733-.1969054-.8253656 1.2022793-1.9556614 3.3321756-3.1729929 5.671067-3.1729929 3.674147 0 6.6526316 2.9784846 6.6526316 6.6526316 0 2.2693919-3.790824 3.3787419-7.9384171 3.0579711zm-1.7457934 1.7490464c0 4.5884797-14.51578952 4.5884797-14.51578952 0 0-4.1159082 3.24539558-7.4596491 7.25789472-7.4596491 4.0124992 0 7.2578948 3.3437409 7.2578948 7.4596491zm-1.2000001 0c0-3.4610509-2.7162864-6.2596491-6.0578947-6.2596491-3.34160824 0-6.05789468 2.7985982-6.05789468 6.2596491 0 2.9884796 12.11578938 2.9884796 12.11578938 0zm-6.0578947-8.5280701c-2.54167765 0-4.59473683-2.1152731-4.59473683-4.7157895 0-2.60051643 2.05305918-4.71578952 4.59473683-4.71578952 2.5416777 0 4.5947369 2.11527309 4.5947369 4.71578952 0 2.6005164-2.0530592 4.7157895-4.5947369 4.7157895zm0-1.2000001c1.8707868 0 3.3947369-1.5701303 3.3947369-3.5157894 0-1.94565914-1.5239501-3.51578948-3.3947369-3.51578948-1.87078675 0-3.39473678 1.57013034-3.39473678 3.51578948 0 1.9456591 1.52395003 3.5157894 3.39473678 3.5157894z"/><mask id="b" fill="#fff"><use fill="none" xlink:href="#a"/></mask></defs><g fill="none" fill-rule="evenodd" transform=""><use fill="#979797" fill-rule="nonzero" xlink:href="#a"/><g fill="#f56b87" mask="url(#b)"><path d="m0 0h32v32h-32z"/></g></g></svg>