<svg width="35" height="32" viewBox="-5 -5 35 32" xmlns="http://www.w3.org/2000/svg" xmlns:xlink="http://www.w3.org/1999/xlink">
  <defs>
    <path d="M9.65 2.35h5.7V1a.65.65 0 1 1 1.3 0v1.35H22A2.65 2.65 0 0 1 24.65 5v15A2.65 2.65 0 0 1 22 22.65H3A2.65 2.65 0 0 1 .35 20V5A2.65 2.65 0 0 1 3 2.35h5.35V1a.65.65 0 1 1 1.3 0v1.35zm0 1.3V5a.65.65 0 1 1-1.3 0V3.65H3A1.35 1.35 0 0 0 1.65 5v15c0 .746.604 1.35 1.35 1.35h19A1.35 1.35 0 0 0 23.35 20V5A1.35 1.35 0 0 0 22 3.65h-5.35V5a.65.65 0 1 1-1.3 0V3.65h-5.7zM5.6 8.35h1.8c.69 0 1.25.56 1.25 1.25v1.8c0 .69-.56 1.25-1.25 1.25H5.6c-.69 0-1.25-.56-1.25-1.25V9.6c0-.69.56-1.25 1.25-1.25zm.05 3h1.7v-1.7h-1.7v1.7zm-.05 3h1.8c.69 0 1.25.56 1.25 1.25v1.8c0 .69-.56 1.25-1.25 1.25H5.6c-.69 0-1.25-.56-1.25-1.25v-1.8c0-.69.56-1.25 1.25-1.25zm.05 3h1.7v-1.7h-1.7v1.7zm5.95-9h1.8c.69 0 1.25.56 1.25 1.25v1.8c0 .69-.56 1.25-1.25 1.25h-1.8c-.69 0-1.25-.56-1.25-1.25V9.6c0-.69.56-1.25 1.25-1.25zm.05 3h1.7v-1.7h-1.7v1.7zm-.05 3h1.8c.69 0 1.25.56 1.25 1.25v1.8c0 .69-.56 1.25-1.25 1.25h-1.8c-.69 0-1.25-.56-1.25-1.25v-1.8c0-.69.56-1.25 1.25-1.25zm.05 3h1.7v-1.7h-1.7v1.7zm5.95-9h1.8c.69 0 1.25.56 1.25 1.25v1.8c0 .69-.56 1.25-1.25 1.25h-1.8c-.69 0-1.25-.56-1.25-1.25V9.6c0-.69.56-1.25 1.25-1.25zm.05 3h1.7v-1.7h-1.7v1.7zm-.05 3h1.8c.69 0 1.25.56 1.25 1.25v1.8c0 .69-.56 1.25-1.25 1.25h-1.8c-.69 0-1.25-.56-1.25-1.25v-1.8c0-.69.56-1.25 1.25-1.25zm.05 3h1.7v-1.7h-1.7v1.7z" id="a"/>
  </defs>
  <g fill="none" fill-rule="evenodd">
    <path d="M10.15 2.35h5.7V1a.65.65 0 1 1 1.3 0v1.35h5.35A2.65 2.65 0 0 1 25.15 5v15a2.65 2.65 0 0 1-2.65 2.65h-19A2.65 2.65 0 0 1 .85 20V5A2.65 2.65 0 0 1 3.5 2.35h5.35V1a.65.65 0 1 1 1.3 0v1.35zm0 1.3V5a.65.65 0 1 1-1.3 0V3.65H3.5A1.35 1.35 0 0 0 2.15 5v15c0 .746.604 1.35 1.35 1.35h19A1.35 1.35 0 0 0 23.85 20V5a1.35 1.35 0 0 0-1.35-1.35h-5.35V5a.65.65 0 1 1-1.3 0V3.65h-5.7zM6.1 8.35h1.8c.69 0 1.25.56 1.25 1.25v1.8c0 .69-.56 1.25-1.25 1.25H6.1c-.69 0-1.25-.56-1.25-1.25V9.6c0-.69.56-1.25 1.25-1.25zm.05 3h1.7v-1.7h-1.7v1.7zm-.05 3h1.8c.69 0 1.25.56 1.25 1.25v1.8c0 .69-.56 1.25-1.25 1.25H6.1c-.69 0-1.25-.56-1.25-1.25v-1.8c0-.69.56-1.25 1.25-1.25zm.05 3h1.7v-1.7h-1.7v1.7zm5.95-9h1.8c.69 0 1.25.56 1.25 1.25v1.8c0 .69-.56 1.25-1.25 1.25h-1.8c-.69 0-1.25-.56-1.25-1.25V9.6c0-.69.56-1.25 1.25-1.25zm.05 3h1.7v-1.7h-1.7v1.7zm-.05 3h1.8c.69 0 1.25.56 1.25 1.25v1.8c0 .69-.56 1.25-1.25 1.25h-1.8c-.69 0-1.25-.56-1.25-1.25v-1.8c0-.69.56-1.25 1.25-1.25zm.05 3h1.7v-1.7h-1.7v1.7zm5.95-9h1.8c.69 0 1.25.56 1.25 1.25v1.8c0 .69-.56 1.25-1.25 1.25h-1.8c-.69 0-1.25-.56-1.25-1.25V9.6c0-.69.56-1.25 1.25-1.25zm.05 3h1.7v-1.7h-1.7v1.7zm-.05 3h1.8c.69 0 1.25.56 1.25 1.25v1.8c0 .69-.56 1.25-1.25 1.25h-1.8c-.69 0-1.25-.56-1.25-1.25v-1.8c0-.69.56-1.25 1.25-1.25zm.05 3h1.7v-1.7h-1.7v1.7z" fill-rule="nonzero"/>
    <g transform="translate(.5)">
      <mask id="b" fill="#fff">
        <use xlink:href="#a"/>
      </mask>
      <g mask="url(#b)">
        <path fill="#D9D9D9" fill-rule="nonzero" d="M-3.5-4h32v32h-32z"/>
      </g>
    </g>
  </g>
</svg>
