<svg height="28" viewBox="0 0 28 28" width="28" xmlns="http://www.w3.org/2000/svg" xmlns:xlink="http://www.w3.org/1999/xlink"><defs><path id="a" d="m8.44375 2.05625h4.9875v-1.18125c0-.31411195.254638-.56875.56875-.56875s.56875.25463805.56875.56875v1.18125h4.68125c1.2806103 0 2.31875 1.03813974 2.31875 2.31875v13.125c0 1.2806103-1.0381397 2.31875-2.31875 2.31875h-16.625c-1.28061026 0-2.31875-1.0381397-2.31875-2.31875v-13.125c0-1.28061026 1.03813974-2.31875 2.31875-2.31875h4.68125v-1.18125c0-.31411195.25463805-.56875.56875-.56875s.56875.25463805.56875.56875zm0 1.1375v1.18125c0 .31411195-.25463805.56875-.56875.56875s-.56875-.25463805-.56875-.56875v-1.18125h-4.68125c-.65238636 0-1.18125.52886364-1.18125 1.18125v13.125c0 .6523864.52886364 1.18125 1.18125 1.18125h16.625c.6523864 0 1.18125-.5288636 1.18125-1.18125v-13.125c0-.65238636-.5288636-1.18125-1.18125-1.18125h-4.68125v1.18125c0 .31411195-.254638.56875-.56875.56875s-.56875-.25463805-.56875-.56875v-1.18125zm-3.54374998 4.1125h1.57499996c.60406146 0 1.09375002.48968856 1.09375002 1.09375002v1.57499996c0 .60406142-.48968856 1.09375002-1.09375002 1.09375002h-1.57499996c-.60406146 0-1.09375002-.4896886-1.09375002-1.09375002v-1.57499996c0-.60406146.48968856-1.09375002 1.09375002-1.09375002zm.04374998 2.625h1.4875v-1.4875h-1.4875zm-.04374998 2.625h1.57499996c.60406146 0 1.09375002.4896886 1.09375002 1.09375v1.575c0 .6040614-.48968856 1.09375-1.09375002 1.09375h-1.57499996c-.60406146 0-1.09375002-.4896886-1.09375002-1.09375v-1.575c0-.6040614.48968856-1.09375 1.09375002-1.09375zm.04374998 2.625h1.4875v-1.4875h-1.4875zm5.20625-7.875h1.575c.6040614 0 1.09375.48968856 1.09375 1.09375002v1.57499996c0 .60406142-.4896886 1.09375002-1.09375 1.09375002h-1.575c-.60406144 0-1.09375-.4896886-1.09375-1.09375002v-1.57499996c0-.60406146.48968856-1.09375002 1.09375-1.09375002zm.04375 2.625h1.4875v-1.4875h-1.4875zm-.04375 2.625h1.575c.6040614 0 1.09375.4896886 1.09375 1.09375v1.575c0 .6040614-.4896886 1.09375-1.09375 1.09375h-1.575c-.60406144 0-1.09375-.4896886-1.09375-1.09375v-1.575c0-.6040614.48968856-1.09375 1.09375-1.09375zm.04375 2.625h1.4875v-1.4875h-1.4875zm5.20625-7.875h1.575c.6040614 0 1.09375.48968856 1.09375 1.09375002v1.57499996c0 .60406142-.4896886 1.09375002-1.09375 1.09375002h-1.575c-.6040614 0-1.09375-.4896886-1.09375-1.09375002v-1.57499996c0-.60406146.4896886-1.09375002 1.09375-1.09375002zm.04375 2.625h1.4875v-1.4875h-1.4875zm-.04375 2.625h1.575c.6040614 0 1.09375.4896886 1.09375 1.09375v1.575c0 .6040614-.4896886 1.09375-1.09375 1.09375h-1.575c-.6040614 0-1.09375-.4896886-1.09375-1.09375v-1.575c0-.6040614.4896886-1.09375 1.09375-1.09375zm.04375 2.625h1.4875v-1.4875h-1.4875z"/><mask id="b" fill="#fff"><use fill="none" xlink:href="#a"/></mask></defs><g fill="none" fill-rule="evenodd" transform="translate(3.0625 3.5)"><use fill="#f56b87" fill-rule="nonzero" xlink:href="#a"/><g fill="#97979a" mask="url(#b)"><path d="m0 0h29v29h-29z" transform="translate(-3.5 -4)"/></g></g></svg>