<svg width="32" height="32" viewBox="0 0 32 32" xmlns="http://www.w3.org/2000/svg" xmlns:xlink="http://www.w3.org/1999/xlink">
  <defs>
    <path d="M20.2 4.7V21a2.7 2.7 0 0 1-2.7 2.7h-12A2.7 2.7 0 0 1 2.8 21V4.7H1.5a.7.7 0 0 1 0-1.4h5.3V1a.7.7 0 0 1 .7-.7h8a.7.7 0 0 1 .7.7v2.3h5.3a.7.7 0 0 1 0 1.4h-1.3zm-16 0V21a1.3 1.3 0 0 0 1.3 1.3h12a1.3 1.3 0 0 0 1.3-1.3V4.7H4.2zm10.6-1.4V1.7H8.2v1.6h6.6zm-4 4.7a.7.7 0 0 1 1.4 0v10a.7.7 0 0 1-1.4 0V8zm3.5 0a.7.7 0 0 1 1.4 0v10a.7.7 0 0 1-1.4 0V8zm-7 0a.7.7 0 0 1 1.4 0v10a.7.7 0 0 1-1.4 0V8z" id="a"/>
  </defs>
  <g fill="none" fill-rule="evenodd">
    <g transform="translate(4.5 4)">
      <mask id="b" fill="#fff">
        <use xlink:href="#a"/>
      </mask>
      <use fill="#F56B87" fill-rule="nonzero" xlink:href="#a"/>
      <g mask="url(#b)" fill="#F56B87">
        <path d="M-4.5-4h32v32h-32z"/>
      </g>
    </g>
  </g>
</svg>
