<svg height="44" viewBox="0 0 44 44" width="44" xmlns="http://www.w3.org/2000/svg" xmlns:xlink="http://www.w3.org/1999/xlink"><defs><path id="a" d="m10.6464466 8.31801948 4.9497475-4.94974746c.5857864-.58578644 1.5355339-.58578644 2.1213203 0 .5857865.58578643.5857865 1.5355339 0 2.12132034l-4.9497474 4.94974744 5.6568542 5.6568543c.5857864.5857864.5857864 1.5355339 0 2.1213203-.5857864.5857865-1.5355339.5857865-2.1213203 0l-5.6568543-5.6568542-5.65685424 5.6568542c-.58578644.5857865-1.53553391.5857865-2.12132034 0-.58578644-.5857864-.58578644-1.5355339 0-2.1213203l5.65685425-5.6568543-4.94974747-4.94974744c-.58578644-.58578644-.58578644-1.53553391 0-2.12132034.58578644-.58578644 1.5355339-.58578644 2.12132034 0z"/><mask id="b" fill="#fff"><use fill="none" xlink:href="#a"/></mask></defs><g fill="none" fill-rule="evenodd" transform="translate(11 11)"><use fill="#f56b87" fill-rule="nonzero" xlink:href="#a"/><g fill="#f1d4dc" mask="url(#b)"><path d="m0 0h44v44h-44z" transform="translate(-11 -11)"/></g></g></svg>