<svg height="28" viewBox="0 0 28 28" width="28" xmlns="http://www.w3.org/2000/svg" xmlns:xlink="http://www.w3.org/1999/xlink"><defs><path id="a" d="m9.5625 12.28125c.14388093 0 .2683914.0525711.37353516.1577148.10514374.1051438.15771484.2296543.15771484.3735352s-.0525711.2683914-.15771484.3735352c-.10514376.1051437-.22965423.1577148-.37353516.1577148h-2.125c-.14388093 0-.2683914-.0525711-.37353516-.1577148-.10514375-.1051438-.15771484-.2296543-.15771484-.3735352s.05257109-.2683914.15771484-.3735352c.10514376-.1051437.22965423-.1577148.37353516-.1577148h.53125v-4.25h-.53125c-.14388093 0-.2683914-.05257109-.37353516-.15771484-.10514375-.10514376-.15771484-.22965423-.15771484-.37353516s.05257109-.2683914.15771484-.37353516c.10514376-.10514375.22965423-.15771484.37353516-.15771484h1.0625c.14388093 0 .2683914.05257109.37353516.15771484.10514375.10514376.15771484.22965423.15771484.37353516v4.78125zm-1.0625-6.375c-.29882962 0-.55061747-.10237528-.75537109-.30712891-.20475363-.20475362-.30712891-.45654147-.30712891-.75537109s.10237528-.55061747.30712891-.75537109c.20475362-.20475363.45654147-.30712891.75537109-.30712891s.55061747.10237528.75537109.30712891c.20475363.20475362.30712891.45654147.30712891.75537109s-.10237528.55061747-.30712891.75537109c-.20475362.20475363-.45654147.30712891-.75537109.30712891zm0-5.84375c1.17318295 0 2.2771758.22135195 3.3120117.6640625s1.9368451 1.04866152 2.7060547 1.81787109c.7692096.76920958 1.3751606 1.67121879 1.8178711 2.70605469s.6640625 2.13882877.6640625 3.31201172-.221352 2.2771758-.6640625 3.3120117-1.0486615 1.9368451-1.8178711 2.7060547-1.6712188 1.3751606-2.7060547 1.8178711-2.13882875.6640625-3.3120117.6640625-2.27717582-.221352-3.31201172-.6640625-1.93684511-1.0486615-2.70605469-1.8178711c-.76920957-.7692096-1.37516054-1.6712188-1.81787109-2.7060547s-.6640625-2.13882875-.6640625-3.3120117.22135195-2.27717582.6640625-3.31201172 1.04866152-1.93684511 1.81787109-2.70605469c.76920958-.76920957 1.67121879-1.37516054 2.70605469-1.81787109s2.13882877-.6640625 3.31201172-.6640625zm0 15.9541016c1.02930202 0 1.9949499-.1964499 2.8969727-.5893555.9020227-.3929056 1.6878221-.9269172 2.3574218-1.6020508s1.2008444-1.4636999 1.59375-2.3657226c.3929056-.9020228.5893555-1.86767068.5893555-2.8969727s-.1964499-1.99494992-.5893555-2.89697266-.9241503-1.68782217-1.59375-2.35742187-1.4553991-1.20084439-2.3574218-1.59375c-.9020228-.39290561-1.86767068-.58935547-2.8969727-.58935547s-1.99494992.19644986-2.89697266.58935547-1.68782217.9241503-2.35742187 1.59375-1.20084439 1.45539913-1.59375 2.35742187-.58935547 1.86767064-.58935547 2.89697266.19644986 1.9949499.58935547 2.8969727c.39290561.9020227.9241503 1.690589 1.59375 2.3657226s1.45539913 1.2091452 2.35742187 1.6020508 1.86767064.5893555 2.89697266.5893555z"/><mask id="b" fill="#fff"><use fill="none" xlink:href="#a"/></mask></defs><g fill="none" fill-rule="evenodd" transform="translate(6 5)"><use fill="#f56b87" xlink:href="#a"/><g fill="#f1d4dc" mask="url(#b)"><path d="m0 0h28v28h-28z" transform="translate(-6 -5)"/></g></g></svg>