<svg height="34" viewBox="0 0 34 34" width="34" xmlns="http://www.w3.org/2000/svg"><g fill="none" fill-rule="evenodd" transform="translate(2 2)"><path d="m8.25 27.191343c-6.69609673-3.8659933-8.9903489-12.428259-5.12435565-19.1243557 3.86599325-6.69609673 12.42825895-8.9903489 19.12435565-5.12435565" fill="#e6e6e6"/><path d="m30.5339329 10.4042587 1.3621665-1.82320709c.2313897-.30970609.6700345-.3731941.9797406-.14180444.3097061.23138967.3731941.67003444.1418044.97974053l-2.2193234 2.9704783c-.2045777.2738193-.5769913.3598554-.8809449.2035186l-3.4375342-1.7680761c-.3437899-.1768264-.4791406-.5988692-.3023142-.94265909.1768263-.34378987.5988692-.47914054.9426591-.30231418l2.0219696 1.03998857c-1.4894812-5.37318695-6.4167784-9.2199238-12.1421564-9.2199238-6.0294287 0-11.17212317 4.26583065-12.34928394 10.0850897-.07072728.36976-.30967818.5546401-.71685273.5546401s-.64350978-.1841272-.7090057-.5523816c1.18385245-6.53288925 6.90090947-11.4873482 13.77514237-11.4873482 6.4889123 0 11.946739 4.41460201 13.5339329 10.4042587zm-27.15323833 6.8521081-1.31175826 1.7557375c-.23138966.3097061-.67003443.3731941-.97974052.1418045-.30970609-.2313897-.3731941-.6700345-.14180444-.9797406l2.2193234-2.9704783c.20457769-.2738193.57699126-.3598554.88094493-.2035186l3.43753422 1.7680762c.34378987.1768263.47914054.5988692.30231418.942659-.17682636.3437899-.59886921.4791406-.94265908.3023142l-2.10248695-1.0814022c1.3310907 5.59731 6.36609745 9.6681815 12.25763795 9.6681815 6.0862386 0 11.2633961-4.3454571 12.3793097-10.2383417.0782288-.4054647.3129771-.6081971.7042449-.6081971.3912679 0 .6302571.2049386.7169676.6148159-1.1252134 6.6041302-6.8757392 11.6317229-13.8005222 11.6317229-6.6108705 0-12.15153295-4.5821051-13.61930543-10.7436332z" fill="#a9a9ac" fill-rule="nonzero" transform="translate(-2 1)"/></g></svg>