<svg height="32" viewBox="0 0 32 32" width="32" xmlns="http://www.w3.org/2000/svg" xmlns:xlink="http://www.w3.org/1999/xlink">
  <defs>
    <path id="a" d="M9.65 2.35h5.7V1a.65.65 0 1 1 1.3 0v1.35H22A2.65 2.65 0 0 1 24.65 5v15A2.65 2.65 0 0 1 22 22.65H3A2.65 2.65 0 0 1 .35 20V5A2.65 2.65 0 0 1 3 2.35h5.35V1a.65.65 0 1 1 1.3 0zm0 1.3V5a.65.65 0 1 1-1.3 0V3.65H3A1.35 1.35 0 0 0 1.65 5v15c0 .746.604 1.35 1.35 1.35h19A1.35 1.35 0 0 0 23.35 20V5A1.35 1.35 0 0 0 22 3.65h-5.35V5a.65.65 0 1 1-1.3 0V3.65zM5.6 8.35h1.8c.69 0 1.25.56 1.25 1.25v1.8c0 .69-.56 1.25-1.25 1.25H5.6c-.69 0-1.25-.56-1.25-1.25V9.6c0-.69.56-1.25 1.25-1.25zm.05 3h1.7v-1.7h-1.7zm-.05 3h1.8c.69 0 1.25.56 1.25 1.25v1.8c0 .69-.56 1.25-1.25 1.25H5.6c-.69 0-1.25-.56-1.25-1.25v-1.8c0-.69.56-1.25 1.25-1.25zm.05 3h1.7v-1.7h-1.7zm5.95-9h1.8c.69 0 1.25.56 1.25 1.25v1.8c0 .69-.56 1.25-1.25 1.25h-1.8c-.69 0-1.25-.56-1.25-1.25V9.6c0-.69.56-1.25 1.25-1.25zm.05 3h1.7v-1.7h-1.7zm-.05 3h1.8c.69 0 1.25.56 1.25 1.25v1.8c0 .69-.56 1.25-1.25 1.25h-1.8c-.69 0-1.25-.56-1.25-1.25v-1.8c0-.69.56-1.25 1.25-1.25zm.05 3h1.7v-1.7h-1.7zm5.95-9h1.8c.69 0 1.25.56 1.25 1.25v1.8c0 .69-.56 1.25-1.25 1.25h-1.8c-.69 0-1.25-.56-1.25-1.25V9.6c0-.69.56-1.25 1.25-1.25zm.05 3h1.7v-1.7h-1.7zm-.05 3h1.8c.69 0 1.25.56 1.25 1.25v1.8c0 .69-.56 1.25-1.25 1.25h-1.8c-.69 0-1.25-.56-1.25-1.25v-1.8c0-.69.56-1.25 1.25-1.25zm.05 3h1.7v-1.7h-1.7z"/>
    <mask id="b" fill="#fff">
      <use fill="none" xlink:href="#a"/>
    </mask>
  </defs>
  <g fill="none" fill-rule="evenodd" transform="translate(3.5 4)">
    <use fill="#97979A" fill-rule="nonzero" xlink:href="#a"/>
    <g fill="#97979A" mask="url(#b)">
      <path d="M-3.5-4h32v32h-32z"/>
    </g>
  </g>
</svg>
