<svg xmlns="http://www.w3.org/2000/svg" viewBox="0 0 19 13.99"><defs><style>.cls-1{fill:#d7d7d7;}</style></defs><title>Asset 1</title><g id="Layer_2" data-name="Layer 2"><g id="Layer_1-2" data-name="Layer 1"><path class="cls-1" d="M0,11.9V1.17C.05,1,0,.9,0,.77A1.12,1.12,0,0,1,1,0H12.82a1.07,1.07,0,0,1,1,.58,1.38,1.38,0,0,1,.09.75c0,.73,0,1.45,0,2.18a5.13,5.13,0,0,0,0,1c0,.12,0,.25.15.3a.32.32,0,0,0,.35-.15c.18-.22.33-.46.53-.67.78-.76,1.55-1.54,2.32-2.31A6.27,6.27,0,0,0,18.45.34a.2.2,0,0,1,.25-.1c.11,0,.15.11.18.22a4.34,4.34,0,0,1,0,.51c.11,3.48,0,7,.05,10.45,0,.24,0,.47,0,.7a8.42,8.42,0,0,0,0,1.23.31.31,0,0,1-.17.35c-.16.08-.28,0-.36-.15a4.15,4.15,0,0,0-.79-.93c-.43-.37-.82-.78-1.22-1.17s-1.06-1.07-1.6-1.61c-.16-.16-.27-.37-.42-.54s-.16-.18-.29-.14-.11.16-.14.26a3.66,3.66,0,0,0,0,.74c0,.88,0,1.76,0,2.65a1.13,1.13,0,0,1-1.18,1.13c-.73,0-1.48,0-2.22,0-.46,0-.94,0-1.4,0s-1,0-1.53,0H6.13c-.53,0-1.06,0-1.59,0-.35,0-.7,0-1,0-.7,0-1.39,0-2.08,0h-.3A1,1,0,0,1,0,12.84,3.71,3.71,0,0,0,0,11.9Z"/><path class="cls-1" d="M18.86,12.13c.11-3.32,0-6.64,0-10,0-.56-.1-1.12-.08-1.69a.19.19,0,0,0-.14-.2c-.1,0-.16,0-.21.1A5.7,5.7,0,0,1,17.39,1.6c-.85.81-1.67,1.66-2.51,2.5a3.61,3.61,0,0,0-.36.51.55.55,0,0,1-.2.2c-.29.17-.5.06-.48-.27.05-1,0-2,0-3a4.6,4.6,0,0,0-.05-.74,1.11,1.11,0,0,0-1-.8H1.08a1.12,1.12,0,0,0-1,1c0,.06,0,.11,0,.15A1,1,0,0,1,.31.24.92.92,0,0,1,.94,0H13a.94.94,0,0,1,.91.9c0,.82.07,1.64.05,2.46,0,.28,0,.56-.05.85a.45.45,0,0,0,0,.22c.1.2.2.22.38.1s.24-.27.38-.4c.6-.59,1.19-1.2,1.8-1.79.31-.29.6-.62.91-.92a4.5,4.5,0,0,0,.88-1,2.39,2.39,0,0,0,.12-.22.27.27,0,0,1,.33-.17c.14,0,.17.16.2.29a3.22,3.22,0,0,1,0,.62c0,.28,0,.56,0,.84,0,3.33,0,6.66,0,10,0,.11,0,.22,0,.33S18.88,12.15,18.86,12.13Z"/><path class="cls-1" d="M18.86,12.13h.05c0,.43,0,.86.09,1.29v.18a.31.31,0,0,1-.15.3c-.13.07-.23,0-.32-.11a1.21,1.21,0,0,1-.16-.16,6.58,6.58,0,0,0-1.3-1.44c-.61-.58-1.2-1.2-1.81-1.8a7.94,7.94,0,0,1-.87-1c-.06-.07-.15-.15-.25-.12a.29.29,0,0,0-.18.22,2.35,2.35,0,0,0,0,.53q0,1.55,0,3.09a.92.92,0,0,1-.81.81,13.94,13.94,0,0,1-1.94,0,1.63,1.63,0,0,0-.54,0,1.51,1.51,0,0,1-.6,0,1.25,1.25,0,0,0-.51,0h0c-.43-.07-.86.07-1.29,0a.44.44,0,0,0-.2,0c-.46.09-.92,0-1.38,0a3.41,3.41,0,0,1-.55,0c-.48,0-1-.06-1.45,0-.21,0-.41,0-.62,0-.49.06-1,0-1.49,0a8.71,8.71,0,0,1-1.84,0,.85.85,0,0,1-.7-.77V11.9a1.73,1.73,0,0,1,0,.64,5.12,5.12,0,0,0,0,.56,1,1,0,0,0,1,.78c3.9,0,7.81,0,11.71,0a1.08,1.08,0,0,0,1.1-1.06c0-1.05,0-2.11,0-3.16,0-.12,0-.23,0-.34s0-.23.16-.26a.27.27,0,0,1,.3.1,10.58,10.58,0,0,0,1.47,1.66c.4.45.86.84,1.29,1.26l.75.71a1.94,1.94,0,0,1,.49.61l0,.05c.1.09.18.26.34.21s.15-.23.14-.39A4.92,4.92,0,0,1,18.86,12.13Z"/><path class="cls-1" d="M18.87,7.4a10.15,10.15,0,0,0,0,1.65,5.18,5.18,0,0,0,0,1.18,1.31,1.31,0,0,1,0,.39c-.06.58-.1,1.15-.14,1.72a3.35,3.35,0,0,0,.07.71,2,2,0,0,1,0,.25.16.16,0,0,1-.12.16.16.16,0,0,1-.2-.07c-.15-.23-.31-.46-.44-.69a.35.35,0,0,1,0-.4,2,2,0,0,0,.37-1.15,7,7,0,0,1,.08-.91c0-.13,0-.27,0-.39a7.64,7.64,0,0,0,.12-1.65,1.1,1.1,0,0,0-.05-.51.37.37,0,0,1,0-.31,1.26,1.26,0,0,0,0-.72,1,1,0,0,1,0-.42.53.53,0,0,0,0-.25,2.75,2.75,0,0,1,0-1.07.87.87,0,0,0-.1-.61.25.25,0,0,1,0-.15,15.72,15.72,0,0,0-.13-2.06.65.65,0,0,0-.12-.31.52.52,0,0,1-.1-.58,1.83,1.83,0,0,1,.34-.63c.05-.06.13-.15.22-.1a.2.2,0,0,1,.1.23,2.71,2.71,0,0,0-.06.85,4.15,4.15,0,0,0,.06,1,3.62,3.62,0,0,1,.06,1,2,2,0,0,0,0,.42,1.89,1.89,0,0,1,0,.67c0,.24.05.49,0,.73-.05.48.07,1,0,1.42A1.81,1.81,0,0,0,18.87,7.4Z"/><path class="cls-1" d="M18.67,13.12c0,.05,0,.13-.09.16s-.13,0-.17-.1a.73.73,0,0,1-.17-.49c0-.1.06-.2.17-.21s.13.09.17.16A2.4,2.4,0,0,1,18.67,13.12Z"/></g></g></svg>