<svg width="25" height="22" viewBox="0 0 25 22" xmlns="http://www.w3.org/2000/svg">
  <g fill="#000" fill-rule="nonzero">
    <path d="M22.663 7.51C21.323 3.166 17.273 0 12.5 0 7.726 0 3.677 3.166 2.336 7.51A3.285 3.285 0 0 0 0 10.648c0 1.453.967 2.73 2.336 3.138 1.341 4.345 5.39 7.51 10.164 7.51s8.823-3.165 10.163-7.51A3.284 3.284 0 0 0 25 10.648c0-1.453-.967-2.73-2.337-3.138zm-20.61 5.135a2.35 2.35 0 0 1-1.12-1.997 2.35 2.35 0 0 1 1.12-1.997 10.674 10.674 0 0 0 0 3.994zM12.5 20.362c-5.35 0-9.702-4.357-9.702-9.714A9.724 9.724 0 0 1 7.933 2.08c.464.988 1.923 3.46 5.382 4.846a.464.464 0 0 0 .606-.26.467.467 0 0 0-.26-.607c-3.143-1.259-4.48-3.54-4.883-4.382A9.628 9.628 0 0 1 12.2.94c.324.656 1.252 2.198 3.17 3.07a.464.464 0 0 0 .617-.232.467.467 0 0 0-.231-.618c-1.293-.588-2.068-1.55-2.47-2.193 4.984.402 8.916 4.591 8.916 9.682 0 5.357-4.352 9.714-9.702 9.714zm10.446-7.716a10.673 10.673 0 0 0 0-3.996 2.349 2.349 0 0 1 1.121 1.998c0 .832-.442 1.582-1.12 1.998z"/>
    <path d="M8.796 10.185c-1.276 0-2.315.675-2.315 1.505 0 .192.24.347.534.347.295 0 .534-.155.534-.347 0-.447.56-.81 1.247-.81.688 0 1.247.363 1.247.81 0 .192.24.347.534.347.295 0 .534-.155.534-.347 0-.83-1.038-1.505-2.315-1.505zM17.13 10.185c-1.277 0-2.315.675-2.315 1.505 0 .192.239.347.534.347.295 0 .533-.155.533-.347 0-.447.56-.81 1.248-.81.687 0 1.247.363 1.247.81 0 .192.239.347.534.347.295 0 .533-.155.533-.347 0-.83-1.038-1.505-2.314-1.505zM14.686 15.87a.44.44 0 0 0-.622 0 2.866 2.866 0 0 1-4.054 0 .44.44 0 1 0-.622.623c.708.709 1.649 1.1 2.65 1.1 1 0 1.94-.391 2.648-1.1a.441.441 0 0 0 0-.623zM13.492 12.037h-1.058c-.22 0-.397.207-.397.463s.178.463.397.463h1.058c.22 0 .397-.207.397-.463s-.178-.463-.397-.463z"/>
  </g>
</svg>
