<?xml version="1.0" encoding="UTF-8"?>
<svg width="18px" height="16px" viewBox="0 0 18 16" version="1.1" xmlns="http://www.w3.org/2000/svg" xmlns:xlink="http://www.w3.org/1999/xlink">
    <!-- Generator: Sketch 52.6 (67491) - http://www.bohemiancoding.com/sketch -->
    <title>Icons/event-fixed</title>
    <desc>Created with Sketch.</desc>
    <defs>
        <path d="M1.41410424,9.75503557 C1.32972807,9.40610728 1.54418994,9.0548446 1.89311823,8.97046843 C2.24204652,8.88609226 2.5933092,9.10055412 2.67768537,9.44948242 C2.73022714,9.66676307 2.79518896,9.88201104 2.87254341,10.0945406 C3.99772727,13.1859579 7.41595786,14.779905 10.5073751,13.6547211 C12.5412723,12.9144431 13.9855519,11.1504532 14.3437576,9.05515587 C14.404251,8.70130443 14.7401439,8.46349073 15.0939953,8.52398412 C15.4478468,8.58447751 15.6856605,8.92037036 15.6251671,9.2742218 C15.1890654,11.825165 13.4290892,13.9747353 10.9520013,14.8763215 C7.18591277,16.2470657 3.02168712,14.3052554 1.650943,10.5391668 C1.5570054,10.2810754 1.47803075,10.0193966 1.41410424,9.75503557 Z M13.7456996,5.28980341 C12.3835986,2.68519435 9.27047138,1.42685332 6.4327239,2.45970894 C4.42127343,3.19181704 2.9855823,4.92530784 2.60801636,6.99322601 C2.54353784,7.34637303 2.20498546,7.58038508 1.85183845,7.51590657 C1.49869143,7.45142806 1.26467937,7.11287568 1.32915788,6.75972866 C1.78881298,4.24221051 3.53838584,2.12973074 5.98809771,1.23810853 C9.52934022,-0.0507983361 13.4225992,1.58911905 15.014452,4.9205494 L15.6409252,3.57707329 C15.7926388,3.25172231 16.1793761,3.11096144 16.5047271,3.2626751 C16.8300781,3.41438875 16.970839,3.80112605 16.8191253,4.12647703 L15.5499107,6.8483165 C15.3981971,7.17366748 15.0114598,7.31442834 14.6861088,7.16271469 L11.9642693,5.8935001 C11.6389183,5.74178645 11.4981575,5.35504915 11.6498711,5.02969817 C11.8015848,4.70434719 12.1883221,4.56358632 12.5136731,4.71529998 L13.7456996,5.28980341 Z M2.40454917,10.3642667 L1.41003645,12.4970061 C1.2583228,12.8223571 0.871585502,12.9631179 0.546234522,12.8114043 C0.220883541,12.6596906 0.0801226765,12.2729533 0.23183633,11.9476024 L1.50105092,9.22576289 C1.65276457,8.90041191 2.03950187,8.75965104 2.36485285,8.9113647 L5.08669231,10.1805793 C5.41204329,10.3322929 5.55280416,10.7190302 5.40109051,11.0443812 C5.24937685,11.3697322 4.86263955,11.5104931 4.53728857,11.3587794 L2.40454917,10.3642667 Z" id="path-1"></path>
    </defs>
    <g id="Assets" stroke="none" stroke-width="1" fill="none" fill-rule="evenodd">
        <g id="cc-assets" transform="translate(-692.000000, -635.000000)">
            <g id="Icons-general" transform="translate(30.000000, 453.000000)">
                <g id="Icons-/-20x20-/-fixed" transform="translate(661.000000, 180.000000)">
                    <g id="color" transform="translate(1.500000, 2.000000)">
                        <mask id="mask-2" fill="white">
                            <use xlink:href="#path-1"></use>
                        </mask>
                        <use id="fixed" fill="#F56B87" fill-rule="nonzero" xlink:href="#path-1"></use>
                        <g id="Colors/cc-grey-4" mask="url(#mask-2)" fill="#97979A">
                            <g transform="translate(-1.500000, -2.000000)" id="Rectangle-5">
                                <rect x="0" y="0" width="20" height="20"></rect>
                            </g>
                        </g>
                    </g>
                </g>
            </g>
        </g>
    </g>
</svg>