<svg width="29" height="28" viewBox="0 0 29 28" xmlns="http://www.w3.org/2000/svg">
  <g transform="translate(-1)" stroke="#A9A9AC" stroke-width="1.3" fill="none" fill-rule="evenodd">
    <path d="M15.525 21.034c-.142 0-7.928-5.139-7.928-10.13 0-2.78 1.583-4.44 4.229-4.44 1.548 0 3.699 1.23 3.699 3.749.232-2.52 2.15-3.75 3.698-3.75 2.646 0 4.172 1.661 4.23 4.44.102 4.948-7.787 10.131-7.928 10.131z" stroke-linecap="round" stroke-linejoin="round"/>
    <ellipse cx="15.525" cy="2.821" rx="6.996" ry="1.821"/>
    <path d="M5.34 11.017c-2.351 0-3.34 2.056-3.34 3.56v10.265c.297 1.104.925 1.656 1.881 1.656.957 0 1.584-.552 1.882-1.656v-6.73 1.194c-.114 2.396.5 3.595 1.843 3.595 1.342 0 1.957-1.199 1.843-3.595M25.71 11.017c2.351 0 3.34 2.056 3.34 3.56v10.265c-.297 1.104-.925 1.656-1.881 1.656-.957 0-1.584-.552-1.882-1.656v-6.73 1.194c.114 2.396-.5 3.595-1.843 3.595-1.342 0-1.957-1.199-1.843-3.595" stroke-linecap="round" stroke-linejoin="round"/>
  </g>
</svg>
