<svg width="28" height="28" xmlns="http://www.w3.org/2000/svg" xmlns:xlink="http://www.w3.org/1999/xlink">
  <defs>
    <path d="M13.685 11.959c1.827 1.22 2.855 2.07 3.205 2.689.318.562 1.098 1.977 2.345 4.25a1 1 0 0 1-1.754.961 552.364 552.364 0 0 0-2.332-4.228c-.18-.318-1.383-1.245-3.434-2.572-1.058 1.35-2.035 2.256-2.964 2.72-1.291.644-3.065.478-5.356-.383a1 1 0 0 1 .704-1.872c1.82.684 3.084.802 3.76.465.748-.374 1.705-1.334 2.816-2.876l2.758-4.407a27.958 27.958 0 0 0-2.083-.758c-1.183-.378-2.244.21-3.34 2.05a1 1 0 0 1-1.718-1.023c1.524-2.56 3.464-3.635 5.666-2.933.933.298 1.802.626 2.745 1.026.555.236 2.309 1.022 2.613 1.152.29.126.555.235.81.336.74.29 1.844-.261 3.313-1.943a1 1 0 0 1 1.506 1.316c-1.962 2.247-3.813 3.172-5.551 2.488a29.995 29.995 0 0 1-1.181-.497l-2.528 4.039zM8.909 1a.5.5 0 0 1 0 1h-4a.5.5 0 1 1 0-1h4zM4.52 5a.5.5 0 1 1 0 1h-4a.5.5 0 0 1 0-1h4zm1.111 5a.5.5 0 1 1 0 1h-4a.5.5 0 1 1 0-1h4zM17.3 4.6a2.3 2.3 0 1 1 0-4.6 2.3 2.3 0 0 1 0 4.6z" id="a"/>
  </defs>
  <g fill="none" fill-rule="evenodd">
    <g transform="translate(2 4)">
      <mask id="b" fill="#fff">
        <use xlink:href="#a"/>
      </mask>
      <use fill="#FFFFFF" fill-rule="nonzero" xlink:href="#a"/>
      <g mask="url(#b)" fill="#FFFFFF">
        <path d="M-2-4h28v28H-2z"/>
      </g>
    </g>
  </g>
</svg>