<svg height="28" viewBox="0 0 28 28" width="28" xmlns="http://www.w3.org/2000/svg" xmlns:xlink="http://www.w3.org/1999/xlink"><defs><path id="a" d="m8.75 11.025c-.67654882 0-1.225.5484512-1.225 1.225s.54845118 1.225 1.225 1.225h10.5c.6765488 0 1.225-.5484512 1.225-1.225s-.5484512-1.225-1.225-1.225zm10.7288271-1.03863497c1.1489947.11475677 2.0461729 1.08442227 2.0461729 2.26363497 0 1.0757536-.746655 1.9771165-1.75 2.2141239v6.5358761c0 2.2229461-1.8020539 4.025-4.025 4.025h-3.5c-2.2229461 0-4.025-1.8020539-4.025-4.025v-6.5358761c-1.003345-.2370074-1.75-1.1383703-1.75-2.2141239 0-1.1792127.89717816-2.1488782 2.04617285-2.26363497l3.20382715-3.20382715v-1.53253788c0-1.25644781 1.0185522-2.275 2.275-2.275s2.275 1.01855219 2.275 2.275v1.53253788zm-1.4962892-.01136503-2.7575379-2.75753788v-1.96746212c0-.67654882-.5484512-1.225-1.225-1.225s-1.225.54845118-1.225 1.225v1.96746212l-2.7575379 2.75753788zm.5833166 11.9875h-2.3783545c-.2899495 0-.525-.2350505-.525-.525s.2350505-.525.525-.525h2.5375v-1.575h-2.5375c-.2899495 0-.525-.2350505-.525-.525s.2350505-.525.525-.525h2.5375v-1.575h-2.5375c-.2899495 0-.525-.2350505-.525-.525s.2350505-.525.525-.525h2.5375v-1.1375h-9.45v6.475c0 1.6430471 1.3319529 2.975 2.975 2.975h3.5c1.3062068 0 2.415799-.8418074 2.8158545-2.0125z"/><mask id="b" fill="#fff"><use fill="none" xlink:href="#a"/></mask></defs><g fill="none" fill-rule="evenodd" transform=""><use fill="#303036" fill-rule="nonzero" xlink:href="#a"/><g fill="#97979a" mask="url(#b)"><path d="m0 0h28v28h-28z"/></g></g></svg>