<?xml version="1.0" encoding="UTF-8"?>
<svg width="32px" height="32px" viewBox="0 0 32 32" version="1.1" xmlns="http://www.w3.org/2000/svg" xmlns:xlink="http://www.w3.org/1999/xlink">
    <!-- Generator: sketchtool 55.1 (78136) - https://sketchapp.com -->
    <title>239C91BA-F08C-4DFD-A471-0C3087F071B9</title>
    <desc>Created with sketchtool.</desc>
    <g id="Icons" stroke="none" stroke-width="1" fill="none" fill-rule="evenodd">
        <g transform="translate(-292.000000, -65.000000)" fill="#303036" id="Group">
            <g transform="translate(40.000000, 65.000000)">
                <g id="Icons-/-32x32-/-image" transform="translate(252.000000, 0.000000)">
                    <path d="M27.75,22.0909091 L27.75,23 C27.75,24.5187797 26.5187885,25.7499889 25.00001,25.7499943 L7,25.75 C5.48121154,25.7499889 4.25,24.5187797 4.25,23 L4.25,22 L4.25,10 C4.25,8.48121694 5.48121694,7.25 7,7.25 L25,7.25 C26.5187831,7.25 27.75,8.48121694 27.75,10 L27.75,22.0909091 Z M26.25,20.946704 L26.25,10 C26.25,9.30964406 25.6903559,8.75 25,8.75 L7,8.75 C6.30964406,8.75 5.75,9.30964406 5.75,10 L5.75,20.5 L12.55,15.4 C12.7657894,15.2381579 13.0518659,15.2046587 13.2992079,15.3122685 L26.25,20.946704 Z M5.75,23 C5.75,23.6903559 6.30964406,24.25 7,24.25 L25,24.25 C25.6903559,24.25 26.25,23.6903559 26.25,23 L26.25,22.5825168 L13.1009174,16.861812 L5.75,22.375 L5.75,23 Z M21.5,16.75 C19.7050746,16.75 18.25,15.2949254 18.25,13.5 C18.25,11.7050746 19.7050746,10.25 21.5,10.25 C23.2949254,10.25 24.75,11.7050746 24.75,13.5 C24.75,15.2949254 23.2949254,16.75 21.5,16.75 Z M21.5,15.25 C22.4664983,15.25 23.25,14.4664983 23.25,13.5 C23.25,12.5335017 22.4664983,11.75 21.5,11.75 C20.5335017,11.75 19.75,12.5335017 19.75,13.5 C19.75,14.4664983 20.5335017,15.25 21.5,15.25 Z" id="icon"></path>
                </g>
            </g>
        </g>
    </g>
</svg>