<svg height="32" viewBox="0 0 32 32" width="32" xmlns="http://www.w3.org/2000/svg" xmlns:xlink="http://www.w3.org/1999/xlink"><defs><path id="a" d="m8.17178758 17.9046637c-.70826467-1.2835644-1.10975054-2.7505985-1.10975054-4.3102712 0-5.0514657 4.24149926-9.153271 9.45925926-9.153271 5.2248918 0 9.4592593 4.08811749 9.4592593 9.153271 0 1.5600171-.4016632 3.0273546-1.1102198 4.3111214l3.4746164 5.8264232c.2611726.4379482-.108394.9814212-.6116861.8995264l-3.3038257-.5375925-1.127213 3.0329124c-.174018.4682181-.8105332.5312078-1.0729471.1061791l-3.0031226-4.8641222c-.8569703.2465106-1.7648866.3788233-2.7048614.3788233s-1.8478912-.1323127-2.7048614-.3788233l-3.0031226 4.8641222c-.2616343.423766-.89582968.3627162-1.07182237-.1031773l-1.14698838-3.0363447-3.30647136.538023c-.50400547.0820109-.87356344-.4629533-.61089505-.900849zm.72881229 1.117825-2.52951081 4.2169589 2.51495482-.4092289c.28174336-.0458447.55677937.1131514.65765138.380183l.88933464 2.3542753 2.228533-3.6095285c-1.5017022-.6491145-2.79610842-1.6657517-3.76096303-2.9326598zm11.48042983 2.9326598 2.2241876 3.6024902.871259-2.3442352c.0998637-.2686964.3758433-.4292231.6587761-.3831848l2.5192334.4099251-2.5140224-4.2156476c-.9646929 1.2659745-2.2585248 2.2818807-3.7594337 2.9306523zm-3.8597334-16.314027c-4.5638444 0-8.25925926 3.57370623-8.25925926 7.953271 0 4.3927904 3.68785476 7.9532711 8.25925926 7.9532711s8.2592593-3.5604807 8.2592593-7.9532711c0-4.39279037-3.6878548-7.953271-8.2592593-7.953271zm5.0296296 6.8224299c0 .569572-.2003579 1.1653616-.5655544 1.7888579-.4188202.7150479-1.0481803 1.4564819-1.8335568 2.211087-.4999546.4803662-1.0336123.9376291-1.5671664 1.3578198-.3208174.2526539-.5719031.4379603-.7189819.5410461-.2067204.1448878-.4820198.1448878-.6887402 0-.1470788-.1030858-.3981645-.2883922-.7189819-.5410461-.5335541-.4201907-1.0672118-.8774536-1.5671664-1.3578198-.7853765-.7546051-1.4147366-1.4960391-1.8335569-2.211087-.3651964-.6234963-.5655543-1.2192859-.5655543-1.7888579 0-3.03707389 3.4682651-3.93526146 5.0296296-1.7223134 1.5613645-2.21294806 5.0296296-1.31476049 5.0296296 1.7223134zm-4.7087223 4.4150157c.5046403-.3974203 1.009177-.829731 1.4782039-1.2803812.7125991-.6846791 1.275399-1.3477002 1.6295081-1.9522673.2664104-.45484.4010103-.8550897.4010103-1.1823672 0-2.1240773-2.6538106-2.4900989-3.2476397-.1213866-.1517876.6054625-1.0121922.6054625-1.1639798 0-.5938291-2.3687123-3.2476397-2.0026907-3.2476397.1213866 0 .3272775.1345999.7275272.4010103 1.1823672.3541091.6045671.916909 1.2675882 1.6295081 1.9522673.4690269.4506502.9735636.8829609 1.4782039 1.2803812.1181786.0930693.2258449.1760915.3209073.2481298.0950624-.0720383.2027287-.1550605.3209073-.2481298z"/><mask id="b" fill="#fff"><use fill="none" xlink:href="#a"/></mask></defs><g fill="#303036" fill-rule="evenodd" transform=""><use fill-rule="nonzero" xlink:href="#a"/><g mask="url(#b)"><path d="m0 0h32v32h-32z"/></g></g></svg>