<svg width="32" height="32" viewBox="0 0 32 32" xmlns="http://www.w3.org/2000/svg" xmlns:xlink="http://www.w3.org/1999/xlink">
  <title>
    icn-feature-driverslicence
  </title>
  <defs>
    <path d="M27.412 10.95h.288a.6.6 0 0 1 0 1.2h-2.704a2.915 2.915 0 0 1-2.871 2.3 2.915 2.915 0 0 1-2.871-2.3H8.644a2.915 2.915 0 0 1-2.87 2.3 2.916 2.916 0 0 1-2.873-2.3H1.086a.6.6 0 0 1-.6-.6V7.52a2.33 2.33 0 0 1 2.35-2.326h4.318L9.32.9a.6.6 0 0 1 .536-.33H20.98a.6.6 0 0 1 .536.33l2.166 4.295h1.38a2.33 2.33 0 0 1 2.35 2.326v3.428zm-1.2 0V7.52a1.13 1.13 0 0 0-1.15-1.126h-1.75a.6.6 0 0 1-.535-.33L20.611 1.77H10.225L8.06 6.065a.6.6 0 0 1-.536.33H2.836c-.642 0-1.15.5-1.15 1.126v3.428h1.21c.267-1.317 1.456-2.301 2.878-2.301 1.417 0 2.593.98 2.87 2.301h10.611a2.932 2.932 0 0 1 2.87-2.301c1.418 0 2.593.98 2.87 2.301h1.217zM5.774 9.847c-.973 0-1.749.76-1.733 1.701 0 .946.766 1.702 1.733 1.702.966 0 1.732-.756 1.732-1.702 0-.945-.766-1.701-1.732-1.701zm16.35 0c-.952 0-1.732.764-1.732 1.701 0 .946.766 1.702 1.733 1.702.966 0 1.733-.756 1.733-1.702 0-.945-.767-1.701-1.733-1.701zM11.977 4.072l-1 1.992a.6.6 0 0 1-1.073-.538l1.166-2.323a.6.6 0 0 1 .537-.33h1.166a.6.6 0 0 1 0 1.2h-.796z" id="a"/>
  </defs>
  <g fill="none" fill-rule="evenodd">
    <g transform="translate(2 8)">
      <mask id="b" fill="#fff">
        <use xlink:href="#a"/>
      </mask>
      <use fill="#303036" fill-rule="nonzero" xlink:href="#a"/>
      <g mask="url(#b)" fill="#303036">
        <path d="M-2-8h32v32H-2z"/>
      </g>
    </g>
  </g>
</svg>
