<?xml version="1.0" encoding="UTF-8"?>
<svg width="32px" height="32px" viewBox="0 0 32 32" version="1.1" xmlns="http://www.w3.org/2000/svg" xmlns:xlink="http://www.w3.org/1999/xlink">
    <!-- Generator: sketchtool 55.1 (78136) - https://sketchapp.com -->
    <title>83046779-FCE5-4579-A71D-BF5CE78D4928</title>
    <desc>Created with sketchtool.</desc>
    <g id="Icons" stroke="none" stroke-width="1" fill="none" fill-rule="evenodd">
        <g transform="translate(-418.000000, -65.000000)" fill="#303036" id="Group">
            <g transform="translate(40.000000, 65.000000)">
                <g id="Icons-/-32x32-/-photo" transform="translate(378.000000, 0.000000)">
                    <path d="M24.9375,10.1875 C25.6250034,10.1875 26.1406233,10.4453099 26.484375,10.9609375 C26.8281267,11.4765651 27,11.9062483 27,12.25 L27,23.2714844 C27,23.8157579 26.7744163,24.2919901 26.3232422,24.7001953 C25.8720681,25.1084005 25.4244814,25.3125 24.9804688,25.3125 L6.91210938,25.3125 C6.46809674,25.3125 6.03841354,25.1119812 5.62304688,24.7109375 C5.20768021,24.3098938 5,23.8229195 5,23.25 L5,12.2285156 C5,11.5553352 5.25780992,11.0468767 5.7734375,10.703125 C6.28906508,10.3593733 6.71874828,10.1875 7.0625,10.1875 L10.2207031,10.1875 L11.875,7.4375 L20.125,7.4375 L21.7792969,10.1875 L24.9375,10.1875 Z M25.625,23.2714844 L25.625,12.25 C25.625,12.221354 25.5712896,12.0996104 25.4638672,11.8847656 C25.3564448,11.6699208 25.1809908,11.5625 24.9375,11.5625 L21.0058594,11.5625 L20.6191406,10.8964844 L19.3945312,8.8125 L12.6484375,8.8125 L10.9941406,11.5625 L7.0625,11.5625 C7.00520805,11.5625 6.87630309,11.6197911 6.67578125,11.734375 C6.47525941,11.8489589 6.375,12.0136708 6.375,12.2285156 L6.375,23.25 C6.375,23.4361988 6.44661387,23.59733 6.58984375,23.7333984 C6.73307363,23.8694668 6.84765582,23.9375 6.93359375,23.9375 L24.9804688,23.9375 C25.0807297,23.923177 25.2132153,23.8408211 25.3779297,23.6904297 C25.5426441,23.5400383 25.625,23.4003913 25.625,23.2714844 Z M16,12.25 C16.6588575,12.25 17.2818981,12.3753243 17.8691406,12.6259766 C18.4563831,12.8766289 18.9684223,13.2203754 19.4052734,13.6572266 C19.8421246,14.0940777 20.1858711,14.6061169 20.4365234,15.1933594 C20.6871757,15.7806019 20.8125,16.4036425 20.8125,17.0625 C20.8125,17.7213575 20.6871757,18.3443981 20.4365234,18.9316406 C20.1858711,19.5188831 19.8421246,20.0309223 19.4052734,20.4677734 C18.9684223,20.9046246 18.4563831,21.2483711 17.8691406,21.4990234 C17.2818981,21.7496757 16.6588575,21.875 16,21.875 C15.3411425,21.875 14.7181019,21.7496757 14.1308594,21.4990234 C13.5436169,21.2483711 13.0315777,20.9046246 12.5947266,20.4677734 C12.1578754,20.0309223 11.8141289,19.5188831 11.5634766,18.9316406 C11.3128243,18.3443981 11.1875,17.7213575 11.1875,17.0625 C11.1875,16.4036425 11.3128243,15.7806019 11.5634766,15.1933594 C11.8141289,14.6061169 12.1578754,14.0940777 12.5947266,13.6572266 C13.0315777,13.2203754 13.5436169,12.8766289 14.1308594,12.6259766 C14.7181019,12.3753243 15.3411425,12.25 16,12.25 Z M16,20.5 C16.9453172,20.5 17.7545539,20.1634148 18.4277344,19.4902344 C19.1009148,18.8170539 19.4375,18.0078172 19.4375,17.0625 C19.4375,16.1171828 19.1009148,15.3079461 18.4277344,14.6347656 C17.7545539,13.9615852 16.9453172,13.625 16,13.625 C15.0546828,13.625 14.2454461,13.9615852 13.5722656,14.6347656 C12.8990852,15.3079461 12.5625,16.1171828 12.5625,17.0625 C12.5625,18.0078172 12.8990852,18.8170539 13.5722656,19.4902344 C14.2454461,20.1634148 15.0546828,20.5 16,20.5 Z" id="icon"></path>
                </g>
            </g>
        </g>
    </g>
</svg>