<svg xmlns="http://www.w3.org/2000/svg" width="32" height="32" viewBox="0 0 32 32"><path fill="#303036" fill-rule="evenodd" d="M28.15 16.7h-1.3V9c0-.745584-.604416-1.35-1.35-1.35h-5.35V9c0 .358985-.291015.65-.65.65s-.65-.291015-.65-.65V7.65h-5.7V9c0 .358985-.291015.65-.65.65s-.65-.291015-.65-.65V7.65H6.5c-.745584 0-1.35.604416-1.35 1.35v15c0 .745584.604416 1.35 1.35 1.35H18v1.3H6.5c-1.463555 0-2.65-1.186445-2.65-2.65V9c0-1.463555 1.186445-2.65 2.65-2.65h5.35V5c0-.358985.291015-.65.65-.65s.65.291015.65.65v1.35h5.7V5c0-.358985.291015-.65.65-.65s.65.291015.65.65v1.35h5.35c1.463555 0 2.65 1.186445 2.65 2.65v7.7zM18 19.005777v2.988446c-.211412.390533-.62473.655777-1.1.655777h-1.8c-.690356 0-1.25-.559644-1.25-1.25v-1.8c0-.690356.559644-1.25 1.25-1.25h1.8c.47527 0 .888588.265244 1.1.655777zM9.1 12.35h1.8c.690356 0 1.25.559644 1.25 1.25v1.8c0 .690356-.559644 1.25-1.25 1.25H9.1c-.690356 0-1.25-.559644-1.25-1.25v-1.8c0-.690356.559644-1.25 1.25-1.25zm.05 3h1.7v-1.7h-1.7v1.7zm-.05 3h1.8c.690356 0 1.25.559644 1.25 1.25v1.8c0 .690356-.559644 1.25-1.25 1.25H9.1c-.690356 0-1.25-.559644-1.25-1.25v-1.8c0-.690356.559644-1.25 1.25-1.25zm.05 3h1.7v-1.7h-1.7v1.7zm5.95-9h1.8c.690356 0 1.25.559644 1.25 1.25v1.8c0 .690356-.559644 1.25-1.25 1.25h-1.8c-.690356 0-1.25-.559644-1.25-1.25v-1.8c0-.690356.559644-1.25 1.25-1.25zm.05 3h1.7v-1.7h-1.7v1.7zm0 6h1.7v-1.7h-1.7v1.7zm5.95-9h1.8c.690356 0 1.25.559644 1.25 1.25v1.8c0 .690356-.559644 1.25-1.25 1.25h-1.8c-.690356 0-1.25-.559644-1.25-1.25v-1.8c0-.690356.559644-1.25 1.25-1.25zm.05 3h1.7v-1.7h-1.7v1.7zM26 18c3.313709 0 6 2.686291 6 6s-2.686291 6-6 6-6-2.686291-6-6 2.686291-6 6-6zm-.563619 7.770707l-1.82608-2.556514c-.240758-.337059-.70917-.415128-1.04623-.174371s-.415128.70917-.174371 1.046229l2.5 3.5c.316263.442768.983968.411973 1.258134-.058026l3.5-6c.20871-.357789.087858-.817027-.26993-1.025737-.35779-.20871-.817028-.087858-1.025738.26993l-2.915785 4.998489z"/></svg>