<?xml version="1.0" encoding="UTF-8"?>
<svg width="25px" height="20px" viewBox="0 0 25 20" version="1.1" xmlns="http://www.w3.org/2000/svg" xmlns:xlink="http://www.w3.org/1999/xlink">
    <!-- Generator: sketchtool 52.6 (67491) - http://www.bohemiancoding.com/sketch -->
    <title>ABC2EAFA-63BB-4B56-8704-DE9C4B1A89BE</title>
    <desc>Created with sketchtool.</desc>
    <g id="Assets" stroke="none" stroke-width="1" fill="none" fill-rule="evenodd">
        <g id="cc-assets" transform="translate(-900.000000, -631.000000)">
            <g id="Icons-general" transform="translate(30.000000, 453.000000)">
                <g id="slices" transform="translate(0.000000, 34.000000)"></g>
            </g>
            <g id="play" transform="translate(900.000000, 619.000000)">
                <g id="btn/play-icon" transform="translate(0.000000, 12.000000)">
                    <g id="Group">
                        <rect id="Rectangle-2" fill-opacity="0.799999952" fill="#97979A" x="0" y="0" width="25" height="20" rx="3"></rect>
                        <path d="M9.31110605,5.12564621 L16.266697,9.35640381 C16.6737918,9.60402037 16.8030745,10.1347688 16.555458,10.5418636 C16.4920132,10.6461702 16.4071533,10.735824 16.306487,10.8048993 L9.35089606,15.5776985 C8.95800889,15.8472905 8.42096344,15.74734 8.15137146,15.3544528 C8.05277309,15.2107615 8,15.04058 8,14.8663134 L8,5.8627566 C8,5.38626929 8.38626929,5 8.8627566,5 C9.02089729,5 9.17599593,5.04346511 9.31110605,5.12564621 Z" id="Rectangle" fill="#FFFFFF"></path>
                    </g>
                </g>
            </g>
        </g>
    </g>
</svg>