<svg width="32" height="32" viewBox="0 0 32 32" xmlns="http://www.w3.org/2000/svg" xmlns:xlink="http://www.w3.org/1999/xlink">
  <defs>
    <path d="M25.438 10.188c.687 0 1.203.257 1.546.773.344.516.516.945.516 1.289v11.021c0 .545-.226 1.021-.677 1.43-.45.407-.899.611-1.343.611H7.412c-.444 0-.874-.2-1.289-.601A1.955 1.955 0 0 1 5.5 23.25V12.229c0-.674.258-1.182.773-1.526.516-.344.946-.515 1.29-.515h3.158l1.654-2.75h8.25l1.654 2.75h3.159zm.687 13.083V12.25c0-.029-.054-.15-.161-.365a.547.547 0 0 0-.526-.322h-3.932l-.387-.667-1.224-2.084h-6.747l-1.654 2.75H7.563c-.058 0-.187.058-.387.172-.2.115-.301.28-.301.495V23.25c0 .186.072.347.215.483.143.136.258.204.344.204H25.48c.1-.014.233-.096.398-.247.165-.15.247-.29.247-.419zM16.5 12.25c.659 0 1.282.125 1.87.376.586.25 1.098.594 1.535 1.031.437.437.78.95 1.032 1.536.25.588.375 1.21.375 1.87 0 .658-.125 1.281-.375 1.869a4.83 4.83 0 0 1-1.032 1.536 4.83 4.83 0 0 1-1.536 1.031c-.587.25-1.21.376-1.869.376a4.711 4.711 0 0 1-1.87-.376 4.83 4.83 0 0 1-1.535-1.031 4.83 4.83 0 0 1-1.032-1.536 4.711 4.711 0 0 1-.376-1.87c0-.658.126-1.281.376-1.869a4.83 4.83 0 0 1 1.032-1.536 4.83 4.83 0 0 1 1.536-1.031 4.711 4.711 0 0 1 1.869-.376zm0 8.25c.945 0 1.755-.337 2.428-1.01s1.01-1.482 1.01-2.427c0-.946-.337-1.755-1.01-2.428s-1.483-1.01-2.428-1.01c-.945 0-1.755.337-2.428 1.01s-1.01 1.482-1.01 2.428c0 .945.337 1.754 1.01 2.427s1.483 1.01 2.428 1.01z" id="a"/>
  </defs>
  <g fill="none" fill-rule="evenodd">
    <g transform="translate(-.5)">
      <mask id="b" fill="#fff">
        <use xlink:href="#a"/>
      </mask>
      <use fill="#FFF" xlink:href="#a"/>
      <g mask="url(#b)" fill="#FFF">
        <path d="M.5 0h32v32H.5z"/>
      </g>
    </g>
  </g>
</svg>
