<svg height="40" viewBox="0 0 40 40" width="40" xmlns="http://www.w3.org/2000/svg" xmlns:xlink="http://www.w3.org/1999/xlink"><defs><path id="a" d="m34.265 13.6864754h.36c.4142136 0 .75.3357864.75.75s-.3357864.75-.75.75h-3.3804346c-.3465804 1.6504768-1.8161932 2.8770492-3.5885654 2.8770492s-3.241985-1.2265724-3.5885654-2.8770492h-13.2618692c-.3465804 1.6504768-1.81619321 2.8770492-3.5885654 2.8770492-1.7753953 0-3.24699748-1.2307602-3.59025772-2.8770492h-2.26874228c-.41421356 0-.75-.3357864-.75-.75v-5.03483606c0-1.61525846 1.31002727-2.90778688 2.937-2.90778688h5.39730749l2.70806391-5.36852105c.1275122-.25278268.386506-.41221666.6696286-.41221666h13.905c.2831226 0 .5421164.15943398.6696286.41221666l2.7080639 5.36852105h1.7253075c1.6269727 0 2.937 1.29252842 2.937 2.90778688zm-1.5 0v-4.28483606c0-.78228252-.6339727-1.40778688-1.437-1.40778688h-2.187c-.2831226 0-.5421164-.15943398-.6696286-.41221666l-2.7080639-5.36852105h-12.981615l-2.7080639 5.36852105c-.12751219.25278268-.38650596.41221666-.6696286.41221666h-5.859c-.80302727 0-1.437.62550436-1.437 1.40778688v4.28483606h1.51259786c.33355537-1.6468287 1.81925878-2.8770492 3.59640214-2.8770492 1.77237219 0 3.241985 1.2265724 3.5885654 2.8770492h13.2631691c.3508617-1.6455112 1.8320466-2.8770492 3.5872655-2.8770492 1.7723722 0 3.241985 1.2265724 3.5885654 2.8770492zm-25.548-1.3770492c-1.21625479 0-2.18576814.9504702-2.166 2.1270492 0 1.1818727.95797273 2.1270492 2.166 2.1270492s2.166-.9451765 2.166-2.1270492-.95797273-2.1270492-2.166-2.1270492zm20.439 0c-1.1914262 0-2.166.9554313-2.166 2.1270492 0 1.1818727.9579727 2.1270492 2.166 2.1270492s2.166-.9451765 2.166-2.1270492-.9579727-2.1270492-2.166-2.1270492zm-12.6863522-7.21926227-1.2503967 2.49023497c-.1858695.37016945-.6366281.51957409-1.0067975.33370462-.3701695-.18586947-.5195741-.63662807-.3337047-1.00679751l1.458-2.90368852c.127269-.25346328.3866298-.41345356.6702511-.41345356h1.458c.4142136 0 .75.33578644.75.75 0 .41421357-.3357864.75-.75.75z"/><mask id="b" fill="#fff"><use fill="none" xlink:href="#a"/></mask></defs><g fill="#303036" fill-rule="evenodd" transform="translate(2.5 10)"><use fill-rule="nonzero" xlink:href="#a"/><g mask="url(#b)"><path d="m0 0h39v36h-39z" transform="translate(-2 -8)"/></g></g></svg>