<svg height="32" viewBox="0 0 32 32" width="32" xmlns="http://www.w3.org/2000/svg" xmlns:xlink="http://www.w3.org/1999/xlink"><defs><path id="a" d="m18.0736434 20.9249012c0 1.5928854-.003876 3.1857707.003876 4.7826087 0 .173913-.0387597.2213439-.2131783.2173913-1.3294574-.0079052-2.6589147-.0079052-3.9922481 0-.1821705 0-.2248062-.0513834-.2248062-.2332016.003876-3.1660079.003876-6.3359684.007752-9.5019763 0-.173913-.0310078-.2371541-.2170543-.2332016-.5891473.0118577-1.1744186 0-1.7635659.0079052-.1356589 0-.1744186-.0395257-.1744186-.1778656.003876-1 .0077519-2.0039526 0-3.0039526 0-.1541502.0542636-.1857708.1899225-.1818182.5891473.0079052 1.1744186-.0039526 1.7635659.0079052.1666666.0039525.2015504-.0513834.2015504-.2134388-.007752-.8814229-.007752-1.7667984 0-2.64822133.0077519-.76284585.1589147-1.486166.6007752-2.12648221.4689922-.6798419 1.120155-1.09090909 1.8837209-1.33992095.5697674-.18577075 1.1589147-.26482213 1.751938-.2687747 1.124031-.01581028 2.248062-.00395257 3.372093-.01185771.1589147 0 .1937984.0513834.1937984.2055336-.0038759 1.02766798-.0077519 2.05533597 0 3.08300395 0 .16996047-.0503876.2055336-.2093023.2055336-.7093023-.00790514-1.4224806-.00395257-2.1317829-.00395257-.624031 0-1.0310078.41897233-1.0310078 1.04743082 0 .6245059.003876 1.2529644-.003876 1.8774704 0 .1501976.0426357.1897233.1860466.1897233.996124-.0039526 1.9883721 0 2.9844961-.0079052.1511628 0 .2054263.0355732.1860465.1976285-.1124031 1.027668-.2015504 2.055336-.379845 3.0750988-.0232558.1264822-.1007752.0948617-.1705426.0948617-.5891473 0-1.1744186 0-1.7635659 0-.2829457 0-.5697674.0079051-.8527132-.0039526-.1589147-.0079051-.2054263.0395257-.2015504.2055336.003876 1.5849802.003876 3.1699605.003876 4.7588933z"/><mask id="b" fill="#fff"><use fill="none" xlink:href="#a"/></mask></defs><g fill="#fff" fill-rule="evenodd" transform="translate(-.5)"><use fill-rule="nonzero" xlink:href="#a"/><g mask="url(#b)"><path d="m0 0h32v32h-32z" transform="translate(.5)"/></g></g></svg>