<?xml version="1.0" encoding="UTF-8"?>
<svg width="24px" height="21px" viewBox="0 0 24 21" version="1.1" xmlns="http://www.w3.org/2000/svg" xmlns:xlink="http://www.w3.org/1999/xlink">
    <!-- Generator: Sketch 54.1 (76490) - https://sketchapp.com -->
    <title>icons</title>
    <desc>Created with Sketch.</desc>
    <defs>
        <path d="M2.04561305,13.180352 C1.96123687,12.8314237 2.17569874,12.480161 2.52462703,12.3957848 C2.87355533,12.3114086 3.224818,12.5258705 3.30919418,12.8747988 C3.38761779,13.1991109 3.48456548,13.5203426 3.59998483,13.8374547 C5.27981936,18.4527621 10.3830402,20.8324331 14.9983477,19.1525986 C18.034686,18.0474618 20.1910224,15.4137919 20.7257409,12.2859966 C20.7862343,11.9321452 21.1221271,11.6943315 21.4759786,11.7548249 C21.82983,11.8153183 22.0676437,12.1512111 22.0071503,12.5050626 C21.3945359,16.0885037 18.9225029,19.107754 15.4429738,20.374199 C10.1529951,22.2995938 4.30377921,19.5720596 2.37838442,14.2820809 C2.24638193,13.919407 2.1354214,13.5517444 2.04561305,13.180352 Z M20.1743076,7.39569884 C18.3662734,3.01688184 13.4093747,0.803320126 8.9151287,2.43909188 C5.91230882,3.53202894 3.76878125,6.12017987 3.20516619,9.20708389 C3.14068767,9.5602309 2.80213529,9.79424296 2.44898828,9.72976445 C2.09584126,9.66528594 1.8618292,9.32673356 1.92630772,8.97358654 C2.57201193,5.43708253 5.02942123,2.46994264 8.47050252,1.21749147 C13.6441611,-0.665566261 19.3527335,1.90193036 21.4024369,6.96438835 L22.5764919,4.44661909 C22.7282056,4.12126811 23.1149429,3.98050724 23.4402939,4.1322209 C23.7656449,4.28393455 23.9064057,4.67067185 23.7546921,4.99602283 L21.9213821,8.92756872 C21.7696685,9.2529197 21.3829312,9.39368057 21.0575802,9.24196691 L17.1260343,7.40865696 C16.8006833,7.2569433 16.6599224,6.870206 16.8116361,6.54485502 C16.9633497,6.21950404 17.350087,6.07874318 17.675438,6.23045683 L20.1743076,7.39569884 Z M6.39817322,15.3029493 L3.05572738,13.7443412 L1.49711929,17.086787 C1.34540564,17.412138 0.958668342,17.5528989 0.633317362,17.4011852 C0.307966382,17.2494716 0.167205517,16.8627343 0.318919171,16.5373833 L2.15222913,12.6058374 C2.30394278,12.2804864 2.69068008,12.1397256 3.01603106,12.2914392 L6.94757696,14.1247492 C7.27292794,14.2764628 7.4136888,14.6632001 7.26197515,14.9885511 C7.11026149,15.3139021 6.7235242,15.4546629 6.39817322,15.3029493 Z" id="path-1"></path>
    </defs>
    <g id="Login-flow" stroke="none" stroke-width="1" fill="none" fill-rule="evenodd">
        <g id="activatie-family-step-12-new" transform="translate(-19.000000, -339.000000)">
            <g id="Group-4" transform="translate(15.000000, 134.000000)">
                <g id="Group-2" transform="translate(0.000000, 193.000000)">
                    <g id="Group-5-Copy" transform="translate(0.000000, 7.000000)">
                        <g id="Icons-/-32x32-/-event-fixed">
                            <g id="color" transform="translate(4.000000, 5.000000)">
                                <mask id="mask-2" fill="white">
                                    <use xlink:href="#path-1"></use>
                                </mask>
                                <use id="fixed" fill="#F56B87" fill-rule="nonzero" xlink:href="#path-1"></use>
                                <g id="Colors/cc-pink" mask="url(#mask-2)" fill="#F56B87">
                                    <g transform="translate(-4.000000, -5.000000)" id="Rectangle-5">
                                        <rect x="0" y="0" width="32" height="32"></rect>
                                    </g>
                                </g>
                            </g>
                        </g>
                    </g>
                </g>
            </g>
        </g>
    </g>
</svg>