<?xml version="1.0" encoding="UTF-8"?>
<svg width="32px" height="32px" viewBox="0 0 32 32" version="1.1" xmlns="http://www.w3.org/2000/svg" xmlns:xlink="http://www.w3.org/1999/xlink">
    <!-- Generator: sketchtool 55.1 (78136) - https://sketchapp.com -->
    <title>122EF56E-8E8C-4CDE-9186-6A62A36BA88E</title>
    <desc>Created with sketchtool.</desc>
    <g id="Icons" stroke="none" stroke-width="1" fill="none" fill-rule="evenodd">
        <g transform="translate(-166.000000, -65.000000)" fill="#303036" id="Group">
            <g transform="translate(40.000000, 65.000000)">
                <g id="Icons-/-32x32-/-calendar" transform="translate(126.000000, 0.000000)">
                    <path d="M13.15,6.35 L18.85,6.35 L18.85,5 C18.85,4.64101491 19.1410149,4.35 19.5,4.35 C19.8589851,4.35 20.15,4.64101491 20.15,5 L20.15,6.35 L25.5,6.35 C26.9635546,6.35 28.15,7.53644541 28.15,9 L28.15,24 C28.15,25.4635546 26.9635546,26.65 25.5,26.65 L6.5,26.65 C5.03644541,26.65 3.85,25.4635546 3.85,24 L3.85,9 C3.85,7.53644541 5.03644541,6.35 6.5,6.35 L11.85,6.35 L11.85,5 C11.85,4.64101491 12.1410149,4.35 12.5,4.35 C12.8589851,4.35 13.15,4.64101491 13.15,5 L13.15,6.35 Z M13.15,7.65 L13.15,9 C13.15,9.35898509 12.8589851,9.65 12.5,9.65 C12.1410149,9.65 11.85,9.35898509 11.85,9 L11.85,7.65 L6.5,7.65 C5.75441559,7.65 5.15,8.25441559 5.15,9 L5.15,24 C5.15,24.7455844 5.75441559,25.35 6.5,25.35 L25.5,25.35 C26.2455844,25.35 26.85,24.7455844 26.85,24 L26.85,9 C26.85,8.25441559 26.2455844,7.65 25.5,7.65 L20.15,7.65 L20.15,9 C20.15,9.35898509 19.8589851,9.65 19.5,9.65 C19.1410149,9.65 18.85,9.35898509 18.85,9 L18.85,7.65 L13.15,7.65 Z M9.10000002,12.35 L10.9,12.35 C11.5903559,12.35 12.15,12.9096441 12.15,13.6 L12.15,15.4 C12.15,16.0903559 11.5903559,16.65 10.9,16.65 L9.10000002,16.65 C8.40964407,16.65 7.85,16.0903559 7.85,15.4 L7.85,13.6 C7.85,12.9096441 8.40964407,12.35 9.10000002,12.35 Z M9.15,15.35 L10.85,15.35 L10.85,13.65 L9.15,13.65 L9.15,15.35 Z M9.10000002,18.35 L10.9,18.35 C11.5903559,18.35 12.15,18.9096441 12.15,19.6 L12.15,21.4 C12.15,22.0903559 11.5903559,22.65 10.9,22.65 L9.10000002,22.65 C8.40964407,22.65 7.85,22.0903559 7.85,21.4 L7.85,19.6 C7.85,18.9096441 8.40964407,18.35 9.10000002,18.35 Z M9.15,21.35 L10.85,21.35 L10.85,19.65 L9.15,19.65 L9.15,21.35 Z M15.1,12.35 L16.9,12.35 C17.5903559,12.35 18.15,12.9096441 18.15,13.6 L18.15,15.4 C18.15,16.0903559 17.5903559,16.65 16.9,16.65 L15.1,16.65 C14.4096441,16.65 13.85,16.0903559 13.85,15.4 L13.85,13.6 C13.85,12.9096441 14.4096441,12.35 15.1,12.35 Z M15.15,15.35 L16.85,15.35 L16.85,13.65 L15.15,13.65 L15.15,15.35 Z M15.1,18.35 L16.9,18.35 C17.5903559,18.35 18.15,18.9096441 18.15,19.6 L18.15,21.4 C18.15,22.0903559 17.5903559,22.65 16.9,22.65 L15.1,22.65 C14.4096441,22.65 13.85,22.0903559 13.85,21.4 L13.85,19.6 C13.85,18.9096441 14.4096441,18.35 15.1,18.35 Z M15.15,21.35 L16.85,21.35 L16.85,19.65 L15.15,19.65 L15.15,21.35 Z M21.1,12.35 L22.9,12.35 C23.5903559,12.35 24.15,12.9096441 24.15,13.6 L24.15,15.4 C24.15,16.0903559 23.5903559,16.65 22.9,16.65 L21.1,16.65 C20.4096441,16.65 19.85,16.0903559 19.85,15.4 L19.85,13.6 C19.85,12.9096441 20.4096441,12.35 21.1,12.35 Z M21.15,15.35 L22.85,15.35 L22.85,13.65 L21.15,13.65 L21.15,15.35 Z M21.1,18.35 L22.9,18.35 C23.5903559,18.35 24.15,18.9096441 24.15,19.6 L24.15,21.4 C24.15,22.0903559 23.5903559,22.65 22.9,22.65 L21.1,22.65 C20.4096441,22.65 19.85,22.0903559 19.85,21.4 L19.85,19.6 C19.85,18.9096441 20.4096441,18.35 21.1,18.35 Z M21.15,21.35 L22.85,21.35 L22.85,19.65 L21.15,19.65 L21.15,21.35 Z" id="icon"></path>
                </g>
            </g>
        </g>
    </g>
</svg>