<?xml version="1.0" encoding="UTF-8"?>
<svg width="32px" height="32px" viewBox="0 0 32 32" version="1.1" xmlns="http://www.w3.org/2000/svg" xmlns:xlink="http://www.w3.org/1999/xlink">
    <!-- Generator: sketchtool 55.1 (78136) - https://sketchapp.com -->
    <title>76D46882-B358-4A26-9A86-C6D4A7D34F9F</title>
    <desc>Created with sketchtool.</desc>
    <g id="Icons" stroke="none" stroke-width="1" fill="none" fill-rule="evenodd">
        <g transform="translate(-82.000000, -65.000000)" fill="#303036" id="Group">
            <g transform="translate(40.000000, 65.000000)">
                <g id="Icons-/-32x32-/-telephone-2" transform="translate(42.000000, 0.000000)">
                    <path d="M15.4376809,16.6312972 C16.5890404,17.7826567 17.5951687,18.5630118 18.4401892,18.9730123 C18.5100454,19.0069054 18.591684,19.0064187 18.6611311,18.9716951 L20.538805,18.0328581 C21.118588,17.7429666 21.8111197,17.7973036 22.3385957,18.1740721 L26.0471748,20.8230572 C26.7896099,21.353368 27.0000368,22.3650978 26.5306192,23.1474605 L25.3859235,25.0552721 C24.921577,25.8291829 24.107043,26.3259855 23.206421,26.3845996 C19.2968655,26.6390404 15.337416,24.733471 11.3364616,20.7325166 C7.33552163,16.7315766 5.42994715,12.772137 5.68435672,8.86258194 C5.74296934,7.96194832 6.23977736,7.1474031 7.01369804,6.68305069 L8.92151982,5.53835762 C9.70388032,5.06894133 10.7156101,5.27936822 11.245921,6.02180341 L13.894906,9.73038249 C14.2716745,10.2578584 14.3260115,10.9503901 14.0361126,11.530188 L13.0972713,13.4077666 C13.0625431,13.477223 13.0620559,13.5588723 13.0959528,13.6287382 C13.5059375,14.4737699 14.2862945,15.4799108 15.4376809,16.6312972 Z M11.7556379,12.7369314 L12.6944792,10.8593527 C12.7358923,10.7765266 12.7281299,10.6775935 12.6743058,10.6022398 L10.0253208,6.8936607 C9.94956207,6.78759853 9.80502924,6.75753754 9.69326345,6.82459701 L7.78544167,7.96929008 C7.43365644,8.18036122 7.20783262,8.55061231 7.18119055,8.95999073 C6.95847582,12.3824859 8.67557669,15.9503113 12.3971218,19.6718564 C16.1186789,23.3934135 19.6865101,25.1105083 23.1090044,24.8877662 C23.5183767,24.8611235 23.8886182,24.6353049 24.0996854,24.2835263 L25.2443811,22.3757147 C25.3114406,22.2639489 25.2813796,22.1194161 25.1753175,22.0436574 L21.4667384,19.3946723 C21.3913847,19.3408483 21.2924516,19.3330858 21.2096254,19.3744989 L19.3319515,20.3133359 C18.8458386,20.5563923 18.2743892,20.5597992 17.7854061,20.3225526 C16.7674834,19.8286607 15.6366386,18.9515753 14.3770208,17.6919574 C13.1173696,16.4323063 12.2402778,15.3014419 11.7464024,14.2835006 C11.5091621,13.7945175 11.5125718,13.2230636 11.7556379,12.7369314 Z" id="icon"></path>
                </g>
            </g>
        </g>
    </g>
</svg>