<svg height="28" viewBox="0 0 28 28" width="28" xmlns="http://www.w3.org/2000/svg" xmlns:xlink="http://www.w3.org/1999/xlink"><defs><path id="a" d="m19.0888158 11.025c-1.9813216 0-3.5875-1.60617845-3.5875-3.5875s1.6061784-3.58750002 3.5875-3.58750002c1.9813215 0 3.5875 1.60617847 3.5875 3.58750002s-1.6061785 3.5875-3.5875 3.5875zm0-1.05000002c1.4014225 0 2.5375-1.13607744 2.5375-2.53749998s-1.1360775-2.53749998-2.5375-2.53749998c-1.4014226 0-2.5375 1.13607744-2.5375 2.53749998s1.1360774 2.53749998 2.5375 2.53749998zm-1.0099307 10.24677732c-.2890863-.0223576-.5053125-.2748328-.4829549-.563919.0223577-.2890862.2748328-.5053125.5639191-.4829548 3.051293.235984 5.8151507-.5728337 5.8151507-1.6288509 0-2.6349796-2.136073-4.7710526-4.7710526-4.7710526-1.6779232 0-3.2048183.8726892-4.0676965 2.2762714-.1518515.2470058-.4751891.3241437-.7221949.1722923-.2470058-.1518515-.3241437-.4751891-.1722923-.7221949 1.0519944-1.7112037 2.9156537-2.7763688 4.9621837-2.7763688 3.2148786 0 5.8210526 2.606174 5.8210526 5.8210526 0 1.985718-3.316971 2.9563992-6.9461149 2.6757247zm-1.5275693 1.5304157c0 4.0149197-12.70131582 4.0149197-12.70131582 0 0-3.6014197 2.83972114-6.527193 6.35065792-6.527193 3.5109368 0 6.3506579 2.9257733 6.3506579 6.527193zm-1.05 0c0-3.0284196-2.3767507-5.477193-5.3006579-5.477193-2.92390725 0-5.30065788 2.4487734-5.30065788 5.477193 0 2.6149196 10.60131578 2.6149196 10.60131578 0zm-5.3006579-7.4620614c-2.22396798 0-4.02039476-1.850864-4.02039476-4.1263158 0-2.27545186 1.79642678-4.12631582 4.02039476-4.12631582 2.223968 0 4.0203948 1.85086396 4.0203948 4.12631582 0 2.2754518-1.7964268 4.1263158-4.0203948 4.1263158zm0-1.05c1.6369384 0 2.9703947-1.3738641 2.9703947-3.0763158 0-1.70245174-1.3334563-3.07631578-2.9703947-3.07631578-1.63693845 0-2.97039472 1.37386404-2.97039472 3.07631578 0 1.7024517 1.33345627 3.0763158 2.97039472 3.0763158z"/><mask id="b" fill="#fff"><use fill="none" xlink:href="#a"/></mask></defs><g fill="none" fill-rule="evenodd" transform=""><use fill="#979797" fill-rule="nonzero" xlink:href="#a"/><g fill="#97979a" mask="url(#b)"><path d="m0 0h28v28h-28z"/></g></g></svg>