<svg width="40" height="40" viewBox="0 0 40 40" xmlns="http://www.w3.org/2000/svg" xmlns:xlink="http://www.w3.org/1999/xlink">
  <title>
    icn-feature-first-aid-large
  </title>
  <defs>
    <path d="M15.056 10.345V9.31a2.541 2.541 0 0 1 2.555-2.534h4.778a2.541 2.541 0 0 1 2.555 2.534v1.034h6.417c1.716 0 3.139 1.393 3.139 3.09v14.07c0 1.696-1.423 3.09-3.139 3.09H8.64c-1.716 0-3.139-1.394-3.139-3.09v-14.07c0-1.697 1.423-3.09 3.139-3.09h6.417zm1.5 0h6.888V9.31c0-.572-.467-1.034-1.055-1.034H17.61c-.588 0-1.055.462-1.055 1.034v1.034zM33 13.435c0-.861-.744-1.59-1.639-1.59H8.64c-.895 0-1.639.729-1.639 1.59v14.07c0 .86.744 1.59 1.639 1.59H31.36c.895 0 1.639-.73 1.639-1.59v-14.07zM25.625 18a.75.75 0 0 1 .75.75v3.75a.75.75 0 0 1-.75.75h-3v3a.75.75 0 0 1-.75.75h-3.75a.75.75 0 0 1-.75-.75v-3h-3a.75.75 0 0 1-.75-.75v-3.75a.75.75 0 0 1 .75-.75h3v-3a.75.75 0 0 1 .75-.75h3.75a.75.75 0 0 1 .75.75v3h3zm-3.75 1.5a.75.75 0 0 1-.75-.75v-3h-2.25v3a.75.75 0 0 1-.75.75h-3v2.25h3a.75.75 0 0 1 .75.75v3h2.25v-3a.75.75 0 0 1 .75-.75h3V19.5h-3z" id="a"/>
  </defs>
  <g fill="none" fill-rule="evenodd">
    <g>
      <mask id="b" fill="#fff">
        <use xlink:href="#a"/>
      </mask>
      <use fill="#303036" fill-rule="nonzero" xlink:href="#a"/>
      <g mask="url(#b)" fill="#303036">
        <path d="M0 0h40v40H0z"/>
      </g>
    </g>
  </g>
</svg>
