<svg height="32" viewBox="0 0 32 32" width="32" xmlns="http://www.w3.org/2000/svg" xmlns:xlink="http://www.w3.org/1999/xlink"><defs><path id="a" d="m17.3990478 6.70340453c.8685898 1.2578454 1.6534978 2.0147768 2.3231019 2.2735573.3090913.11945385.4628228.46685832.3433689.7759496-.1194538.30909127-.4668583.46282277-.7759496.34336897-1.0902268-.42133771-2.2032978-1.58811895-3.3919666-3.49573418-1.213715.01295411-2.3722656.25593371-3.4341212.68740793.7971524 2.01032966 2.495688 3.58011505 5.134513 4.71559105.3043875.1309768.4449647.4839092.3139879.7882967-.1309767.3043874-.4839091.4449646-.7882966.3139879-2.8816996-1.239984-4.808576-3.0067672-5.7431386-5.29434133-2.8540259 1.61353002-4.7805469 4.67603923-4.7805469 8.18851153 0 5.1914766 4.2085234 9.4 9.4 9.4s9.4-4.2085234 9.4-9.4c0-4.7160583-3.4730118-8.62095124-8.0009522-9.29659547zm-1.3612138-1.30333844c.1265714-.03965473.2606643-.03525172.3816367.00808172 4.7756963.1858471 8.7404182 3.53123584 9.8625033 8.00450379 1.5799392.142456 2.818026 1.4703169 2.818026 3.0873484 0 1.7120827-1.3879173 3.1-3.1 3.1-.0089688 0-.0178917-.0001968-.0267645-.0005863-1.4736486 4.0824586-5.3826594 7.0005863-9.9732355 7.0005863s-8.49958691-2.9181277-9.97323554-7.0005863c-.00887281.0003895-.01779565.0005863-.02676446.0005863-1.71208272 0-3.1-1.3879173-3.1-3.1 0-1.6170315 1.23808675-2.9448924 2.81802595-3.0873484 1.15477991-4.60360776 5.32026455-8.0126516 10.28197405-8.0126516.0126165 0 .0252279.00002204.037834.00006609zm-10.55536736 9.27127091c-.79781515.2253431-1.38246664.9587267-1.38246664 1.828663 0 .9354304.67599759 1.7129731 1.56612601 1.8707614-.17414587-.7622278-.26612601-1.555753-.26612601-2.3707614 0-.4499873.02803951-.8934255.08246664-1.328663zm21.03506676 0c.0544271.4352375.0824666.8786757.0824666 1.328663 0 .8150084-.0919801 1.6085336-.266126 2.3707614.8901284-.1577883 1.566126-.935331 1.566126-1.8707614 0-.8699363-.5846515-1.6033199-1.3824666-1.828663zm-11.0175334 4.428663c-.3313708 0-.6-.2686292-.6-.6s.2686292-.6.6-.6h1c.3313708 0 .6.2686292.6.6s-.2686292.6-.6.6zm-1.8991685 3.347956c-.2473992-.2204547-.2692421-.5997252-.0487875-.8471245.2204547-.2473992.5997252-.2692421.8471245-.0487875.4523821.4031126 1.0343237.6291846 1.6530007.6291846.5803132 0 1.1285466-.1987232 1.5688394-.5574608.2568958-.2093112.6348313-.1707362.8441425.0861597.2093111.2568958.1707361.6348313-.0861597.8441424-.6524842.5316249-1.4677966.8271587-2.3268222.8271587-.9159487 0-1.7812224-.3361405-2.4513377-.9332726zm-3-6c-.2473992-.2204547-.2692421-.5997252-.0487875-.8471245.2204547-.2473992.5997252-.2692421.8471245-.0487875.3120699.278082.7131096.4338775 1.1399584.4338775.4003959 0 .778186-.1369411 1.0818817-.3843834.2568958-.2093112.6348313-.1707362.8441425.0861596.2093111.2568959.1707361.6348313-.0861597.8441425-.515887.4203296-1.1607563.6540813-1.8398645.6540813-.7241205 0-1.4084922-.265864-1.9382954-.7379655zm7 0c-.2473992-.2204547-.2692421-.5997252-.0487875-.8471245.2204547-.2473992.5997252-.2692421.8471245-.0487875.3120699.278082.7131096.4338775 1.1399584.4338775.4003959 0 .778186-.1369411 1.0818817-.3843834.2568958-.2093112.6348313-.1707362.8441425.0861596.2093111.2568959.1707361.6348313-.0861597.8441425-.515887.4203296-1.1607563.6540813-1.8398645.6540813-.7241205 0-1.4084922-.265864-1.9382954-.7379655z"/><mask id="b" fill="#fff"><use fill="none" xlink:href="#a"/></mask></defs><g fill="none" fill-rule="evenodd" transform=""><use fill="#f56b87" fill-rule="nonzero" xlink:href="#a"/><g fill="#303036" mask="url(#b)"><path d="m0 0h32v32h-32z"/></g></g></svg>