<svg height="28" viewBox="0 0 28 28" width="28" xmlns="http://www.w3.org/2000/svg" xmlns:xlink="http://www.w3.org/1999/xlink"><defs><path id="a" d="m13.9125 7.82076446c0-3.30348594-2.70211-5.98326446-6.0375-5.98326446s-6.0375 2.67977852-6.0375 5.98326446c0 2.17795796 2.01389723 6.48098354 6.0375 12.80251394 4.0236028-6.3215304 6.0375-10.62455598 6.0375-12.80251394zm-6.47877717 14.06025474c-4.43236845-6.8766119-6.64622283-11.5238765-6.64622283-14.06025474 0-3.88534447 3.17415266-7.03326446 7.0875-7.03326446 3.9133473 0 7.0875 3.14791999 7.0875 7.03326446 0 2.53637824-2.2138544 7.18364284-6.64622283 14.06025474-.20674957.3207623-.67580477.3207623-.88255434 0zm.44127717-10.8560192c-1.73969696 0-3.15-1.41030304-3.15-3.15s1.41030304-3.15 3.15-3.15 3.15 1.41030304 3.15 3.15-1.41030304 3.15-3.15 3.15zm0-1.05c1.15979797 0 2.1-.94020203 2.1-2.1s-.94020203-2.1-2.1-2.1-2.1.94020203-2.1 2.1.94020203 2.1 2.1 2.1z"/><mask id="b" fill="#fff"><use fill="none" xlink:href="#a"/></mask></defs><g fill="none" fill-rule="evenodd" transform="translate(6.125 2.625)"><use fill="#303036" fill-rule="nonzero" xlink:href="#a"/><g fill="#97979a" mask="url(#b)"><path d="m0 0h30v29h-30z" transform="translate(-7 -3)"/></g></g></svg>