<svg xmlns="http://www.w3.org/2000/svg" width="32" height="32" viewBox="0 0 32 32"><path fill="#303036" fill-rule="evenodd" d="M25.985534 25.046194l1.944544 1.944544c.292893.292893.767766.292893 1.06066 0 .292893-.292894.292893-.767767 0-1.06066l-1.944544-1.944544 1.944544-1.944544c.292893-.292893.292893-.767767 0-1.06066-.292894-.292893-.767767-.292893-1.06066 0l-1.944544 1.944544-1.944544-1.944544c-.292893-.292893-.767767-.292893-1.06066 0-.292893.292893-.292893.767767 0 1.06066l1.944544 1.944544-1.944544 1.944544c-.292893.292893-.292893.767766 0 1.06066.292893.292893.767767.292893 1.06066 0l1.944544-1.944544zM28.15 16.7h-1.3V9c0-.745584-.604416-1.35-1.35-1.35h-5.35V9c0 .358985-.291015.65-.65.65s-.65-.291015-.65-.65V7.65h-5.7V9c0 .358985-.291015.65-.65.65s-.65-.291015-.65-.65V7.65H6.5c-.745584 0-1.35.604416-1.35 1.35v15c0 .745584.604416 1.35 1.35 1.35H18v1.3H6.5c-1.463555 0-2.65-1.186445-2.65-2.65V9c0-1.463555 1.186445-2.65 2.65-2.65h5.35V5c0-.358985.291015-.65.65-.65s.65.291015.65.65v1.35h5.7V5c0-.358985.291015-.65.65-.65s.65.291015.65.65v1.35h5.35c1.463555 0 2.65 1.186445 2.65 2.65v7.7zM18 19.005777v2.988446c-.211412.390533-.62473.655777-1.1.655777h-1.8c-.690356 0-1.25-.559644-1.25-1.25v-1.8c0-.690356.559644-1.25 1.25-1.25h1.8c.47527 0 .888588.265244 1.1.655777zM9.1 12.35h1.8c.690356 0 1.25.559644 1.25 1.25v1.8c0 .690356-.559644 1.25-1.25 1.25H9.1c-.690356 0-1.25-.559644-1.25-1.25v-1.8c0-.690356.559644-1.25 1.25-1.25zm.05 3h1.7v-1.7h-1.7v1.7zm-.05 3h1.8c.690356 0 1.25.559644 1.25 1.25v1.8c0 .690356-.559644 1.25-1.25 1.25H9.1c-.690356 0-1.25-.559644-1.25-1.25v-1.8c0-.690356.559644-1.25 1.25-1.25zm.05 3h1.7v-1.7h-1.7v1.7zm5.95-9h1.8c.690356 0 1.25.559644 1.25 1.25v1.8c0 .690356-.559644 1.25-1.25 1.25h-1.8c-.690356 0-1.25-.559644-1.25-1.25v-1.8c0-.690356.559644-1.25 1.25-1.25zm.05 3h1.7v-1.7h-1.7v1.7zm0 6h1.7v-1.7h-1.7v1.7zm5.95-9h1.8c.690356 0 1.25.559644 1.25 1.25v1.8c0 .690356-.559644 1.25-1.25 1.25h-1.8c-.690356 0-1.25-.559644-1.25-1.25v-1.8c0-.690356.559644-1.25 1.25-1.25zm.05 3h1.7v-1.7h-1.7v1.7zM26 18c3.313709 0 6 2.686291 6 6s-2.686291 6-6 6-6-2.686291-6-6 2.686291-6 6-6z"/></svg>