<svg height="28" viewBox="0 0 28 28" width="28" xmlns="http://www.w3.org/2000/svg" xmlns:xlink="http://www.w3.org/1999/xlink"><defs><path id="a" d="m14 19.3375c-2.9478199 0-5.3375-2.3896801-5.3375-5.3375s2.3896801-5.3375 5.3375-5.3375 5.3375 2.3896801 5.3375 5.3375-2.3896801 5.3375-5.3375 5.3375zm0-1.05c2.3679209 0 4.2875-1.9195791 4.2875-4.2875s-1.9195791-4.2875-4.2875-4.2875-4.2875 1.9195791-4.2875 4.2875 1.9195791 4.2875 4.2875 4.2875zm-.525-14.35c0-.28994949.2350505-.525.525-.525s.525.23505051.525.525v2.625c0 .28994949-.2350505.525-.525.525s-.525-.23505051-.525-.525zm7.2690309 2.57600695c.2050253-.20502525.5374369-.20502525.7424621 0 .2050253.20502526.2050253.53743687 0 .74246212l-1.8561553 1.85615531c-.2050252.20502525-.5374368.20502525-.7424621 0-.2050252-.20502526-.2050252-.53743687 0-.74246213zm3.3184691 6.96149305c.2899495 0 .525.2350505.525.525s-.2350505.525-.525.525h-2.625c-.2899495 0-.525-.2350505-.525-.525s.2350505-.525.525-.525zm-2.576007 7.2690309c.2050253.2050253.2050253.5374369 0 .7424621-.2050252.2050253-.5374368.2050253-.7424621 0l-1.8561553-1.8561553c-.2050252-.2050252-.2050252-.5374368 0-.7424621.2050253-.2050252.5374369-.2050252.7424621 0zm-6.961493 3.3184691c0 .2899495-.2350505.525-.525.525s-.525-.2350505-.525-.525v-2.625c0-.2899495.2350505-.525.525-.525s.525.2350505.525.525zm-7.26903093-2.576007c-.20502525.2050253-.53743686.2050253-.74246212 0-.20502525-.2050252-.20502525-.5374368 0-.7424621l1.8561553-1.8561553c.20502526-.2050252.53743687-.2050252.74246213 0 .20502525.2050253.20502525.5374369 0 .7424621zm-3.31846907-6.961493c-.28994949 0-.525-.2350505-.525-.525s.23505051-.525.525-.525h2.625c.28994949 0 .525.2350505.525.525s-.23505051.525-.525.525zm2.57600695-7.26903093c-.20502525-.20502525-.20502525-.53743686 0-.74246212.20502526-.20502525.53743687-.20502525.74246212 0l1.85615531 1.8561553c.20502525.20502526.20502525.53743687 0 .74246213-.20502526.20502525-.53743687.20502525-.74246213 0z"/><mask id="b" fill="#fff"><use fill="none" xlink:href="#a"/></mask></defs><g fill="none" fill-rule="evenodd" transform=""><use fill="#303036" fill-rule="nonzero" xlink:href="#a"/><g fill="#97979a" mask="url(#b)"><path d="m0 0h28v28h-28z"/></g></g></svg>