<svg width="32" height="32" viewBox="0 0 32 32" xmlns="http://www.w3.org/2000/svg" xmlns:xlink="http://www.w3.org/1999/xlink">
  <title>
    icn-feature-location
  </title>
  <defs>
    <path d="M15.9 8.938C15.9 5.163 12.812 2.1 9 2.1c-3.812 0-6.9 3.063-6.9 6.838 0 2.49 2.302 7.407 6.9 14.631 4.598-7.224 6.9-12.142 6.9-14.631zM8.496 25.007C3.43 17.147.9 11.837.9 8.938.9 4.498 4.528.9 9 .9c4.472 0 8.1 3.598 8.1 8.038 0 2.899-2.53 8.21-7.596 16.069a.6.6 0 0 1-1.008 0zM9 12.6a3.6 3.6 0 1 1 0-7.2 3.6 3.6 0 0 1 0 7.2zm0-1.2a2.4 2.4 0 1 0 0-4.8 2.4 2.4 0 0 0 0 4.8z" id="a"/>
  </defs>
  <g fill="none" fill-rule="evenodd">
    <g transform="translate(7 3)">
      <mask id="b" fill="#fff">
        <use xlink:href="#a"/>
      </mask>
      <use fill="#303036" fill-rule="nonzero" xlink:href="#a"/>
      <g mask="url(#b)" fill="#303036">
        <path d="M-7-3h32v32H-7z"/>
      </g>
    </g>
  </g>
</svg>
