<?xml version="1.0" encoding="UTF-8"?>
<svg width="28px" height="28px" viewBox="0 0 28 28" version="1.1" xmlns="http://www.w3.org/2000/svg" xmlns:xlink="http://www.w3.org/1999/xlink">
    <!-- Generator: sketchtool 49.3 (51167) - http://www.bohemiancoding.com/sketch -->
    <title>9ADF33DD-22AE-4618-BE9A-6F5B1849DC51</title>
    <desc>Created with sketchtool.</desc>
    <defs>
        <path d="M13.6850254,11.9585796 C15.5116956,13.1791738 16.540485,14.0282793 16.890274,14.6476655 C17.2078558,15.2100211 17.988097,16.6246715 19.2345092,18.8978856 C19.5000347,19.3821527 19.3227097,19.9899797 18.8384426,20.2555053 C18.3541755,20.5210308 17.7463484,20.3437058 17.4808229,19.8594387 C16.2390649,17.5947131 15.4605496,16.1831916 15.1487885,15.6311431 C14.9692646,15.3132525 13.7660247,14.3857948 11.715317,13.0589528 C10.6572205,14.4095147 9.68015796,15.3151191 8.75076794,15.7786602 C7.45987192,16.4225056 5.68550875,16.2573977 3.39495597,15.3956738 C2.8780412,15.2012064 2.61664594,14.6245172 2.81111332,14.1076025 C3.0055807,13.5906877 3.58226988,13.3292924 4.09918466,13.5237598 C5.91865791,14.2082599 7.18254345,14.3258668 7.85811878,13.9889179 C8.60702996,13.6153921 9.56415583,12.6551002 10.6752457,11.112749 L13.4333893,6.70616313 C12.7282895,6.4190607 12.058093,6.17358454 11.3500946,5.9478126 C10.1667133,5.57044691 9.10570102,6.15751 8.01094679,7.99756463 C7.72856041,8.47219752 7.11487504,8.62804411 6.64024215,8.34565774 C6.16560927,8.06327136 6.00976268,7.44958599 6.29214905,6.9749531 C7.81576354,4.41407339 9.75632523,3.34035144 11.9577231,4.04235003 C12.8906404,4.33984582 13.7597283,4.66823756 14.7034283,5.06827843 C15.2583696,5.30352187 17.0115364,6.08952921 17.3158944,6.22047151 C17.6065998,6.34554013 17.8712787,6.45519093 18.1267754,6.55580249 C18.8659946,6.84689825 19.9702298,6.29487698 21.4389056,4.61300862 C21.802173,4.1970095 22.4338933,4.15426195 22.8498924,4.51752931 C23.2658915,4.88079666 23.3086391,5.51251696 22.9453717,5.92851609 C20.9825486,8.17626197 19.1322731,9.10123837 17.39397,8.41671525 C17.1177391,8.3079388 16.8342098,8.19047866 16.5254907,8.05766012 C16.4649315,8.03160606 16.3549712,7.98319928 16.212691,7.92022004 L13.6850254,11.9585796 Z M8.90853945,1 C9.18468182,1 9.40853945,1.22385763 9.40853945,1.5 C9.40853945,1.77614237 9.18468182,2 8.90853945,2 L4.90853945,2 C4.63239707,2 4.40853945,1.77614237 4.40853945,1.5 C4.40853945,1.22385763 4.63239707,1 4.90853945,1 L8.90853945,1 Z M4.52131814,5 C4.79746052,5 5.02131814,5.22385763 5.02131814,5.5 C5.02131814,5.77614237 4.79746052,6 4.52131814,6 L0.521318144,6 C0.245175769,6 0.0213181442,5.77614237 0.0213181442,5.5 C0.0213181442,5.22385763 0.245175769,5 0.521318144,5 L4.52131814,5 Z M5.6319528,10 C5.90809518,10 6.1319528,10.2238576 6.1319528,10.5 C6.1319528,10.7761424 5.90809518,11 5.6319528,11 L1.6319528,11 C1.35581043,11 1.1319528,10.7761424 1.1319528,10.5 C1.1319528,10.2238576 1.35581043,10 1.6319528,10 L5.6319528,10 Z M17.3,4.5999999 C16.0297451,4.5999999 15,3.57025485 15,2.29999995 C15,1.02974505 16.0297451,0 17.3,0 C18.5702549,0 19.5999999,1.02974505 19.5999999,2.29999995 C19.5999999,3.57025485 18.5702549,4.5999999 17.3,4.5999999 Z" id="path-1"></path>
    </defs>
    <g id="Assets" stroke="none" stroke-width="1" fill="none" fill-rule="evenodd">
        <g id="cc-assets" transform="translate(-813.000000, -593.000000)">
            <g id="Icons-general" transform="translate(30.000000, 453.000000)">
                <g id="Icons/event-standby" transform="translate(783.000000, 140.000000)">
                    <g id="color" transform="translate(2.000000, 4.000000)">
                        <mask id="mask-2" fill="white">
                            <use xlink:href="#path-1"></use>
                        </mask>
                        <use id="Mask" fill="#F56B87" fill-rule="nonzero" xlink:href="#path-1"></use>
                        <g id="Colors/cc-pink" mask="url(#mask-2)" fill="#F56B87">
                            <g transform="translate(-2.000000, -4.000000)" id="Rectangle-5">
                                <rect x="0" y="0" width="28" height="28"></rect>
                            </g>
                        </g>
                    </g>
                </g>
                <g id="slices" transform="translate(0.000000, 34.000000)"></g>
            </g>
        </g>
    </g>
</svg>