<svg width="32" height="32" viewBox="0 0 32 32" xmlns="http://www.w3.org/2000/svg" xmlns:xlink="http://www.w3.org/1999/xlink">
  <title>
    icn-feature-insurance
  </title>
  <defs>
    <path d="M8 5.4h16a.6.6 0 0 1 .6.6v8c0 4.476-2.776 8.64-8.255 12.49a.6.6 0 0 1-.706-.01C10.17 22.364 7.4 18.21 7.4 14V6a.6.6 0 0 1 .6-.6zm.6 1.2V14c0 3.68 2.449 7.437 7.412 11.255C20.96 21.685 23.4 17.935 23.4 14V6.6H8.6zm11.976 4.476a.6.6 0 1 1 .848.848l-5.998 6a.6.6 0 0 1-.848 0l-3.002-3.003a.6.6 0 0 1 .848-.848l2.578 2.578 5.574-5.575z" id="a"/>
  </defs>
  <g fill="none" fill-rule="evenodd">
    <mask id="b" fill="#fff">
      <use xlink:href="#a"/>
    </mask>
    <use fill="#303036" fill-rule="nonzero" xlink:href="#a"/>
    <g mask="url(#b)" fill="#303036">
      <path d="M0 0h32v32H0z"/>
    </g>
    <g stroke="#303036" stroke-linecap="round" stroke-linejoin="round" stroke-width="1.2">
      <path d="M8 6h16v8c0 4.252-2.667 8.252-8 12-5.333-4.012-8-8.012-8-12V6z"/>
      <path d="M12 14.497l3.002 3.003 5.998-6"/>
    </g>
  </g>
</svg>
