<svg height="32" viewBox="0 0 32 32" width="32" xmlns="http://www.w3.org/2000/svg" xmlns:xlink="http://www.w3.org/1999/xlink"><defs><path id="a" d="m24.6607365 7.07141078c.9330369 0 1.6964306.76339376 1.6964306 1.69643059v12.89287253c0 .9330368-.7633937 1.6964306-1.6964306 1.6964306h-16.96430591c-.93303682 0-1.69643059-.7633938-1.69643059-1.6964306v-12.89287253c0-.93303683.76339377-1.69643059 1.69643059-1.69643059zm-16.96430591 1.35714447c-.18024575 0-.33928612.15904037-.33928612.33928612v2.37500283h17.64287813v-2.37500283c0-.18024575-.1590403-.33928612-.3392861-.33928612zm16.96430591 13.57144475c.1802458 0 .3392861-.1590404.3392861-.3392861v-6.4464363h-17.64287813v6.4464363c0 .1802457.15904037.3392861.33928612.3392861zm-15.94644755-1.3571445v-1.3571444h2.71428895v1.3571444zm4.07143345 0v-1.3571444h4.0714334v1.3571444z"/><mask id="b" fill="#fff"><use fill="none" xlink:href="#a"/></mask></defs><g fill="#303036" fill-rule="evenodd" transform=""><use xlink:href="#a"/><g mask="url(#b)"><path d="m0 0h32v32h-32z"/></g></g></svg>