<svg height="40" viewBox="0 0 40 40" width="40" xmlns="http://www.w3.org/2000/svg" xmlns:xlink="http://www.w3.org/1999/xlink"><defs><path id="a" d="m10 6.75h20c.4142136 0 .75.33578644.75.75v10c0 5.5951377-3.4705746 10.8009996-10.3187678 15.6136276-.2660393.1869614-.6222489.1811957-.882098-.0142779-6.8365371-5.1428418-10.2991342-10.3367375-10.2991342-15.5993497v-10c0-.41421356.33578644-.75.75-.75zm.75 1.5v9.25c0 4.6007161 3.0606473 9.2958358 9.2647133 14.0688687 6.1857367-4.4625071 9.2352867-9.1509004 9.2352867-14.0688687v-9.25zm14.9695771 5.5947627c.292842-.2929445.7677157-.2930276 1.0606602-.0001856s.2930276.7677157.0001856 1.0606602l-7.4973758 7.5c-.2929144.293017-.7679313.293017-1.0608458 0l-3.7526242-3.7539377c-.292842-.2929445-.2927589-.7678182.0001856-1.0606602s.7678182-.2927589 1.0606602.0001856l3.2222013 3.2233291z"/><mask id="b" fill="#fff"><use fill="none" xlink:href="#a"/></mask></defs><g fill="none" fill-rule="evenodd"><g fill="#303036" transform=""><use fill-rule="nonzero" xlink:href="#a"/><g mask="url(#b)"><path d="m0 0h40v40h-40z"/></g></g><g stroke="#303036" stroke-linecap="round" stroke-linejoin="round" stroke-width="1.2" transform="translate(10 7.5)"><path d="m0 0h20v10c0 5.3149414-3.3333333 10.3149414-10 15-6.66666667-5.0150553-10-10.0150553-10-15 0-4.98494466 0-8.31827799 0-10z"/><path d="m5 10.6210623 3.75262421 3.7539377 7.49737579-7.5"/></g></g></svg>