<svg width="32" height="32" viewBox="0 0 32 32" xmlns="http://www.w3.org/2000/svg" xmlns:xlink="http://www.w3.org/1999/xlink">
  <title>
    icn-feature-day
  </title>
  <defs>
    <path d="M16 22.1a6.1 6.1 0 1 1 0-12.2 6.1 6.1 0 0 1 0 12.2zm0-1.2a4.9 4.9 0 1 0 0-9.8 4.9 4.9 0 0 0 0 9.8zm-.6-16.4a.6.6 0 0 1 1.2 0v3a.6.6 0 0 1-1.2 0v-3zm8.307 2.944a.6.6 0 0 1 .849.849l-2.121 2.12a.6.6 0 1 1-.849-.848l2.121-2.121zM27.5 15.4a.6.6 0 0 1 0 1.2h-3a.6.6 0 0 1 0-1.2h3zm-2.944 8.307a.6.6 0 0 1-.849.849l-2.12-2.121a.6.6 0 1 1 .848-.849l2.121 2.121zM16.6 27.5a.6.6 0 0 1-1.2 0v-3a.6.6 0 0 1 1.2 0v3zm-8.307-2.944a.6.6 0 0 1-.849-.849l2.121-2.12a.6.6 0 1 1 .849.848l-2.121 2.121zM4.5 16.6a.6.6 0 0 1 0-1.2h3a.6.6 0 0 1 0 1.2h-3zm2.944-8.307a.6.6 0 1 1 .849-.849l2.12 2.121a.6.6 0 1 1-.848.849L7.444 8.293z" id="a"/>
  </defs>
  <g fill="none" fill-rule="evenodd">
    <g>
      <mask id="b" fill="#fff">
        <use xlink:href="#a"/>
      </mask>
      <use fill="#303036" fill-rule="nonzero" xlink:href="#a"/>
      <g mask="url(#b)" fill="#303036">
        <path d="M0 0h32v32H0z"/>
      </g>
    </g>
  </g>
</svg>
