<?xml version="1.0" encoding="UTF-8"?>
<svg width="22px" height="26px" viewBox="0 0 22 26" version="1.1" xmlns="http://www.w3.org/2000/svg" xmlns:xlink="http://www.w3.org/1999/xlink">
    <!-- Generator: Sketch 54.1 (76490) - https://sketchapp.com -->
    <title>icons copy</title>
    <desc>Created with Sketch.</desc>
    <defs>
        <path d="M10.15,20.15 L10.15,23.85 L21.85,23.85 L21.85,20.15 L10.15,20.15 Z M10.15,18.85 L21.85,18.85 L21.85,17.15 L10.15,17.15 L10.15,18.85 Z M25.65,11.4884654 C26.291559,12.8583766 26.65,14.3873291 26.65,16 L26.65,26 C26.65,27.4635546 25.4635546,28.65 24,28.65 L8,28.65 C6.53644541,28.65 5.35,27.4635546 5.35,26 L5.35,16 C5.35,14.3873291 5.70844099,12.8583766 6.35,11.4884654 L6.35,5 C6.35,4.08873016 7.08873016,3.35 8,3.35 L11,3.35 C11.9112698,3.35 12.65,4.08873016 12.65,5 L12.65,5.88755782 C13.7033807,5.53878266 14.8296441,5.35 16,5.35 C17.1703559,5.35 18.2966193,5.53878266 19.35,5.88755782 L19.35,5 C19.35,4.08873016 20.0887302,3.35 21,3.35 L24,3.35 C24.9112698,3.35 25.65,4.08873016 25.65,5 L25.65,11.4884654 Z M24.35,9.38871837 L24.35,5 C24.35,4.80670034 24.1932997,4.65 24,4.65 L21,4.65 C20.8067003,4.65 20.65,4.80670034 20.65,5 L20.65,6.41607228 C22.0967261,7.11930915 23.3603456,8.14047732 24.35,9.38871837 Z M24.4690876,12.0328162 C24.4280705,11.974867 24.3963023,11.9099078 24.3759329,11.8400885 C22.8451275,8.76376721 19.6694121,6.65 16,6.65 C12.3305879,6.65 9.15487255,8.76376721 7.62406709,11.8400885 C7.60369766,11.9099078 7.57192948,11.974867 7.53091243,12.0328162 C6.96579702,13.2371334 6.65,14.5816875 6.65,16 L6.65,26 C6.65,26.7455844 7.25441559,27.35 8,27.35 L24,27.35 C24.7455844,27.35 25.35,26.7455844 25.35,26 L25.35,16 C25.35,14.5816875 25.034203,13.2371334 24.4690876,12.0328162 Z M7.65,9.38871837 C8.63965439,8.14047732 9.90327386,7.11930915 11.35,6.41607228 L11.35,5 C11.35,4.80670034 11.1932997,4.65 11,4.65 L8,4.65 C7.80670034,4.65 7.65,4.80670034 7.65,5 L7.65,9.38871837 Z M23.15,15.85 L23.15,24 C23.15,24.6351275 22.6351275,25.15 22,25.15 L10,25.15 C9.36487254,25.15 8.85,24.6351275 8.85,24 L8.85,15.85 L23.15,15.85 Z" id="path-1"></path>
    </defs>
    <g id="Login-flow" stroke="none" stroke-width="1" fill="none" fill-rule="evenodd">
        <g id="activatie-family-step-12-new" transform="translate(-20.000000, -442.000000)">
            <g id="Group-4" transform="translate(15.000000, 134.000000)">
                <g id="Group" transform="translate(0.000000, 296.000000)">
                    <g id="Group-5-Copy-2" transform="translate(0.000000, 9.000000)">
                        <g id="Icons-/-32x32-/-after-school">
                            <g id="Group-Copy-2">
                                <mask id="mask-2" fill="white">
                                    <use xlink:href="#path-1"></use>
                                </mask>
                                <use id="backpack" fill="#F56B87" fill-rule="nonzero" xlink:href="#path-1"></use>
                                <g id="Colors/cc-pink" mask="url(#mask-2)" fill="#F56B87">
                                    <rect id="Rectangle-5" x="0" y="0" width="32" height="32"></rect>
                                </g>
                            </g>
                        </g>
                    </g>
                </g>
            </g>
        </g>
    </g>
</svg>