<?xml version="1.0" encoding="UTF-8"?>
<svg width="24px" height="23px" viewBox="0 0 24 23" version="1.1" xmlns="http://www.w3.org/2000/svg" xmlns:xlink="http://www.w3.org/1999/xlink">
    <!-- Generator: Sketch 54.1 (76490) - https://sketchapp.com -->
    <title>icons</title>
    <desc>Created with Sketch.</desc>
    <defs>
        <path d="M25.1713921,16.15 L22.7544291,13.8337438 C22.4952461,13.5853601 22.4864915,13.173896 22.7348753,12.914713 C22.983259,12.65553 23.3947231,12.6467754 23.6539061,12.8951591 L27.2539061,16.3451591 C27.5209214,16.6010489 27.5209214,17.0278541 27.2539061,17.2837438 L23.6539061,20.7337438 C23.3947231,20.9821275 22.983259,20.973373 22.7348753,20.71419 C22.4864915,20.455007 22.4952461,20.0435429 22.7544291,19.7951591 L25.2015517,17.45 L21.9959307,17.45 C19.0403898,17.45 16.65,19.7899704 16.65,22.6694612 L16.65,26.4835443 C16.65,26.8425294 16.3589851,27.1335443 16,27.1335443 C15.6410149,27.1335443 15.35,26.8425294 15.35,26.4835443 L15.35,22.6694612 C15.35,19.0657242 18.3285494,16.15 21.9959307,16.15 L25.1713921,16.15 Z M6.83694217,16.15 L10.1553033,16.15 C11.723581,16.15 13.170859,16.5425123 14.2786506,17.4503142 C14.5563144,17.6778512 14.5969501,18.0873975 14.369413,18.3650612 C14.1418759,18.642725 13.7323297,18.6833607 13.4546659,18.4558236 C12.6122068,17.7654537 11.4490605,17.45 10.1553033,17.45 L6.80678257,17.45 L9.25390515,19.7951591 C9.51308815,20.0435429 9.52184271,20.455007 9.273459,20.71419 C9.02507529,20.973373 8.61361118,20.9821275 8.35442818,20.7337438 L4.75442818,17.2837438 C4.48741283,17.0278541 4.48741283,16.6010489 4.75442818,16.3451591 L8.35442818,12.8951591 C8.61361118,12.6467754 9.02507529,12.65553 9.273459,12.914713 C9.52184271,13.173896 9.51308815,13.5853601 9.25390515,13.8337438 L6.83694217,16.15 Z M16.65,7.62779841 L16.65,15.1367089 C16.65,15.4956939 16.3589851,15.7867089 16,15.7867089 C15.6410149,15.7867089 15.35,15.4956939 15.35,15.1367089 L15.35,7.63649503 L13.0234595,10.0641895 C12.7750758,10.3233725 12.3636116,10.3321271 12.1044286,10.0837433 C11.8452456,9.83535964 11.8364911,9.42389553 12.0848748,9.16471253 L15.5348748,5.56471253 C15.7907645,5.29769718 16.2175697,5.29769718 16.4734595,5.56471253 L19.9234595,9.16471253 C20.1718432,9.42389553 20.1630886,9.83535964 19.9039056,10.0837433 C19.6447226,10.3321271 19.2332585,10.3233725 18.9848748,10.0641895 L16.65,7.62779841 Z" id="path-1"></path>
    </defs>
    <g id="Login-flow" stroke="none" stroke-width="1" fill="none" fill-rule="evenodd">
        <g id="activatie-family-step-12-new" transform="translate(-19.000000, -139.000000)">
            <g id="Group-4" transform="translate(15.000000, 134.000000)">
                <g id="Group-3">
                    <g id="Icons-/-32x32-/-incidental">
                        <g id="Group-28">
                            <mask id="mask-2" fill="white">
                                <use xlink:href="#path-1"></use>
                            </mask>
                            <use id="arrows" fill="#F56B87" fill-rule="nonzero" xlink:href="#path-1"></use>
                            <g id="Colors/cc-pink" mask="url(#mask-2)" fill="#F56B87">
                                <rect id="Rectangle-5" x="0" y="0" width="32" height="32"></rect>
                            </g>
                        </g>
                    </g>
                </g>
            </g>
        </g>
    </g>
</svg>