<svg height="40" viewBox="0 0 40 40" width="40" xmlns="http://www.w3.org/2000/svg" xmlns:xlink="http://www.w3.org/1999/xlink"><defs><path id="a" d="m12.5 15.75c-.9664983 0-1.75.7835017-1.75 1.75s.7835017 1.75 1.75 1.75h15c.9664983 0 1.75-.7835017 1.75-1.75s-.7835017-1.75-1.75-1.75zm15.3268959-1.4837642c1.641421.1639381 2.9231041 1.5491746 2.9231041 3.2337642 0 1.5367908-1.06665 2.8244522-2.5 3.1630341v9.3369659c0 3.1756373-2.5743627 5.75-5.75 5.75h-5c-3.1756373 0-5.75-2.5743627-5.75-5.75v-9.3369659c-1.43335-.3385819-2.5-1.6262433-2.5-3.1630341 0-1.6845896 1.2816831-3.0698261 2.9231041-3.2337642l4.5768959-4.57689597v-2.18933983c0-1.79492544 1.4550746-3.25 3.25-3.25s3.25 1.45507456 3.25 3.25v2.18933983zm-2.1375561-.0162358-3.9393398-3.9393398v-2.8106602c0-.96649831-.7835017-1.75-1.75-1.75s-1.75.78350169-1.75 1.75v2.8106602l-3.9393398 3.9393398zm.8333095 17.125h-3.3976493c-.4142136 0-.75-.3357864-.75-.75s.3357864-.75.75-.75h3.625v-2.25h-3.625c-.4142136 0-.75-.3357864-.75-.75s.3357864-.75.75-.75h3.625v-2.25h-3.625c-.4142136 0-.75-.3357864-.75-.75s.3357864-.75.75-.75h3.625v-1.625h-13.5v9.25c0 2.3472102 1.9027898 4.25 4.25 4.25h5c1.8660098 0 3.4511415-1.2025819 4.0226493-2.875z"/><mask id="b" fill="#fff"><use fill="none" xlink:href="#a"/></mask></defs><g fill="#303036" fill-rule="evenodd" transform=""><use fill-rule="nonzero" xlink:href="#a"/><g mask="url(#b)"><path d="m0 0h40v40h-40z"/></g></g></svg>