<svg width="32" height="32" viewBox="0 0 32 32" xmlns="http://www.w3.org/2000/svg" xmlns:xlink="http://www.w3.org/1999/xlink">
  <title>
    icn-feature-connections
  </title>
  <defs>
    <path d="M21.816 12.6a4.1 4.1 0 1 1 0-8.2 4.1 4.1 0 0 1 0 8.2zm0-1.2a2.9 2.9 0 1 0 0-5.8 2.9 2.9 0 0 0 0 5.8zm-1.154 11.71a.6.6 0 0 1 .092-1.196c3.487.27 6.646-.654 6.646-1.861A5.453 5.453 0 0 0 17.299 17.2a.6.6 0 0 1-1.023-.628 6.653 6.653 0 0 1 12.324 3.48c0 2.269-3.79 3.378-7.938 3.058zm-1.746 1.75c0 4.588-14.516 4.588-14.516 0 0-4.116 3.245-7.46 7.258-7.46 4.012 0 7.258 3.344 7.258 7.46zm-1.2 0c0-3.461-2.716-6.26-6.058-6.26-3.342 0-6.058 2.799-6.058 6.26 0 2.988 12.116 2.988 12.116 0zm-6.058-8.528c-2.542 0-4.595-2.116-4.595-4.716S9.116 6.9 11.658 6.9s4.595 2.115 4.595 4.716c0 2.6-2.053 4.716-4.595 4.716zm0-1.2c1.87 0 3.395-1.57 3.395-3.516S13.529 8.1 11.658 8.1c-1.87 0-3.395 1.57-3.395 3.516 0 1.945 1.524 3.516 3.395 3.516z" id="a"/>
  </defs>
  <g fill="none" fill-rule="evenodd">
    <g>
      <mask id="b" fill="#fff">
        <use xlink:href="#a"/>
      </mask>
      <use fill="#979797" fill-rule="nonzero" xlink:href="#a"/>
      <g mask="url(#b)" fill="#303036">
        <path d="M0 0h32v32H0z"/>
      </g>
    </g>
  </g>
</svg>
