<svg xmlns="http://www.w3.org/2000/svg" width="32" height="32" viewBox="0 0 32 32">
  <path fill="#303036" fill-rule="evenodd" d="M15.2043478,19.6363636 C15.2043478,19.621971 15.2048546,19.6076968 15.2058512,19.5935577 C14.7020883,19.3661717 14.3513044,18.8605534 14.3513044,18.2727273 C14.3513044,17.0506502 17.2573913,17.0506502 17.2573913,18.2727273 C17.2573913,18.8605534 16.9066073,19.3661717 16.4028444,19.5935577 C16.4038411,19.6076968 16.4043478,19.621971 16.4043478,19.6363636 C16.4043478,20.5596013 17.1570961,21.3090909 18.0869565,21.3090909 C18.7473707,21.3090909 19.3376331,20.9277575 19.6123222,20.3437016 C19.7533514,20.0438393 20.1107645,19.9150796 20.4106269,20.0561087 C20.7104892,20.1971379 20.8392489,20.5545511 20.6982198,20.8544134 C20.2272292,21.855854 19.2160898,22.5090909 18.0869565,22.5090909 C17.1581446,22.5090909 16.331612,22.0711916 15.8043478,21.391013 C15.2770836,22.0711916 14.450551,22.5090909 13.5217391,22.5090909 C12.3687198,22.5090909 11.3402026,21.8279312 10.8829718,20.794127 C10.7489373,20.4910735 10.8859543,20.1367437 11.1890077,20.0027093 C11.4920612,19.8686748 11.846391,20.0056918 11.9804254,20.3087453 C12.2469798,20.9114279 12.8474312,21.3090909 13.5217391,21.3090909 C14.4515996,21.3090909 15.2043478,20.5596013 15.2043478,19.6363636 Z M15.8043478,7.67272727 C17.344413,7.67272727 18.8388366,7.97097603 20.2090554,8.53867637 C21.9714724,6.78631768 23.3110492,5.75520399 24.2892639,5.43054398 C24.5800487,5.33403532 24.8968357,5.47211287 25.0240737,5.75082459 C26.5956726,9.19337456 27.0661423,13.0969837 26.441744,17.4488507 C25.6618804,22.884264 21.4851695,26.6 15.8043478,26.6 C10.1239282,26.6 5.94670438,22.8834911 5.16695162,17.4488507 C4.54255332,13.0969837 5.01302308,9.19337456 6.58462198,5.75082459 C6.71185994,5.47211287 7.02864693,5.33403532 7.31943173,5.43054398 C8.29565194,5.75454203 9.652306,6.77866064 11.4499646,8.51797362 C12.8066089,7.96365676 14.2832669,7.67272727 15.8043478,7.67272727 Z M10.8973996,9.65544391 C9.41707758,8.19875978 8.25142235,7.24203008 7.43876082,6.79479294 C6.15806719,9.88582862 5.79498694,13.3767817 6.35478751,17.2784221 C7.05069134,22.1286609 10.7275602,25.4 15.8043478,25.4 C20.8815599,25.4 24.5578964,22.129413 25.2539081,17.2784221 C25.813605,13.3775045 25.450763,9.88712204 24.1706465,6.79651084 C23.3658872,7.24570395 22.2198869,8.20805088 20.7715667,9.6741874 C20.5942177,9.85371803 20.3234873,9.90308853 20.0941831,9.79771534 C18.7776877,9.19274023 17.3172715,8.87272727 15.8043478,8.87272727 C14.3111566,8.87272727 12.8690123,9.18443331 11.5656555,9.77438985 C11.3397275,9.87665479 11.0741643,9.82938597 10.8973996,9.65544391 Z M20.3695652,16.9045454 C19.6172131,16.9045454 19.0065218,16.2964978 19.0065218,15.5454545 C19.0065218,14.7944113 19.6172131,14.1863636 20.3695652,14.1863636 C21.1219174,14.1863636 21.7326087,14.7944113 21.7326087,15.5454545 C21.7326087,16.2964978 21.1219174,16.9045454 20.3695652,16.9045454 Z M11.2391304,16.9045454 C10.4867783,16.9045454 9.87608697,16.2964978 9.87608697,15.5454545 C9.87608697,14.7944113 10.4867783,14.1863636 11.2391304,14.1863636 C11.9914826,14.1863636 12.6021739,14.7944113 12.6021739,15.5454545 C12.6021739,16.2964978 11.9914826,16.9045454 11.2391304,16.9045454 Z"/>
</svg>
