<svg width="40" height="40" viewBox="0 0 40 40" xmlns="http://www.w3.org/2000/svg" xmlns:xlink="http://www.w3.org/1999/xlink">
  <title>
    icn-feature-pro-large
  </title>
  <defs>
    <path d="M10.215 22.38a11.11 11.11 0 0 1-1.387-5.387c0-6.314 5.301-11.442 11.824-11.442 6.53 0 11.824 5.11 11.824 11.442 0 1.95-.502 3.784-1.388 5.389l4.343 7.283a.75.75 0 0 1-.764 1.124l-4.13-.672-1.41 3.791a.75.75 0 0 1-1.34.133l-3.754-6.08a12.216 12.216 0 0 1-3.381.474c-1.175 0-2.31-.166-3.381-.474l-3.754 6.08a.75.75 0 0 1-1.34-.129l-1.434-3.795-4.133.672a.75.75 0 0 1-.764-1.126l4.369-7.282zm.91 1.398L7.965 29.05l3.144-.511a.75.75 0 0 1 .822.475l1.111 2.943 2.786-4.512a11.787 11.787 0 0 1-4.701-3.666zm14.351 3.666l2.78 4.503 1.09-2.93a.75.75 0 0 1 .823-.48l3.15.513-3.143-5.27a11.787 11.787 0 0 1-4.7 3.664zM20.652 7.05c-5.705 0-10.324 4.468-10.324 9.942 0 5.491 4.61 9.942 10.324 9.942 5.714 0 10.324-4.451 10.324-9.942 0-5.491-4.61-9.942-10.324-9.942zm6.287 8.528c0 .712-.25 1.457-.707 2.237-.524.893-1.31 1.82-2.292 2.763a26.564 26.564 0 0 1-2.858 2.374.75.75 0 0 1-.86 0 26.564 26.564 0 0 1-2.858-2.374c-.982-.943-1.769-1.87-2.292-2.763-.457-.78-.707-1.525-.707-2.237 0-3.796 4.335-4.919 6.287-2.152 1.951-2.767 6.287-1.644 6.287 2.152zm-5.886 5.52a25.09 25.09 0 0 0 1.848-1.601c.89-.856 1.594-1.685 2.036-2.44.333-.57.502-1.07.502-1.479 0-2.655-3.318-3.112-4.06-.151-.19.757-1.265.757-1.455 0-.742-2.961-4.06-2.504-4.06.151 0 .41.169.91.502 1.478.442.756 1.146 1.585 2.037 2.44a25.09 25.09 0 0 0 2.249 1.911c.118-.09.253-.193.4-.31z" id="a"/>
  </defs>
  <g fill="none" fill-rule="evenodd">
    <g>
      <mask id="b" fill="#fff">
        <use xlink:href="#a"/>
      </mask>
      <use fill="#303036" fill-rule="nonzero" xlink:href="#a"/>
      <g mask="url(#b)" fill="#303036">
        <path d="M0 0h40v40H0z"/>
      </g>
    </g>
  </g>
</svg>
