<svg height="28" viewBox="0 0 28 28" width="28" xmlns="http://www.w3.org/2000/svg" xmlns:xlink="http://www.w3.org/1999/xlink"><defs><path id="a" d="m14 22.225c4.5425421 0 8.225-3.6824579 8.225-8.225 0-4.02725195-2.9019843-7.39934598-6.7537714-8.09397705.5232507.99992731.8037714 2.11986122.8037714 3.28147705 0 3.9143182-3.1731818 7.0875-7.0875 7.0875-1.16161583 0-2.28154974-.2805207-3.28147705-.8037714.69463107 3.8517871 4.0667251 6.7537714 8.09397705 6.7537714zm-8.42440018-8.1990748c1.03536593.7742616 2.29078048 1.1990748 3.61190018 1.1990748 3.3344192 0 6.0375-2.7030808 6.0375-6.0375 0-1.3211197-.4248132-2.57653425-1.1990748-3.61190018-.2662121-.35598682.00283-.86105757.446787-.83875011 4.9206589.24724785 8.8022878 4.31684435 8.8022878 9.26315029 0 5.1224411-4.1525589 9.275-9.275 9.275-4.94630594 0-9.01590244-3.8816289-9.26315029-8.8022878-.02230746-.443957.48276329-.7129991.83875011-.446787z"/><mask id="b" fill="#fff"><use fill="none" xlink:href="#a"/></mask></defs><g fill="none" fill-rule="evenodd" transform=""><use fill="#303036" fill-rule="nonzero" xlink:href="#a"/><g fill="#97979a" mask="url(#b)"><path d="m0 0h28v28h-28z"/></g></g></svg>