<?xml version="1.0" encoding="UTF-8"?>
<svg width="32px" height="32px" viewBox="0 0 32 32" version="1.1" xmlns="http://www.w3.org/2000/svg" xmlns:xlink="http://www.w3.org/1999/xlink">
    <!-- Generator: sketchtool 55.1 (78136) - https://sketchapp.com -->
    <title>D0119561-60FD-4CBA-BFE8-54FDF73FA353</title>
    <desc>Created with sketchtool.</desc>
    <g id="Icons" stroke="none" stroke-width="1" fill="none" fill-rule="evenodd">
        <g transform="translate(-334.000000, -65.000000)" fill="#303036" id="Group">
            <g transform="translate(40.000000, 65.000000)">
                <g id="Icons-/-32x32-/-microphone" transform="translate(294.000000, 0.000000)">
                    <path d="M16.75,23.7088034 L16.75,25.75 L18.5,25.75 C18.9142136,25.75 19.25,26.0857864 19.25,26.5 C19.25,26.9142136 18.9142136,27.25 18.5,27.25 L13.5,27.25 C13.0857864,27.25 12.75,26.9142136 12.75,26.5 C12.75,26.0857864 13.0857864,25.75 13.5,25.75 L15.25,25.75 L15.25,23.7088034 C11.8750372,23.3357202 9.25,20.4744152 9.25,17 C9.25,16.5857864 9.58578644,16.25 10,16.25 C10.4142136,16.25 10.75,16.5857864 10.75,17 C10.75,19.8994949 13.1005051,22.25 16,22.25 C18.8994949,22.25 21.25,19.8994949 21.25,17 C21.25,16.5857864 21.5857864,16.25 22,16.25 C22.4142136,16.25 22.75,16.5857864 22.75,17 C22.75,20.4744152 20.1249628,23.3357202 16.75,23.7088034 Z M16,4.25 C18.0710678,4.25 19.75,5.92893219 19.75,8 L19.75,17 C19.75,19.0710678 18.0710678,20.75 16,20.75 C13.9289322,20.75 12.25,19.0710678 12.25,17 L12.25,8 C12.25,5.92893219 13.9289322,4.25 16,4.25 Z M16,5.75 C14.7573593,5.75 13.75,6.75735931 13.75,8 L13.75,17 C13.75,18.2426407 14.7573593,19.25 16,19.25 C17.2426407,19.25 18.25,18.2426407 18.25,17 L18.25,8 C18.25,6.75735931 17.2426407,5.75 16,5.75 Z" id="icon"></path>
                </g>
            </g>
        </g>
    </g>
</svg>