<svg xmlns="http://www.w3.org/2000/svg" width="32" height="32" viewBox="0 0 32 32">
  <path fill="#303036" fill-rule="evenodd" d="M15.7970048,21.4108532 C15.1846724,22.4866014 14.1564424,23.2 12.9666958,23.2 C11.5599676,23.2 10.3387154,22.1892701 9.81073028,20.6974485 C9.70017161,20.385065 9.86378291,20.0422027 10.1761664,19.931644 C10.4885498,19.8210853 10.8314121,19.9846966 10.9419708,20.2970801 C11.3110274,21.3398493 12.1086792,22 12.9666958,22 C13.9506301,22 14.8211586,21.1361525 15.1014699,19.9206714 C14.4490445,19.6507747 13.9890974,19.0174739 13.9890974,18.2754921 C13.9890974,16.8681693 17.6238058,16.8681693 17.6238058,18.2754921 C17.6238058,19.0247012 17.1548548,19.6631017 16.4923138,19.9284545 C16.7761555,21.1396011 17.6500141,22 18.6388414,22 C19.484895,22 20.2723536,21.3674184 20.6538612,20.3587571 C20.771091,20.0488154 21.1173818,19.8925915 21.4273234,20.0098213 C21.7372651,20.127051 21.893489,20.4733418 21.7762592,20.7832835 C21.2289749,22.2302391 20.0217843,23.2 18.6388414,23.2 C17.4446897,23.2 16.4120325,22.4866909 15.7970048,21.4108532 Z M25.316951,21.1080334 C25.4461278,21.0966633 25.574503,21.0772113 25.7012696,21.0497653 C27.3258119,20.698039 28.3442399,19.1388049 27.9863768,17.5698305 L26.5916017,11.4547383 C25.8707535,8.29433382 23.0988422,5.96672951 19.7730614,5.73769505 C18.440077,5.64589751 17.1071292,5.6 15.7741935,5.6 C14.4412585,5.6 13.1083112,5.64589747 11.7753274,5.73769493 C8.44954726,5.9667286 5.67763636,8.29433227 4.95678821,11.4547365 L3.56201033,17.5698305 C3.5148071,17.776783 3.49099993,17.9880841 3.49099993,18.2 C3.49099993,19.7225314 4.69556348,20.9780523 6.23767241,21.1087696 C6.02547665,20.326957 5.91612903,19.49923 5.91612903,18.64 C5.91612903,15.8302715 6.19403848,13.1531133 6.75033942,10.6091324 C6.82112866,10.285411 7.1409427,10.080369 7.46466407,10.1511583 C7.78838544,10.2219475 7.99342743,10.5417615 7.92263818,10.8654829 C7.38512609,13.3235419 7.11612903,15.9148453 7.11612903,18.64 C7.11612903,23.0088565 10.3224383,26.4 15.8064516,26.4 C21.2789174,26.4 24.4322581,23.0288231 24.4322581,18.64 C24.4322581,15.8019894 24.1785927,13.2164355 23.6724284,10.8834012 C23.6021702,10.5595641 23.8077365,10.2400868 24.1315736,10.1698287 C24.4554106,10.0995705 24.7748879,10.3051368 24.8451461,10.6289738 C25.3702763,13.0494268 25.6322581,15.7197479 25.6322581,18.64 C25.6322581,19.4996818 25.52518,20.3270355 25.316951,21.1080334 Z M24.8966143,22.32 C23.5364106,25.4628025 20.3469842,27.6 15.8064516,27.6 C11.2632384,27.6 8.04315384,25.4567636 6.66470883,22.32 L6.50390315,22.32 C4.18062868,22.32 2.29099993,20.4789617 2.29099993,18.2 C2.29099993,17.898261 2.32489215,17.5974499 2.39205727,17.3029788 L3.78683515,11.1878848 C4.62637976,7.50708136 7.84351038,4.80562187 11.6928833,4.54053038 C13.0532916,4.4468443 14.4137365,4.4 15.7741935,4.4 C17.1346512,4.4 18.4950966,4.44684434 19.8555056,4.54053051 C23.7048792,4.8056229 26.9220102,7.50708298 27.7615549,11.1878869 L29.1563299,17.3029791 C29.6641717,19.5295026 28.2263259,21.7308739 25.9551958,22.2225916 C25.6561373,22.2873401 25.3507608,22.32 25.0444839,22.32 L24.8966143,22.32 Z M20.3225806,15.57 C19.5778005,15.57 18.9693549,14.9772001 18.9693549,14.24 C18.9693549,13.5027999 19.5778005,12.91 20.3225806,12.91 C21.0673608,12.91 21.6758064,13.5027999 21.6758064,14.24 C21.6758064,14.9772001 21.0673608,15.57 20.3225806,15.57 Z M11.2903226,15.57 C10.5455424,15.57 9.93709679,14.9772001 9.93709679,14.24 C9.93709679,13.5027999 10.5455424,12.91 11.2903226,12.91 C12.0351027,12.91 12.6435484,13.5027999 12.6435484,14.24 C12.6435484,14.9772001 12.0351027,15.57 11.2903226,15.57 Z"/>
</svg>
