<?xml version="1.0" encoding="UTF-8"?>
<svg width="32px" height="32px" viewBox="0 0 32 32" version="1.1" xmlns="http://www.w3.org/2000/svg" xmlns:xlink="http://www.w3.org/1999/xlink">
    <!-- Generator: sketchtool 55.1 (78136) - https://sketchapp.com -->
    <title>0AC4E44A-AC3A-4C27-9808-ACC14FF2827A</title>
    <desc>Created with sketchtool.</desc>
    <g id="Icons" stroke="none" stroke-width="1" fill="none" fill-rule="evenodd">
        <g transform="translate(-502.000000, -65.000000)" fill="#303036" id="Group">
            <g transform="translate(40.000000, 65.000000)">
                <g id="Icons-/-32x32-/-profile" transform="translate(462.000000, 0.000000)">
                    <path d="M22.4601827,8.47766518 C22.4819322,8.46927962 22.5037611,8.46078718 22.5256698,8.45218788 C22.9112457,8.3008469 23.3465029,8.49073183 23.4978438,8.87630774 C23.6491848,9.26188365 23.4592999,9.69714079 23.073724,9.84848177 C22.9509942,9.89665396 22.8295456,9.94197474 22.7093975,9.98444522 C22.731968,10.2529787 22.7435065,10.52503 22.7435065,10.8 C22.7435065,13.6555976 21.4990659,16.1964099 19.5776748,17.7514289 L19.5776748,20.1647393 L25.579749,22.1746695 C27.5161816,22.8231277 28.8214286,24.636707 28.8214286,26.6788307 L28.8214286,29 C28.8214286,29.4142136 28.4856421,29.75 28.0714286,29.75 L3,29.75 C2.58578644,29.75 2.25,29.4142136 2.25,29 L2.25,26.623155 C2.25,24.6132509 3.51501941,22.8209025 5.40879421,22.1476034 L10.9425722,20.1801636 L10.8818863,17.8681268 C8.87671325,16.3254198 7.56818182,13.7282085 7.56818182,10.8 C7.56818182,6.09832696 10.9417152,2.25 15.1558442,2.25 C18.6492888,2.25 21.5650642,4.89462465 22.4601827,8.47766518 Z M9.10344138,10.0363624 C9.08014157,10.2870728 9.06818182,10.5418442 9.06818182,10.8 C9.06818182,14.7139691 11.8172999,17.85 15.1558442,17.85 C18.4943885,17.85 21.2435065,14.7139691 21.2435065,10.8 C21.2435065,10.6570543 21.2398396,10.5151463 21.232611,10.3743908 C19.2337457,10.7051237 17.7037682,10.0718878 16.76377,8.48168569 C14.6926923,10.4078214 12.1068401,10.9287847 9.10344138,10.0363624 Z M9.38371346,8.55376796 C12.2915849,9.4657866 14.5834276,8.84632666 16.4063336,6.68296245 C16.7795958,6.23998735 17.4927606,6.36937327 17.6866224,6.91523881 C18.2654911,8.54518622 19.3109534,9.20237466 21.0194684,8.89816505 C20.2998592,5.91780698 17.9315745,3.75 15.1558442,3.75 C12.4882032,3.75 10.1968933,5.75226148 9.38371346,8.55376796 Z M12.4061543,18.773018 L12.4563355,20.684841 C12.4648523,21.0093189 12.263672,21.3024517 11.9578367,21.4111862 L5.9112802,23.5609355 C4.61553958,24.0216139 3.75,25.2479575 3.75,26.623155 L3.75,28.25 L27.3214286,28.25 L27.3214286,26.6788307 C27.3214286,25.2815882 26.4283648,24.0407182 25.1034373,23.5970363 L18.5895189,21.4157035 C18.2837664,21.3133153 18.0776748,21.0269607 18.0776748,20.7045201 L18.0776748,18.6949346 C17.1798788,19.1167477 16.1933363,19.35 15.1558442,19.35 C14.1842506,19.35 13.2573398,19.1454377 12.4061543,18.773018 Z" id="icon"></path>
                </g>
            </g>
        </g>
    </g>
</svg>