<svg height="32" viewBox="0 0 32 32" width="32" xmlns="http://www.w3.org/2000/svg" xmlns:xlink="http://www.w3.org/1999/xlink"><defs><path id="a" d="m12.0444444 8.27560976v-.82682927c0-1.1232739.9147104-2.02682927 2.0444445-2.02682927h3.8222222c1.1297341 0 2.0444445.90355537 2.0444445 2.02682927v.82682927h5.1333333c1.3730897 0 2.5111111 1.11489758 2.5111111 2.47227864v11.2554427c0 1.3573811-1.1380214 2.4722787-2.5111111 2.4722787h-18.17777779c-1.37308972 0-2.51111111-1.1148976-2.51111111-2.4722787v-11.2554427c0-1.35738106 1.13802139-2.47227864 2.51111111-2.47227864zm1.2 0h5.5111112v-.82682927c0-.45721391-.3741786-.82682927-.8444445-.82682927h-3.8222222c-.4702659 0-.8444445.36961536-.8444445.82682927zm13.1555556 2.47227864c0-.689063-.5953119-1.27227864-1.3111111-1.27227864h-18.17777779c-.71579917 0-1.31111111.58321564-1.31111111 1.27227864v11.2554427c0 .689063.59531194 1.2722787 1.31111111 1.2722787h18.17777779c.7157992 0 1.3111111-.5832157 1.3111111-1.2722787zm-5.9 3.6521116c.3313708 0 .6.2686292.6.6v3c0 .3313708-.2686292.6-.6.6h-2.4v2.4c0 .3313708-.2686292.6-.6.6h-3c-.3313708 0-.6-.2686292-.6-.6v-2.4h-2.4c-.3313708 0-.6-.2686292-.6-.6v-3c0-.3313708.2686292-.6.6-.6h2.4v-2.4c0-.3313708.2686292-.6.6-.6h3c.3313708 0 .6.2686292.6.6v2.4zm-3 1.2c-.3313708 0-.6-.2686292-.6-.6v-2.4h-1.8v2.4c0 .3313708-.2686292.6-.6.6h-2.4v1.8h2.4c.3313708 0 .6.2686292.6.6v2.4h1.8v-2.4c0-.3313708.2686292-.6.6-.6h2.4v-1.8z"/><mask id="b" fill="#fff"><use fill="none" xlink:href="#a"/></mask></defs><g fill="#303036" fill-rule="evenodd" transform=""><use fill-rule="nonzero" xlink:href="#a"/><g mask="url(#b)"><path d="m0 0h32v32h-32z"/></g></g></svg>