<svg height="28" viewBox="0 0 31 28" width="31" xmlns="http://www.w3.org/2000/svg"><g style="stroke:#f1d4dc;stroke-linecap:round;stroke-linejoin:round;fill:none;fill-rule:evenodd;stroke-width:1.3" transform="translate(2 2)"><path d="m.51923077 21.2727273 25.96153843-17.45454548"/><path d="m20.5665832 12.4376106c.1756046.5277574.3635552 1.0266065.5638516 1.4965472.8593789 2.0162972 2.123593 3.9170325 3.7926421 5.7022058h-16.49876049m-5.30893179 0c1.49148595-1.3685699 2.7557-3.2693052 3.79264214-5.7022058.6417197-1.5056195 1.12839365-3.0554975 1.46002185-4.64963391.20122245-.96727617.35486853-2.73803149.51521078-3.28160463.75142781-2.54740072 2.46341831-3.82110108 5.13597141-3.82110108 2.7347283 0 4.4636804 1.33365338 5.1868561 4.00096012 0 0 .2715132 1.10781008.384062 2.15822512"/><path d="m11.4230769 20.0908203c0 2.4035645 1.1623377 3.2849121 2.5961539 3.2849121 1.4338161 0 2.5961538-.8686523 2.5961538-3.2849121"/><path d="m12.4615385 0c0 .90373868.6974026 1.63636364 1.5576923 1.63636364s1.5576923-.73262496 1.5576923-1.63636364" transform="matrix(1 0 0 -1 0 1.636364)"/></g></svg>