<svg height="28" viewBox="0 0 31 28" width="31" xmlns="http://www.w3.org/2000/svg">
  <g fill="none" fill-rule="evenodd" stroke="#f56b87" stroke-width="1.3">
    <path d="M15.5 10.5c1.111 0 2.056.392 2.833 1.177.778.785 1.167 1.726 1.167 2.823 0 1.111-.389 2.056-1.167 2.833-.777.778-1.722 1.167-2.833 1.167-1.097 0-2.038-.389-2.823-1.167-.785-.777-1.177-1.722-1.177-2.833 0-1.097.392-2.038 1.177-2.823.785-.785 1.726-1.177 2.823-1.177z"/>
    <path d="M15.5 22.5c1.268 0 2.521-.166 3.761-.498 1.24-.332 2.405-.83 3.496-1.495s2.088-1.495 2.992-2.491c.904-.997 1.654-2.16 2.251-3.488-.597-1.329-1.342-2.492-2.237-3.488a13.434 13.434 0 0 0-6.46-4.028c-1.23-.341-2.48-.512-3.747-.512s-2.522.17-3.761.512c-1.24.342-2.41.849-3.51 1.523s-2.106 1.508-3.02 2.505c-.913.996-1.668 2.159-2.265 3.488.597 1.328 1.352 2.491 2.265 3.488.914.996 1.916 1.827 3.006 2.49s2.251 1.164 3.482 1.496 2.48.498 3.747.498z"/>
  </g>
</svg>
