<svg height="28" viewBox="0 0 31 28" width="31" xmlns="http://www.w3.org/2000/svg"><g fill="none" fill-rule="evenodd" stroke="#a9a9ac" stroke-width="1.3" transform="translate(1 1)"><path d="m7.5 9c1.75415039 0 3.5-1.70141602 3.5-4.5 0-2.48528137-.7192383-4.25512695-3.5-4.25512695-2.78076172 0-3.5 1.76984558-3.5 4.25512695 0 2.83984375 1.74584961 4.5 3.5 4.5z"/><g stroke-linecap="round" stroke-linejoin="round"><path d="m21.1913749 11c1.5740115 0 2.8499999-1.47705078 2.8499999-4.32310723-1.5386509-.23446497-2.6841245-1.29342923-3.4364208-3.17689277-.5066555 1.51285807-1.2611819 2.57182233-2.263579 3.17689277 0 2.81920098 1.2759884 4.32310723 2.8499999 4.32310723z"/><path d="m.04321289 24c0-5.3318835 0-8.5488431 0-9.6508789 0-1.6530537 1.02270508-2.3972168 2.52050781-2.8896484.99853516-.3282878 1.85791016-.4865723 2.578125-.4748536l2.21289063 6.4864502"/><path d="m3.5 17v5.5"/><path d="m25.5 17v5.5"/><path d="m9 13.6663108.625-2.6259765c1.6805827 0 2.8636068.1306152 3.5490723.3918457.6854655.2612304 1.3913574.8200683 2.1176757 1.6765136"/><path d="m18.6347656 12.4011799c.3354492 1.7325467 1.1696371 2.5988201 2.5025635 2.5988201s2.1671143-.868342 2.5025635-2.6050261c1.3862304-.0243089 2.5179036.2879966 3.3950195.9369165.8771159.6489198 1.4261068 1.5522933 1.6469727 2.7101203v7.9579893"/><path d="m16.0207829 9.65185547c-.2557023-3.1726888-.0460384-5.44628906.6289916-6.82080078.5808436-1.18272736 1.7565749-2.00139559 3.5271939-2.45600472l-.0000016-.00000607c.6045499-.1552191 1.2370348-.1668099 1.8468659-.03384531 1.804708.39348973 3.0013269 1.22344176 3.5898565 2.4898561.6852067 1.47444661.9311933 3.74804687.7379598 6.82080078"/></g><path d="m14.0001739 15.65c-1.2850734 0-2.3318283 1.0322411-2.3497709 2.3171894-.0064188.4597101.017136.9174723.0706702 1.3734683.0028589.0241904.0028589.0241904.0057708.0482145.1715772 1.4050058 1.364517 2.4611278 2.7799604 2.4611278 1.4184391 0 2.6152466-1.0554912 2.7925464-2.4628061.0028959-.0232518.0028959-.0232518.0056628-.0465362.0494951-.4215919.0584098-.9146997.0254517-1.4779353-.0727015-1.2424301-1.1014462-2.212737-2.3459919-2.212737l-.9842899.0000146z"/><path d="m9 26v-.223593c0-.9181246.62511396-1.7183251 1.5159417-1.940538l1.1708402-.2920607c.2776435-.0692569.571655-.0162548.8076365.1455944l2.0055816 1.3755387 2.0660326-1.3821698c.2358168-.1577608.5275476-.2079242.8025163-.1379937l1.1244028.2859603c.8864868.2254531 1.5070483 1.0235915 1.5070483 1.9382979v.2309639" stroke-linecap="round" stroke-linejoin="round"/></g></svg>