<svg height="28" viewBox="0 0 31 28" width="31" xmlns="http://www.w3.org/2000/svg"><g fill="none" fill-rule="evenodd" transform="translate(2 1)"><rect height="26" rx="13" stroke="#a9a9ac" stroke-width="1.3" width="26" x=".5"/><path d="m14.1604192 7.48650654c-1.9350495 0-3.1421626 1.22227781-3.6213755 3.66687016h4.640456v1.1737623h-4.767841l-.0181979.5186392v.5823318l.0181979.409452h4.2128061v1.1737624h-4.0672232c.2244415 1.0918774.6445047 1.9365533 1.2602022 2.5340529.6156976.5974996 1.4391428.8962449 2.4703604.8962449.9462938 0 1.8834746-.2001745 2.8115704-.6005296v1.36484c-.8856339.3942891-1.8470782.5914307-2.8843618.5914307-1.4376387 0-2.5947081-.4079314-3.4712431-1.2238065-.87653494-.8158751-1.45431142-2.0032741-1.73334677-3.5622324h-1.51042293v-1.1737624h1.38303786l-.01819787-.3821552v-.4003531l.01819787-.7279147h-1.38303786v-1.1737623h1.49222506c.23657345-1.58322236.79766872-2.81763196 1.68330264-3.7032659.885634-.88563393 2.0472528-1.32844426 3.4848915-1.32844426 1.2192631 0 2.3293219.2941959 3.3302096.88259653l-.6460243 1.26475173c-1.0069537-.52167479-1.9016732-.78250826-2.6841853-.78250826z" fill="#a9a9ac"/></g></svg>