<svg width="31" height="28" viewBox="0 0 31 28" xmlns="http://www.w3.org/2000/svg">
  <g fill="none" fill-rule="evenodd">
    <g stroke-width="1.3" stroke="#F56B87">
      <path d="M8.5 10c1.754 0 3.5-1.701 3.5-4.5 0-2.485-.72-4.255-3.5-4.255C5.72 1.245 5 3.015 5 5.5 5 8.34 6.746 10 8.5 10z"/>
      <path d="M22.191 12c1.574 0 2.85-1.477 2.85-4.323-1.538-.235-2.684-1.294-3.436-3.177-.507 1.513-1.261 2.572-2.264 3.177 0 2.82 1.276 4.323 2.85 4.323zM1.043 25v-9.65c0-1.654 1.023-2.398 2.52-2.89 1-.329 1.859-.487 2.579-.475l2.213 6.486M4.5 18v5.5M26.5 18v5.5M10 14.666l.625-2.626c1.68 0 2.864.13 3.55.392.685.261 1.39.82 2.117 1.677M19.635 13.401C19.97 15.134 20.805 16 22.137 16c1.333 0 2.167-.868 2.503-2.605 1.386-.024 2.518.288 3.395.937.877.649 1.426 1.552 1.647 2.71V25" stroke-linecap="round" stroke-linejoin="round"/>
      <path d="M17.02 10.652c-.255-3.173-.045-5.446.63-6.82.58-1.184 1.756-2.002 3.527-2.457a4 4 0 0 1 1.847-.034c1.805.394 3.001 1.224 3.59 2.49.685 1.475.93 3.748.738 6.82" stroke-linecap="round" stroke-linejoin="round"/>
      <path d="M15 16.65a2.35 2.35 0 0 0-2.35 2.317c-.006.46.018.918.071 1.374l.006.048a2.8 2.8 0 0 0 2.78 2.461 2.815 2.815 0 0 0 2.792-2.463l.006-.046c.05-.422.058-.915.025-1.478a2.35 2.35 0 0 0-2.346-2.213H15z"/>
      <path d="M10 27v-.224a2 2 0 0 1 1.516-1.94l1.17-.292a1 1 0 0 1 .808.145l2.006 1.376 2.066-1.382a1 1 0 0 1 .803-.138l1.124.286A2 2 0 0 1 21 26.769V27" stroke-linecap="round" stroke-linejoin="round"/>
    </g>
  </g>
</svg>
