<svg height="28" viewBox="0 0 31 28" width="31" xmlns="http://www.w3.org/2000/svg"><g fill="none" fill-rule="evenodd" stroke="#a9a9ac" stroke-width="1.3" transform=""><path d="m15.5245058 21.0344578c-.1415706 0-7.92795423-5.1389831-7.92795423-10.131061 0-2.77940162 1.5838212-4.43945376 4.22942203-4.43945376 1.5484285 0 3.6985322 1.22968216 3.6985322 3.74887006.2322643-2.5191879 2.1501036-3.74887006 3.6985322-3.74887006 2.6456008 0 4.171926 1.66055532 4.229422 4.43945376.1023683 4.9476715-7.7863836 10.131061-7.9279542 10.131061z" stroke-linecap="round" stroke-linejoin="round"/><ellipse cx="15.525" cy="2.821314" rx="6.995689" ry="1.821314"/><g stroke-linecap="round" stroke-linejoin="round"><path d="m5.34036936 11.0172289c-2.35151368 0-3.34036936 2.0556235-3.34036936 3.5594413v10.2648384c.29743538 1.1045949.92454722 1.6568923 1.88133552 1.6568923.95678829 0 1.58390013-.5522974 1.88133551-1.6568923v-6.7297976 1.1944054c-.11404844 2.3963216.50028567 3.5944824 1.84300232 3.5944824 1.34271666 0 1.95705077-1.1981608 1.84300233-3.5944824"/><path d="m24.9282998 11.0172289c-2.3515136 0-3.3403693 2.0556235-3.3403693 3.5594413v10.2648384c.2974354 1.1045949.9245472 1.6568923 1.8813355 1.6568923s1.5839001-.5522974 1.8813355-1.6568923v-6.7297976 1.1944054c-.1140484 2.3963216.5002857 3.5944824 1.8430023 3.5944824 1.3427167 0 1.9570508-1.1981608 1.8430024-3.5944824" transform="matrix(-1 0 0 1 50.63793 0)"/></g></g></svg>