<svg width="38" height="28" viewBox="-9 -5 38 28" xmlns="http://www.w3.org/2000/svg">
  <g stroke="#F56B87" stroke-width="1.3" fill="none" fill-rule="evenodd">
    <path d="M14.5 5.5c1.111 0 2.056.392 2.833 1.177.778.785 1.167 1.726 1.167 2.823 0 1.111-.389 2.056-1.167 2.833-.777.778-1.722 1.167-2.833 1.167-1.097 0-2.038-.389-2.823-1.167-.785-.777-1.177-1.722-1.177-2.833 0-1.097.392-2.038 1.177-2.823.785-.785 1.726-1.177 2.823-1.177z"/>
    <path d="M14.5 17.5c1.268 0 2.521-.166 3.761-.498 1.24-.332 2.405-.83 3.496-1.495a13.559 13.559 0 0 0 2.992-2.491c.904-.997 1.654-2.16 2.251-3.488-.597-1.329-1.342-2.492-2.237-3.488a13.423 13.423 0 0 0-6.46-4.028 13.952 13.952 0 0 0-3.747-.512c-1.268 0-2.522.17-3.761.512-1.24.342-2.41.849-3.51 1.523a14.03 14.03 0 0 0-3.02 2.505C3.352 7.036 2.597 8.199 2 9.528c.597 1.328 1.352 2.491 2.265 3.488a13.845 13.845 0 0 0 3.006 2.49 13.345 13.345 0 0 0 3.482 1.496c1.23.332 2.48.498 3.747.498z"/>
    <path d="M1.52 18.273L27.48.818" stroke-linecap="round" stroke-linejoin="round"/>
  </g>
</svg>
