<svg height="28" viewBox="0 0 31 28" width="31" xmlns="http://www.w3.org/2000/svg"><g style="stroke:#f56b87;stroke-linecap:round;stroke-linejoin:round;fill:none;fill-rule:evenodd;stroke-width:1.3" transform="translate(1 1)"><path d="m14.4996989 12.6545455c-.0863041 0-4.83303223-3.09946233-4.83303223-6.11032202 0-1.67633364.96552763-2.67755681 2.57833643-2.67755681.9439516 0 2.2546958.74165518 2.2546958 2.26104675.1415928-1.51939157 1.3107443-2.26104675 2.2546959-2.26104675 1.6128088 0 2.5432858 1.00152665 2.5783364 2.67755681.0624057 2.984077-4.7467281 6.11032202-4.8330323 6.11032202z"/><path d="m0 17.0547619h9.36724877v1.45108c0 .9941125.80588743 1.7999999 1.79999993 1.7999999h6.9635243c.9941125 0 1.7999999-.8058874 1.7999999-1.7999999v-1.45108h8.7930366v8.0785714h-28.7238095z"/><path d="m0 17.0547619 4.03222936-8.07857142h2.25110397"/><path d="m22.4404762 17.0547619 4.0322293-8.07857142h2.251104" transform="matrix(-1 0 0 1 51.164286 0)"/><path d="m6.28333333 14.0166667v-13.53333337h16.15299907v13.53333337"/></g></svg>