<svg height="28" viewBox="0 0 31 28" width="31" xmlns="http://www.w3.org/2000/svg"><g fill="none" fill-rule="evenodd" stroke="#f1d4dc" stroke-width="1.3" transform="translate(3 6)"><path d="m12.5 4.5c1.1111167 0 2.0555517.39235719 2.8333333 1.17708333.7777817.78472615 1.1666667 1.72568896 1.1666667 2.82291667 0 1.11111667-.388885 2.0555517-1.1666667 2.8333333-.7777816.7777817-1.7222166 1.1666667-2.8333333 1.1666667-1.0972277 0-2.0381905-.388885-2.82291667-1.1666667-.78472614-.7777816-1.17708333-1.72221663-1.17708333-2.8333333 0-1.09722771.39235719-2.03819052 1.17708333-2.82291667.78472617-.78472614 1.72568897-1.17708333 2.82291667-1.17708333z"/><path d="m12.5 16.5c1.267717 0 2.521433-.1660883 3.7611857-.4982699 1.2397526-.3321816 2.4049162-.8304465 3.4955257-1.4948097s2.0879895-1.4948047 2.99217-2.4913495c.9041805-.9965447 1.6545459-2.15916287 2.2511186-3.48788924-.5965727-1.32872637-1.3422774-2.4913445-2.2371365-3.48788927-.894859-.99654478-1.8875784-1.83159986-2.9781879-2.50519031s-2.2511124-1.1810825-3.4815436-1.52249135c-1.2304312-.34140886-2.4794866-.51211073-3.7472036-.51211073s-2.521433.17070187-3.76118567.51211073c-1.23975266.34140885-2.4095769.8489009-3.50950783 1.52249135s-2.10663227 1.50864553-3.02013423 2.50519031c-.91350196.99654477-1.66852796 2.1591629-2.26510067 3.48788927.59657271 1.32872637 1.35159871 2.49134454 2.26510067 3.48788924.91350196.9965448 1.91554265 1.8269863 3.00615213 2.4913495s2.25111241 1.1626281 3.48154362 1.4948097 2.47948658.4982699 3.74720358.4982699z"/></g></svg>