<svg width="31" height="28" viewBox="0 0 31 28" xmlns="http://www.w3.org/2000/svg">
  <g fill="none" fill-rule="evenodd">
    <g stroke-width="1.3" stroke="#F56B87" stroke-linecap="round" stroke-linejoin="round">
      <path d="M2.52 23.273L28.48 5.818M22.567 14.438c.175.527.363 1.026.563 1.496.86 2.016 2.124 3.917 3.793 5.702H10.424m-5.309 0c1.492-1.368 2.756-3.269 3.793-5.702a24.62 24.62 0 0 0 1.46-4.65c.201-.967.355-2.738.515-3.281.752-2.547 2.464-3.821 5.136-3.821 2.735 0 4.464 1.333 5.187 4 0 0 .272 1.109.384 2.159M13.423 22.09c0 2.404 1.162 3.286 2.596 3.286 1.434 0 2.596-.869 2.596-3.285M14.462 3.636c0-.903.697-1.636 1.557-1.636s1.558.733 1.558 1.636"/>
    </g>
  </g>
</svg>
