<?xml version="1.0" encoding="UTF-8"?>
<svg width="31px" height="28px" viewBox="0 0 31 28" version="1.1" xmlns="http://www.w3.org/2000/svg" xmlns:xlink="http://www.w3.org/1999/xlink">
    <!-- Generator: Sketch 52.2 (67145) - http://www.bohemiancoding.com/sketch -->
    <title>icon-tabbar-available</title>
    <desc>Created with Sketch.</desc>
    <g id="Assets" stroke="none" stroke-width="1" fill="none" fill-rule="evenodd">
        <g id="cc-assets" transform="translate(-372.000000, -282.000000)">
            <g id="menu-tabbar" transform="translate(34.000000, 41.000000)">
                <g id="icons" transform="translate(10.000000, 203.000000)" stroke="#F56B87">
                    <g id="Icons/tabbar/alert-on-active" transform="translate(328.000000, 38.000000)">
                        <g id="bell" transform="translate(4.000000, 2.000000)">
                            <path d="M8.5,19.8 C8.5,21.4568542 9.5,23 11.5,23 C13.5,23 14.5,21.4568542 14.5,19.8" id="Path" stroke-width="1.3"></path>
                            <path d="M9.5,2.5 C9.5,0.897094727 10.3,9.18485099e-17 11.5,0 C12.7,0 13.5,0.900024414 13.5,2.5" id="Shape" stroke-width="1.3" stroke-linecap="round" stroke-linejoin="round"></path>
                            <path d="M5.5,10.8542857 C6,6.91961775 6,2.5 11.5,2.5 C17,2.5 17,6.91961775 17.5,10.8542857 C17.8333333,13.4773977 19.5,16.4259691 22.5,19.7 L0.5,19.7 C3.5,16.4259691 5.16666667,13.4773977 5.5,10.8542857 Z" id="Rectangle" stroke-width="1.3" stroke-linecap="round" stroke-linejoin="round"></path>
                        </g>
                    </g>
                </g>
                <g id="slices" transform="translate(10.000000, 203.000000)"></g>
            </g>
        </g>
    </g>
</svg>