<svg width="31" height="28" viewBox="0 0 31 28" xmlns="http://www.w3.org/2000/svg">
  <g fill="none" fill-rule="evenodd">
    <g transform="translate(2 1)">
      <rect stroke="#F56B87" stroke-width="1.3" x=".5" width="26" height="26" rx="13"/>
      <path d="M14.16 7.487c-1.935 0-3.142 1.222-3.621 3.666h4.64v1.174h-4.767l-.019.519v.582l.019.41h4.212v1.173h-4.067c.225 1.092.645 1.937 1.26 2.534.616.598 1.44.897 2.47.897.947 0 1.884-.2 2.812-.6v1.364a7.01 7.01 0 0 1-2.884.591c-1.438 0-2.595-.408-3.471-1.223-.877-.816-1.455-2.004-1.734-3.563H7.5v-1.173h1.383l-.018-.383v-.4l.018-.728H7.5v-1.174h1.492c.237-1.583.798-2.817 1.684-3.703.885-.886 2.047-1.328 3.484-1.328 1.22 0 2.33.294 3.33.882l-.645 1.265c-1.007-.522-1.902-.782-2.685-.782z" fill="#F56B87"/>
    </g>
  </g>
</svg>
