<svg xmlns="http://www.w3.org/2000/svg" viewBox="0 0 564.76 575.81">
  <defs>
    <style>
      .cls-1{fill:#f46b86}
    </style>
  </defs>
  <g id="Layer_2" data-name="Layer 2">
    <g id="Layer_1-2" data-name="Layer 1">
      <path class="cls-1" d="M.05 287.87c.63-65.13 19.85-124.23 59.27-176.11C97.21 61.88 146.55 28 207 10.61A265.89 265.89 0 0 1 293.74.31c61.32 3 116.24 23.48 164 62.26q64.39 52.26 91.26 130.86c11.31 33.09 16.8 67.17 15.55 102.06-2.91 82-34.08 151.56-94.43 207.29-41.32 38.15-90.31 61.67-146 69.8-75.31 11-144.22-6-205.91-50.7-48.37-35-81.92-81.4-101.87-137.53a276.68 276.68 0 0 1-15.55-77c-.34-6.49-.97-12.96-.74-19.48z"/>
      <path d="M283.55 29c57.76.56 109.61 18.56 154.84 54.32 45.42 35.91 75.07 82.6 90.09 138.43 4.3 16 6.29 32.44 7.52 49a259.86 259.86 0 0 1-11.48 97.41 252.48 252.48 0 0 1-44.79 83.62A278.64 278.64 0 0 1 427 501.63c-3.3 2.42-4.9 2.15-7.61-1-7.27-8.3-15.52-15.74-25.62-20.38-11.39-5.23-23.4-3.91-35.29-1.55-6.56 1.31-12.61 5.26-19 5.92-10.68 1.12-16.59 8.16-23.3 14.71-12.4 12.1-24.91 24.09-37.2 36.32-2.38 2.37-3.62 2.3-5.92 0-14.42-14.56-29-28.93-43.49-43.46-3.34-3.36-6.62-5.84-11.73-6.67-6.48-1.06-12.34-4.84-18.88-6.26-12.34-2.67-24.71-4.25-36.86.57-9.17 3.63-16.09 10.58-23.18 17.09-2.63 2.42-4 2.58-6.89.38q-69.23-52.68-93.8-136.06c-5.73-19.4-8.57-39.34-9.57-59.66-2.39-48.42 7.29-94 29.91-136.88a256.43 256.43 0 0 1 56.65-71.9 251.23 251.23 0 0 1 61.17-40.44A244.24 244.24 0 0 1 244 31.94 256.39 256.39 0 0 1 283.55 29z" fill="#fefefe"/>
      <path class="cls-1" d="M164.82 261.83c.41-7.79.81-13.76 1-19.74.1-2.83 1.16-3.88 4.13-4.29 22.46-3.08 43.95-9 62.65-22.59a76.08 76.08 0 0 0 15.4-14.85c1.35-1.73 2.09-2.38 3.44 0 15.32 26.56 40.16 39.9 68.18 48.54a213.35 213.35 0 0 0 52.85 9.17c2.14.1 4.26.67 6.41.77 8.18.36 8.47.34 8 8.31-1.56 27.09-9.81 52.14-23.73 75.34-15.24 25.39-34.65 46.76-60.39 61.89a65.4 65.4 0 0 1-22.76 8.53c-7.83 1.25-15.16-1.24-22.19-4.43-23.38-10.63-41.2-27.92-56.58-47.93-17.53-22.8-29.24-48.33-34.14-76.75-1.31-7.8-1.65-15.8-2.27-21.97z"/>
      <path class="cls-1" d="M480.54 377.88c-18.81 6.19-37.58 6.49-55-3.34a98.66 98.66 0 0 1-40.14-41.34 14.25 14.25 0 0 1-.59-13.15 153.5 153.5 0 0 0 11.84-62.83c-1-40.05-11-77.29-36.73-109-15-18.56-33.81-31.85-57.07-38.31-6.6-1.83-6.66-1.91-2.35-7.48C311.59 88 325.14 77.17 343.57 74c20.35-3.51 39 1.49 56.17 12.36 20.79 13.17 34.67 32 42 55.3 9.32 29.63 11.1 59.76 1.92 89.78-3.59 11.74-8.59 23.06-11.42 35.07-4.38 18.58-7.84 37.48-2.71 56.26 6.87 25.16 22.54 43.37 47 53.53 1.29.54 2.66 1.05 4.01 1.58z"/>
      <path class="cls-1" d="M252.37 173.29c-3.85 6.48-6.17 13.31-10.44 19.09-11.39 15.45-27.35 23.91-45.08 29.67a171.81 171.81 0 0 1-24.73 5.82c-2.83.47-4.9.44-4.09-3.64 6-30 17.66-57.16 39.48-79.2 18.18-18.34 40.14-28.92 66.1-29.68 24.26-.71 45.65 7.48 64.14 23.16 26.06 22.11 39.52 51.21 46 84 1.48 7.48 2.05 15.14 3.07 22.72.35 2.59-.14 4.07-3.33 3.9-32.34-1.64-63.89-6.46-92.47-23.08-11.05-6.43-20.6-14.57-28-25.19a52.07 52.07 0 0 1-9.02-23.44c-.13-1-.27-2-.49-2.94-.11-.27-.46-.48-1.14-1.19zM296.24 421.53c-.9 13-1 25.88 2.57 38.59 2.63 9.35 7.6 17 15.82 22.19 2.62 1.66 2.7 2.69.55 4.77q-18.49 17.87-36.79 35.92c-1.57 1.54-2.47 2-4.34.08-11.72-11.8-23.6-23.45-35.49-35.09-1.8-1.76-3-3 .11-4.71 12.13-6.71 17.1-17.95 19.32-30.95 1.65-9.6 1.13-19.24.88-28.87-.08-3 .45-3.82 3.58-2.81 10.17 3.26 20.29 2.59 30.32-.94 3.54-1.26 3.69-1.09 3.47 1.82z"/>
    </g>
  </g>
</svg>
