<svg xmlns="http://www.w3.org/2000/svg" width="32" height="32" viewBox="0 0 32 32">
  <path fill="#303036" d="M9.92913432,18.4 C10.230548,15.3126814 12.833518,12.9 16,12.9 C19.166482,12.9 21.769452,15.3126814 22.0708657,18.4 L27.5,18.4 C27.8313708,18.4 28.1,18.6686292 28.1,19 C28.1,19.3313708 27.8313708,19.6 27.5,19.6 L4.5,19.6 C4.16862915,19.6 3.9,19.3313708 3.9,19 C3.9,18.6686292 4.16862915,18.4 4.5,18.4 L9.92913432,18.4 Z M11.1363675,18.4 L20.8636325,18.4 C20.5677847,15.9768356 18.5030716,14.1 16,14.1 C13.4969284,14.1 11.4322153,15.9768356 11.1363675,18.4 Z M15.4,7.5 C15.4,7.16862915 15.6686292,6.9 16,6.9 C16.3313708,6.9 16.6,7.16862915 16.6,7.5 L16.6,10.5 C16.6,10.8313708 16.3313708,11.1 16,11.1 C15.6686292,11.1 15.4,10.8313708 15.4,10.5 L15.4,7.5 Z M23.7074639,10.4440079 C23.9417785,10.2096934 24.3216775,10.2096934 24.5559921,10.4440079 C24.7903066,10.6783225 24.7903066,11.0582215 24.5559921,11.2925361 L22.4346717,13.4138564 C22.2003571,13.648171 21.8204581,13.648171 21.5861436,13.4138564 C21.351829,13.1795419 21.351829,12.7996429 21.5861436,12.5653283 L23.7074639,10.4440079 Z M7.44400795,11.2925361 C7.20969337,11.0582215 7.20969337,10.6783225 7.44400795,10.4440079 C7.67832252,10.2096934 8.05822151,10.2096934 8.29253609,10.4440079 L10.4138564,12.5653283 C10.648171,12.7996429 10.648171,13.1795419 10.4138564,13.4138564 C10.1795419,13.648171 9.79964287,13.648171 9.56532829,13.4138564 L7.44400795,11.2925361 Z"/>
</svg>
