<?xml version="1.0" encoding="UTF-8"?>
<svg width="17px" height="17px" viewBox="0 0 17 17" version="1.1" xmlns="http://www.w3.org/2000/svg" xmlns:xlink="http://www.w3.org/1999/xlink">
    <!-- Generator: Sketch 55.2 (78181) - https://sketchapp.com -->
    <title>Icons / 32x32 / search</title>
    <desc>Created with Sketch.</desc>
    <g id="Alpha-screens" stroke="none" stroke-width="1" fill="none" fill-rule="evenodd">
        <g id="ALPHA-contact" transform="translate(-24.000000, -282.000000)" fill="#97979A">
            <g id="Icons-/-24x24-/-search" transform="translate(20.000000, 278.540606)">
                <path d="M15.6709015,14.5045022 L20.3653041,19.1989049 C20.5996187,19.4332195 20.5996187,19.8131184 20.3653041,20.047433 C20.1309895,20.2817476 19.7510905,20.2817476 19.516776,20.047433 L14.8171891,15.3478462 C13.6771975,16.2863979 12.2169169,16.85 10.625,16.85 C6.97992065,16.85 4.025,13.8950793 4.025,10.25 C4.025,6.60492065 6.97992065,3.65 10.625,3.65 C14.2700793,3.65 17.225,6.60492065 17.225,10.25 C17.225,11.8710727 16.6405641,13.3556432 15.6709015,14.5045022 Z M10.625,15.65 C13.6073376,15.65 16.025,13.2323376 16.025,10.25 C16.025,7.26766235 13.6073376,4.85 10.625,4.85 C7.64266235,4.85 5.225,7.26766235 5.225,10.25 C5.225,13.2323376 7.64266235,15.65 10.625,15.65 Z" id="icon"></path>
            </g>
        </g>
    </g>
</svg>