<svg width="30" height="30" viewBox="0 0 30 30" xmlns="http://www.w3.org/2000/svg" xmlns:xlink="http://www.w3.org/1999/xlink">
  <defs>
    <path d="M18.016 9.118a1.097 1.097 0 0 1-1.043-.764L14.543.765A1.105 1.105 0 0 0 13.5 0c-.471 0-.89.307-1.043.765l-2.43 7.589c-.151.459-.571.766-1.043.764h-7.89c-.469-.011-.89.293-1.039.749-.148.456.01.959.39 1.24l6.403 4.72c.378.276.538.772.394 1.225l-2.44 7.622c-.105.34-.044.711.164.997.207.286.536.452.884.446.232 0 .457-.077.644-.218l6.357-4.687c.388-.285.91-.285 1.298 0l6.357 4.687c.187.14.412.217.644.218.348.006.677-.16.884-.446.208-.286.269-.657.164-.997l-2.44-7.622a1.104 1.104 0 0 1 .394-1.225l6.403-4.72c.38-.281.538-.784.39-1.24a1.072 1.072 0 0 0-1.039-.75h-7.89z" id="a"/>
  </defs>
  <g fill="none" fill-rule="evenodd">
    <g transform="translate(1 1)">
      <mask id="b" fill="#fff">
        <use xlink:href="#a"/>
      </mask>
      <use fill="#F56B87" xlink:href="#a"/>
      <g mask="url(#b)" fill="#F56B87">
        <path d="M0 0h28v27H0z"/>
      </g>
    </g>
  </g>
</svg>
