<svg height="16" viewBox="0 0 16 16" width="16" xmlns="http://www.w3.org/2000/svg" xmlns:xlink="http://www.w3.org/1999/xlink"><defs><path id="a" d="m10.0090332 4.92854936c-.2621177.00143754-.49565005-.16501674-.57943418-.41300188l-1.35016483-4.10206088c-.08477074-.24732068-.31762524-.4134866-.57943419-.4134866s-.49466345.16616592-.57943419.4134866l-1.35016483 4.10206088c-.08378413.24798514-.31731648.41443942-.57943419.41300188h-4.38318397c-.26043083-.00583488-.49432308.15831899-.57700449.40496217-.08268141.24664319.00511501.51830122.21659088.67017141l3.55700508 2.55164297c.21016298.14902096.29889315.41715327.21902058.66185489l-1.35570965 4.1203304c-.05826408.1837983-.02441364.3843598.09096185.5389424.11537548.1545825.29818679.2443093.49124475.2411107.1287407-.0005991.25396793-.041986.35764119-.1181982l3.53205338-2.5333735c.21555637-.1538966.50527085-.1538966.72082722 0l3.53205339 2.5333735c.1036733.0762122.2289005.1175991.3576412.1181982.1930579.0031986.3758692-.0865282.4912447-.2411107.1153755-.1545826.149226-.3551441.0909619-.5389424l-1.3557097-4.1203304c-.0798725-.24470162.0088576-.51283393.2190206-.66185489l3.5570051-2.55164297c.2114759-.15187019.2992723-.42352822.2165909-.67017141-.0826814-.24664318-.3165737-.41079705-.5770045-.40496217z"/><mask id="b" fill="#fff"><use fill="none" xlink:href="#a"/></mask></defs><g fill="none" fill-rule="evenodd" transform="translate(.5 1)"><use fill="#f56b87" xlink:href="#a"/><g fill="#e6e6e6" mask="url(#b)"><path d="m0 0h16v15h-16z"/></g></g></svg>