<svg height="30" viewBox="0 0 30 30" width="30" xmlns="http://www.w3.org/2000/svg" xmlns:xlink="http://www.w3.org/1999/xlink"><defs><path id="a" d="m18.0162598 9.11781632c-.4718119.00265944-.8921701-.30528097-1.0429816-.76405348l-2.4302967-7.58881263c-.1525873-.45754327-.5717254-.76495021-1.0429815-.76495021s-.8903942.30740694-1.0429815.76495021l-2.4302967 7.58881263c-.15081148.45877251-.57116971.76671292-1.04298157.76405348h-7.88973116c-.46877548-.01079453-.88978154.29289012-1.03860808.74918002-.14882654.45628986.00920702.95885726.38986358 1.23981706l6.40260916 4.7205395c.37829336.2756888.53800766.7717336.39423704 1.2244316l-2.44027738 7.6226112c-.10487535.3400269-.04394454.7110656.16373133.9970434s.53673624.4519722.88424055.4460549c.23173326-.0011084.45714227-.0776741.64375416-.2186667l6.35769607-4.6867409c.3880015-.2847088.9094875-.2847088 1.297489 0l6.3576961 4.6867409c.1866119.1409926.4120209.2175583.6437541.2186667.3475043.0059173.6765647-.1600771.8842406-.4460549.2076758-.2859778.2686067-.6570165.1637313-.9970434l-2.4402774-7.6226112c-.1437706-.452698.0159437-.9487428.3942371-1.2244316l6.4026091-4.7205395c.3806566-.2809598.5386902-.7835272.3898636-1.23981706-.1488265-.4562899-.5698326-.75997455-1.0386081-.74918002z"/><mask id="b" fill="#fff"><use fill="none" xlink:href="#a"/></mask></defs><g fill="none" fill-rule="evenodd" transform="translate(1 1)"><use fill="#f56b87" xlink:href="#a"/><g fill="#d9d9d9" mask="url(#b)"><path d="m0 0h28v27h-28z"/></g></g></svg>