<svg height="12" viewBox="0 0 12 12" width="12" xmlns="http://www.w3.org/2000/svg" xmlns:xlink="http://www.w3.org/1999/xlink"><defs><path id="a" d="m7.33995768 3.53212704c-.19221964.00103024-.3634767-.118262-.4249184-.29598468l-.99012088-2.9398103c-.06216521-.17724649-.23292517-.29633206-.4249184-.29633206s-.36275319.11908557-.4249184.29633206l-.99012088 2.9398103c-.0614417.17772268-.23269876.29701492-.4249184.29598468h-3.21433492c-.1909826-.00418166-.36250359.11346194-.42313663.29022289-.06063303.17676095.00375101.37144921.15883332.48028951l2.60847039 1.82867746c.15411952.10679836.21918831.29895985.16061509.47432934l-.99418708 2.95290345c-.04272699.13172212-.01790333.27545783.06670536.38624202s.21867032.17508839.36024615.17279609c.09440985-.0004294.18624315-.03009.26227021-.0847088l2.59017248-1.81558428c.15807466-.11029257.37053196-.11029257.52860662 0l2.59017248 1.81558428c.07602706.0546188.16786036.0842794.26227021.0847088.14157583.0022923.27563746-.0620119.36024615-.17279609s.10943235-.2545199.06670536-.38624202l-.99418708-2.95290345c-.05857322-.17536949.00649557-.36753098.16061509-.47432934l2.60847038-1.82867746c.1550823-.1088403.2194664-.30352856.1588333-.48028951-.060633-.17676095-.232154-.29440455-.4231366-.29022289z"/><mask id="b" fill="#fff"><use fill="none" xlink:href="#a"/></mask></defs><g fill="none" fill-rule="evenodd" transform="translate(.5 1)"><use fill="#f56b87" xlink:href="#a"/><g fill="#68686e" mask="url(#b)"><path d="m0 0h12v11h-12z"/></g></g></svg>