<?xml version="1.0" encoding="UTF-8"?>
<svg width="18px" height="18px" viewBox="0 0 18 18" version="1.1" xmlns="http://www.w3.org/2000/svg" xmlns:xlink="http://www.w3.org/1999/xlink">
    <!-- Generator: Sketch 55.2 (78181) - https://sketchapp.com -->
    <title>Group 6</title>
    <desc>Created with Sketch.</desc>
    <defs>
        <path d="M9,18 C4.02943725,18 0,13.9705627 0,9 C0,4.02943725 4.02943725,0 9,0 C13.9705627,0 18,4.02943725 18,9 C18,13.9705627 13.9705627,18 9,18 Z M9,16.9014085 C13.3638274,16.9014085 16.9014085,13.3638274 16.9014085,9 C16.9014085,4.63617261 13.3638274,1.09859155 9,1.09859155 C4.63617261,1.09859155 1.09859155,4.63617261 1.09859155,9 C1.09859155,13.3638274 4.63617261,16.9014085 9,16.9014085 Z M8.43667474,2.78122249 C8.43667474,2.47785481 8.68260283,2.23192672 8.98597051,2.23192672 C9.28933819,2.23192672 9.53526629,2.47785481 9.53526629,2.78122249 L9.53526629,9.04229478 C9.53526629,9.26077893 9.40578265,9.45849058 9.20550708,9.54581196 L5.16583939,11.3071318 C4.88775453,11.4283785 4.56403235,11.3012361 4.44278565,11.0231512 C4.32153894,10.7450664 4.44868139,10.4213442 4.72676624,10.3000975 L8.43667474,8.68255465 L8.43667474,2.78122249 Z" id="path-1"></path>
    </defs>
    <g id="Alpha-screens" stroke="none" stroke-width="1" fill="none" fill-rule="evenodd">
        <g id="Angel-Contact" transform="translate(-89.000000, -622.000000)">
            <g id="Group-6" transform="translate(89.000000, 622.000000)">
                <mask id="mask-2" fill="white">
                    <use xlink:href="#path-1"></use>
                </mask>
                <use id="Combined-Shape" fill="#4A8FE2" fill-rule="nonzero" xlink:href="#path-1"></use>
            </g>
        </g>
    </g>
</svg>