<?xml version="1.0" encoding="UTF-8"?>
<svg width="22px" height="24px" viewBox="0 0 22 24" version="1.1" xmlns="http://www.w3.org/2000/svg" xmlns:xlink="http://www.w3.org/1999/xlink">
    <!-- Generator: Sketch 54.1 (76490) - https://sketchapp.com -->
    <title>Colors/cc-pink</title>
    <desc>Created with Sketch.</desc>
    <defs>
        <path d="M3.5,3.35 L6.85,3.35 L6.85,1 C6.85,0.641014913 7.14101491,0.35 7.5,0.35 L15.5,0.35 C15.8589851,0.35 16.15,0.641014913 16.15,1 L16.15,3.35 L19.5,3.35 L21.5,3.35 C21.8589851,3.35 22.15,3.64101491 22.15,4 C22.15,4.35898509 21.8589851,4.65 21.5,4.65 L20.15,4.65 L20.15,21 C20.15,22.4635546 18.9635546,23.65 17.5,23.65 L5.5,23.65 C4.03644541,23.65 2.85,22.4635546 2.85,21 L2.85,4.65 L1.5,4.65 C1.14101491,4.65 0.85,4.35898509 0.85,4 C0.85,3.64101491 1.14101491,3.35 1.5,3.35 L3.5,3.35 Z M4.15,4.65 L4.15,21 C4.15,21.7455844 4.75441559,22.35 5.5,22.35 L17.5,22.35 C18.2455844,22.35 18.85,21.7455844 18.85,21 L18.85,4.65 L4.15,4.65 Z M14.85,3.35 L14.85,1.65 L8.15,1.65 L8.15,3.35 L14.85,3.35 Z M10.85,8 C10.85,7.64101491 11.1410149,7.35 11.5,7.35 C11.8589851,7.35 12.15,7.64101491 12.15,8 L12.15,18 C12.15,18.3589851 11.8589851,18.65 11.5,18.65 C11.1410149,18.65 10.85,18.3589851 10.85,18 L10.85,8 Z M14.35,8 C14.35,7.64101491 14.6410149,7.35 15,7.35 C15.3589851,7.35 15.65,7.64101491 15.65,8 L15.65,18 C15.65,18.3589851 15.3589851,18.65 15,18.65 C14.6410149,18.65 14.35,18.3589851 14.35,18 L14.35,8 Z M7.35,8 C7.35,7.64101491 7.64101491,7.35 8,7.35 C8.35898509,7.35 8.65,7.64101491 8.65,8 L8.65,18 C8.65,18.3589851 8.35898509,18.65 8,18.65 C7.64101491,18.65 7.35,18.3589851 7.35,18 L7.35,8 Z" id="path-1"></path>
    </defs>
    <g id="Symbols" stroke="none" stroke-width="1" fill="none" fill-rule="evenodd">
        <g id="Icons-/-32x32-/-trash" transform="translate(-5.000000, -4.000000)">
            <g id="Colors/cc-pink" transform="translate(4.500000, 4.000000)">
                <mask id="mask-2" fill="white">
                    <use xlink:href="#path-1"></use>
                </mask>
                <use id="trash" fill="#F56B87" fill-rule="nonzero" xlink:href="#path-1"></use>
                <g mask="url(#mask-2)" fill="#F56B87" id="Rectangle-5">
                    <g transform="translate(-4.500000, -4.000000)">
                        <rect x="0" y="0" width="32" height="32"></rect>
                    </g>
                </g>
            </g>
        </g>
    </g>
</svg>